STARTFONT 2.1
FONT -Adobe-Utopia-Bold-I-Normal--19-180-75-75-P-105-ISO10646-1
SIZE 18 75 75
FONTBOUNDINGBOX 28 28 -4 -9
COMMENT $XFree86$
COMMENT ISO10646-1 extension by Markus Kuhn <mkuhn@acm.org>, 2001-03-20
STARTPROPERTIES 28
FOUNDRY "Adobe"
FAMILY_NAME "Utopia"
WEIGHT_NAME "Bold"
SLANT "I"
SETWIDTH_NAME "Normal"
ADD_STYLE_NAME ""
PIXEL_SIZE 19
POINT_SIZE 180
RESOLUTION_X 75
RESOLUTION_Y 75
SPACING "P"
AVERAGE_WIDTH 105
CHARSET_REGISTRY "ISO10646"
CHARSET_ENCODING "1"
CAP_HEIGHT 13
X_HEIGHT 9
RELATIVE_SETWIDTH 50
RELATIVE_WEIGHT 70
WEIGHT 208
FACE_NAME "Utopia Bold Italic"
COPYRIGHT "Copyright (c) 1989, 1991 Adobe Systems Incorporated.  All rights reserved."
NOTICE "Utopia is a registered trademark of Adobe Systems Incorporated."
DESTINATION 0
FONT_ASCENT 14
FONT_DESCENT 4
DEFAULT_CHAR 0
_ADOBE_PSFONT "Utopia-BoldItalic"
_DEC_DEVICE_FONTNAMES "PS=Utopia-BoldItalic"
ENDPROPERTIES
CHARS 723
STARTCHAR char0
ENCODING 0
SWIDTH 800 0
DWIDTH 15 0
BBX 15 13 0 0
BITMAP
AAAA
0000
8002
0000
8002
0000
8002
0000
8002
0000
8002
0000
AAAA
ENDCHAR
STARTCHAR space
ENCODING 32
SWIDTH 210 0
DWIDTH 4 0
BBX 0 0 0 0
BITMAP
ENDCHAR
STARTCHAR exclam
ENCODING 33
SWIDTH 285 0
DWIDTH 5 0
BBX 6 13 0 0
BITMAP
1C
1C
1C
38
38
38
30
30
20
00
60
F0
60
ENDCHAR
STARTCHAR quotedbl
ENCODING 34
SWIDTH 455 0
DWIDTH 8 0
BBX 6 7 1 6
BITMAP
6C
6C
FC
D8
D8
90
90
ENDCHAR
STARTCHAR numbersign
ENCODING 35
SWIDTH 560 0
DWIDTH 11 0
BBX 11 12 0 1
BITMAP
0CC0
0CC0
0CC0
3FE0
1980
1980
3300
3300
FF80
6600
6600
6600
ENDCHAR
STARTCHAR dollar
ENCODING 36
SWIDTH 560 0
DWIDTH 11 0
BBX 11 15 0 -1
BITMAP
0100
07C0
1DE0
3A60
3A00
3E00
3F00
1F80
0F80
0B80
0B80
CB80
F700
7C00
1000
ENDCHAR
STARTCHAR percent
ENCODING 37
SWIDTH 896 0
DWIDTH 17 0
BBX 15 13 1 0
BITMAP
3C10
67F0
C620
C640
C6C0
CC80
793C
0266
06C6
04C6
08C6
18CC
1078
ENDCHAR
STARTCHAR ampersand
ENCODING 38
SWIDTH 752 0
DWIDTH 15 0
BBX 14 13 0 0
BITMAP
07C0
0E60
1C60
1C60
0EC0
0F0C
3F0C
7B8C
F1C8
F1D0
F0E0
78F0
3F3C
ENDCHAR
STARTCHAR quotesingle
ENCODING 39
SWIDTH 246 0
DWIDTH 5 0
BBX 3 7 1 6
BITMAP
60
60
E0
C0
C0
80
80
ENDCHAR
STARTCHAR parenleft
ENCODING 40
SWIDTH 350 0
DWIDTH 7 0
BBX 7 16 0 -3
BITMAP
0E
1C
38
38
70
70
70
E0
E0
E0
E0
E0
E0
70
70
38
ENDCHAR
STARTCHAR parenright
ENCODING 41
SWIDTH 350 0
DWIDTH 7 0
BBX 7 16 -1 -3
BITMAP
38
1C
1C
0E
0E
0E
0E
0E
0E
1C
1C
1C
38
38
70
E0
ENDCHAR
STARTCHAR asterisk
ENCODING 42
SWIDTH 500 0
DWIDTH 9 0
BBX 8 7 0 6
BITMAP
08
6B
3E
18
7C
D6
10
ENDCHAR
STARTCHAR plus
ENCODING 43
SWIDTH 600 0
DWIDTH 11 0
BBX 10 10 0 0
BITMAP
0C00
0C00
0C00
0C00
FFC0
FFC0
0C00
0C00
0C00
0C00
ENDCHAR
STARTCHAR comma
ENCODING 44
SWIDTH 280 0
DWIDTH 5 0
BBX 5 6 -2 -3
BITMAP
30
38
38
30
60
C0
ENDCHAR
STARTCHAR hyphen
ENCODING 45
SWIDTH 392 0
DWIDTH 7 0
BBX 5 2 1 4
BITMAP
F8
F8
ENDCHAR
STARTCHAR period
ENCODING 46
SWIDTH 280 0
DWIDTH 5 0
BBX 4 3 0 0
BITMAP
60
F0
60
ENDCHAR
STARTCHAR slash
ENCODING 47
SWIDTH 260 0
DWIDTH 7 0
BBX 5 13 1 0
BITMAP
18
18
18
30
30
30
60
60
60
60
C0
C0
C0
ENDCHAR
STARTCHAR zero
ENCODING 48
SWIDTH 560 0
DWIDTH 11 0
BBX 11 13 0 0
BITMAP
0780
1DC0
39C0
39E0
79E0
71E0
F1E0
F1C0
F3C0
F380
7380
7700
3C00
ENDCHAR
STARTCHAR one
ENCODING 49
SWIDTH 560 0
DWIDTH 11 0
BBX 9 13 1 0
BITMAP
0780
3F00
0F00
0F00
1E00
1E00
1E00
1E00
1E00
3C00
3C00
3C00
FF00
ENDCHAR
STARTCHAR two
ENCODING 50
SWIDTH 560 0
DWIDTH 11 0
BBX 11 13 0 0
BITMAP
0F80
39C0
71E0
21E0
01E0
03C0
0780
1E00
3800
7040
FFC0
FF80
FF80
ENDCHAR
STARTCHAR three
ENCODING 51
SWIDTH 560 0
DWIDTH 11 0
BBX 11 13 0 0
BITMAP
0FC0
39E0
71E0
21E0
01C0
0380
1F80
03C0
03C0
43C0
E3C0
E780
7E00
ENDCHAR
STARTCHAR four
ENCODING 52
SWIDTH 560 0
DWIDTH 11 0
BBX 10 13 0 0
BITMAP
0380
0780
0700
0E40
0CC0
19C0
33C0
63C0
C780
FFC0
0780
0780
0FC0
ENDCHAR
STARTCHAR five
ENCODING 53
SWIDTH 560 0
DWIDTH 11 0
BBX 11 13 0 0
BITMAP
1FE0
1FC0
1F80
3000
2000
3F00
2380
03C0
03C0
43C0
E3C0
E780
7E00
ENDCHAR
STARTCHAR six
ENCODING 54
SWIDTH 560 0
DWIDTH 11 0
BBX 11 13 0 0
BITMAP
07C0
1DE0
38C0
3800
7800
7780
F9C0
F1C0
F1C0
F3C0
7380
7700
3E00
ENDCHAR
STARTCHAR seven
ENCODING 55
SWIDTH 560 0
DWIDTH 11 0
BBX 11 13 0 0
BITMAP
3FE0
7FE0
7FC0
8180
0300
0600
0E00
1C00
1C00
3C00
3C00
3C00
1800
ENDCHAR
STARTCHAR eight
ENCODING 56
SWIDTH 560 0
DWIDTH 11 0
BBX 11 13 0 0
BITMAP
0F80
1CC0
38E0
38E0
3CE0
1FC0
1F80
77C0
E3C0
E1C0
E1C0
6380
3F00
ENDCHAR
STARTCHAR nine
ENCODING 57
SWIDTH 560 0
DWIDTH 11 0
BBX 11 13 0 0
BITMAP
0F80
1DC0
39C0
79E0
71E0
71E0
73E0
3DC0
03C0
0380
6380
F700
7C00
ENDCHAR
STARTCHAR colon
ENCODING 58
SWIDTH 280 0
DWIDTH 5 0
BBX 5 9 0 0
BITMAP
30
78
30
00
00
00
60
F0
60
ENDCHAR
STARTCHAR semicolon
ENCODING 59
SWIDTH 280 0
DWIDTH 5 0
BBX 7 12 -2 -3
BITMAP
0C
1E
0C
00
00
00
30
38
38
30
60
C0
ENDCHAR
STARTCHAR less
ENCODING 60
SWIDTH 600 0
DWIDTH 11 0
BBX 10 10 0 0
BITMAP
00C0
03C0
0F00
3C00
F000
F000
3C00
0F00
03C0
00C0
ENDCHAR
STARTCHAR equal
ENCODING 61
SWIDTH 600 0
DWIDTH 11 0
BBX 10 6 0 2
BITMAP
FFC0
FFC0
0000
0000
FFC0
FFC0
ENDCHAR
STARTCHAR greater
ENCODING 62
SWIDTH 600 0
DWIDTH 11 0
BBX 10 10 0 0
BITMAP
C000
F000
3C00
0F00
03C0
03C0
0F00
3C00
F000
C000
ENDCHAR
STARTCHAR question
ENCODING 63
SWIDTH 454 0
DWIDTH 9 0
BBX 8 13 1 0
BITMAP
3E
77
67
07
0E
38
70
7C
30
00
60
F0
60
ENDCHAR
STARTCHAR at
ENCODING 64
SWIDTH 828 0
DWIDTH 17 0
BBX 14 13 1 0
BITMAP
07E0
1C38
3008
63EC
6664
CC64
CCC4
CCCC
CDD8
66F0
6000
3830
0FE0
ENDCHAR
STARTCHAR A
ENCODING 65
SWIDTH 634 0
DWIDTH 12 0
BBX 13 13 -1 0
BITMAP
01C0
01C0
03C0
03C0
05E0
05E0
09E0
09E0
1FF0
10F0
20F0
60F0
F1F8
ENDCHAR
STARTCHAR B
ENCODING 66
SWIDTH 680 0
DWIDTH 13 0
BBX 13 13 0 0
BITMAP
3FF0
1E78
1E78
1E78
3C70
3CF0
3FC0
3CE0
3CF0
78F0
78F0
79E0
FFC0
ENDCHAR
STARTCHAR C
ENCODING 67
SWIDTH 672 0
DWIDTH 13 0
BBX 13 13 0 0
BITMAP
07F0
1E38
3C10
7810
7800
7800
F000
F000
F000
F020
7060
70C0
1F00
ENDCHAR
STARTCHAR D
ENCODING 68
SWIDTH 774 0
DWIDTH 15 0
BBX 14 13 0 0
BITMAP
3FE0
1E38
1E38
1E3C
3C3C
3C3C
3C3C
3C78
3C78
7878
78F0
79E0
FF80
ENDCHAR
STARTCHAR E
ENCODING 69
SWIDTH 622 0
DWIDTH 12 0
BBX 12 13 0 0
BITMAP
3FF0
1E30
1E20
1E00
3C20
3C60
3FC0
3C40
3C00
7820
7860
78C0
FFC0
ENDCHAR
STARTCHAR F
ENCODING 70
SWIDTH 585 0
DWIDTH 12 0
BBX 12 13 0 0
BITMAP
3FF0
1E30
1E20
1E00
3C20
3C60
3FC0
3C40
3C00
7800
7800
7800
FC00
ENDCHAR
STARTCHAR G
ENCODING 71
SWIDTH 726 0
DWIDTH 13 0
BBX 13 13 0 0
BITMAP
07F0
1E38
3C10
7810
7800
7800
F000
F1F8
F0F0
F0F0
70F0
71E0
1F80
ENDCHAR
STARTCHAR H
ENCODING 72
SWIDTH 800 0
DWIDTH 15 0
BBX 15 13 0 0
BITMAP
3F7E
1E3C
1E3C
1E3C
3C78
3C78
3FF8
3C78
3C78
78F0
78F0
78F0
FDF8
ENDCHAR
STARTCHAR I
ENCODING 73
SWIDTH 386 0
DWIDTH 7 0
BBX 8 13 -1 0
BITMAP
3F
1E
1E
1E
3C
3C
3C
3C
3C
78
78
78
FC
ENDCHAR
STARTCHAR J
ENCODING 74
SWIDTH 388 0
DWIDTH 7 0
BBX 10 15 -3 -2
BITMAP
0FC0
0780
0780
0780
0F00
0F00
0F00
0F00
1E00
1E00
1E00
1E00
3C00
3C00
F000
ENDCHAR
STARTCHAR K
ENCODING 75
SWIDTH 688 0
DWIDTH 14 0
BBX 14 13 0 0
BITMAP
3F3C
1E18
1E30
1E60
3CC0
3D80
3FC0
3DC0
3DE0
79E0
78F0
78F8
FC7C
ENDCHAR
STARTCHAR L
ENCODING 76
SWIDTH 586 0
DWIDTH 11 0
BBX 11 13 0 0
BITMAP
3F00
1E00
1E00
1E00
3C00
3C00
3C00
3C00
3C00
7820
7860
78C0
FFC0
ENDCHAR
STARTCHAR M
ENCODING 77
SWIDTH 921 0
DWIDTH 18 0
BBX 18 13 0 0
BITMAP
3E0FC0
1E0F80
1E1780
1E1780
2F2F00
2F2F00
2F4F00
27CF00
678F00
479E00
471E00
431E00
E23F00
ENDCHAR
STARTCHAR N
ENCODING 78
SWIDTH 741 0
DWIDTH 14 0
BBX 14 13 0 0
BITMAP
3E1C
1E08
1F08
1F08
3F98
2790
27D0
23D0
63F0
41E0
41E0
40E0
E0E0
ENDCHAR
STARTCHAR O
ENCODING 79
SWIDTH 761 0
DWIDTH 14 0
BBX 14 13 0 0
BITMAP
07E0
1E38
3C38
783C
783C
783C
F03C
F078
F078
F078
70F0
71E0
1F80
ENDCHAR
STARTCHAR P
ENCODING 80
SWIDTH 660 0
DWIDTH 12 0
BBX 13 13 -1 0
BITMAP
3FF0
1E78
1E78
1E78
3C78
3C70
3CF0
3FC0
3C00
7800
7800
7800
FC00
ENDCHAR
STARTCHAR Q
ENCODING 81
SWIDTH 761 0
DWIDTH 14 0
BBX 14 17 0 -4
BITMAP
07E0
1E38
3C38
783C
783C
783C
F03C
F078
F078
F078
70F0
71E0
1F80
0700
0780
03C0
00F0
ENDCHAR
STARTCHAR R
ENCODING 82
SWIDTH 681 0
DWIDTH 13 0
BBX 13 13 0 0
BITMAP
3FF0
1E78
1E78
1E78
3C70
3CF0
3FC0
3CE0
3CF0
78F0
78F0
78F0
FC78
ENDCHAR
STARTCHAR S
ENCODING 83
SWIDTH 551 0
DWIDTH 11 0
BBX 11 13 0 0
BITMAP
07C0
1CE0
3860
3820
3C00
3F00
1F80
0FC0
03C0
81C0
C1C0
E380
7E00
ENDCHAR
STARTCHAR T
ENCODING 84
SWIDTH 616 0
DWIDTH 12 0
BBX 12 13 1 0
BITMAP
FFF0
CF30
8F10
0F00
1E00
1E00
1E00
1E00
1E00
3C00
3C00
3C00
7E00
ENDCHAR
STARTCHAR U
ENCODING 85
SWIDTH 776 0
DWIDTH 15 0
BBX 15 13 0 0
BITMAP
7E7E
3C3C
3C3C
3C3C
7878
7878
7878
7878
F0F0
F0F0
F0F0
79E0
3FC0
ENDCHAR
STARTCHAR V
ENCODING 86
SWIDTH 630 0
DWIDTH 12 0
BBX 13 13 0 0
BITMAP
FC78
7830
7820
7840
3C40
3C80
3C80
3D00
3D00
1E00
1E00
1C00
1C00
ENDCHAR
STARTCHAR W
ENCODING 87
SWIDTH 920 0
DWIDTH 18 0
BBX 19 13 0 0
BITMAP
FCF1E0
78F0C0
78F080
78F100
78F100
797200
3D7A00
3E7C00
3E7C00
3C7800
3C7800
387800
387000
ENDCHAR
STARTCHAR X
ENCODING 88
SWIDTH 630 0
DWIDTH 12 0
BBX 12 13 0 0
BITMAP
7EF0
3C60
3C40
1E80
1E80
0F00
0F00
0F00
1780
1780
23C0
63C0
F7E0
ENDCHAR
STARTCHAR Y
ENCODING 89
SWIDTH 622 0
DWIDTH 12 0
BBX 12 13 1 0
BITMAP
FCF0
7860
7840
7880
7900
3E00
3E00
3C00
3C00
7800
7800
7800
FC00
ENDCHAR
STARTCHAR Z
ENCODING 90
SWIDTH 618 0
DWIDTH 12 0
BBX 12 13 0 0
BITMAP
3FF0
71F0
63E0
43C0
07C0
0F80
0F00
1F00
3E00
3C20
7C60
F8E0
FFC0
ENDCHAR
STARTCHAR bracketleft
ENCODING 91
SWIDTH 350 0
DWIDTH 6 0
BBX 7 16 0 -3
BITMAP
1E
1C
1C
1C
38
38
38
38
70
70
70
70
E0
E0
E0
F0
ENDCHAR
STARTCHAR backslash
ENCODING 92
SWIDTH 460 0
DWIDTH 7 0
BBX 5 13 1 0
BITMAP
C0
C0
C0
60
60
60
30
30
30
30
18
18
18
ENDCHAR
STARTCHAR bracketright
ENCODING 93
SWIDTH 350 0
DWIDTH 6 0
BBX 7 16 -1 -3
BITMAP
1E
0E
0E
0E
1C
1C
1C
1C
38
38
38
38
70
70
70
F0
ENDCHAR
STARTCHAR asciicircum
ENCODING 94
SWIDTH 600 0
DWIDTH 11 0
BBX 10 10 0 3
BITMAP
0C00
0C00
1E00
1E00
3300
3300
6180
6180
C0C0
C0C0
ENDCHAR
STARTCHAR underscore
ENCODING 95
SWIDTH 500 0
DWIDTH 9 0
BBX 9 1 0 -3
BITMAP
FF80
ENDCHAR
STARTCHAR grave
ENCODING 96
SWIDTH 400 0
DWIDTH 7 0
BBX 3 2 2 10
BITMAP
C0
60
ENDCHAR
STARTCHAR a
ENCODING 97
SWIDTH 596 0
DWIDTH 11 0
BBX 12 9 0 0
BITMAP
0EE0
39E0
70E0
71C0
F1C0
E3C0
E790
EBA0
71C0
ENDCHAR
STARTCHAR b
ENCODING 98
SWIDTH 586 0
DWIDTH 11 0
BBX 10 14 0 0
BITMAP
3C00
1C00
1C00
3C00
3800
3B80
3DC0
79C0
71C0
73C0
F380
E380
E700
BE00
ENDCHAR
STARTCHAR c
ENCODING 99
SWIDTH 456 0
DWIDTH 9 0
BBX 9 9 0 0
BITMAP
0F00
3980
7100
7000
F000
E000
E100
E200
7C00
ENDCHAR
STARTCHAR d
ENCODING 100
SWIDTH 609 0
DWIDTH 12 0
BBX 12 14 0 0
BITMAP
00F0
0070
0070
00F0
00E0
0FE0
38E0
71C0
71C0
F1C0
E3C0
E790
EBA0
71C0
ENDCHAR
STARTCHAR e
ENCODING 101
SWIDTH 476 0
DWIDTH 9 0
BBX 9 9 0 0
BITMAP
0F00
3B80
7380
7700
FC00
E000
E100
E200
7C00
ENDCHAR
STARTCHAR f
ENCODING 102
SWIDTH 348 0
DWIDTH 7 0
BBX 12 18 -3 -4
BITMAP
00E0
01B0
03B0
0380
0380
0FE0
0700
0700
0F00
0E00
0E00
0E00
1E00
1C00
1C00
DC00
D800
7000
ENDCHAR
STARTCHAR g
ENCODING 103
SWIDTH 522 0
DWIDTH 10 0
BBX 12 13 -1 -4
BITMAP
0FF0
1DC0
39C0
39C0
3B80
1F00
1800
3E00
3F80
63C0
E1C0
E380
7F00
ENDCHAR
STARTCHAR h
ENCODING 104
SWIDTH 629 0
DWIDTH 12 0
BBX 12 14 0 0
BITMAP
3C00
1C00
1C00
3C00
3800
39C0
3AE0
74E0
79E0
71C0
71C0
F3D0
E3A0
E1C0
ENDCHAR
STARTCHAR i
ENCODING 105
SWIDTH 339 0
DWIDTH 6 0
BBX 6 13 0 0
BITMAP
18
3C
18
00
78
38
78
70
70
F0
E4
E8
70
ENDCHAR
STARTCHAR j
ENCODING 106
SWIDTH 333 0
DWIDTH 6 0
BBX 9 17 -3 -4
BITMAP
0300
0780
0300
0000
0F00
0700
0700
0F00
0E00
0E00
0E00
1E00
1C00
1C00
DC00
D800
7000
ENDCHAR
STARTCHAR k
ENCODING 107
SWIDTH 570 0
DWIDTH 11 0
BBX 11 14 0 0
BITMAP
3C00
1C00
1C00
3C00
3800
38C0
39E0
7380
7600
7E00
F700
E720
E3C0
E380
ENDCHAR
STARTCHAR l
ENCODING 108
SWIDTH 327 0
DWIDTH 6 0
BBX 6 14 0 0
BITMAP
3C
1C
1C
3C
38
38
38
70
70
70
F0
E4
E8
70
ENDCHAR
STARTCHAR m
ENCODING 109
SWIDTH 914 0
DWIDTH 17 0
BBX 18 9 0 0
BITMAP
79C700
3AEB80
3CF380
79E780
71C700
71C700
F3CF40
E38E80
E38700
ENDCHAR
STARTCHAR n
ENCODING 110
SWIDTH 635 0
DWIDTH 12 0
BBX 12 9 0 0
BITMAP
79C0
3AE0
3CE0
79E0
71C0
71C0
F3D0
E3A0
E1C0
ENDCHAR
STARTCHAR o
ENCODING 111
SWIDTH 562 0
DWIDTH 10 0
BBX 10 9 0 0
BITMAP
0F80
39C0
71C0
71C0
F3C0
E380
E380
E700
7E00
ENDCHAR
STARTCHAR p
ENCODING 112
SWIDTH 606 0
DWIDTH 12 0
BBX 12 13 -1 -4
BITMAP
3CE0
1D70
1E70
3C70
38F0
38E0
78E0
7DC0
7780
7000
E000
E000
E000
ENDCHAR
STARTCHAR q
ENCODING 113
SWIDTH 584 0
DWIDTH 11 0
BBX 11 13 0 -4
BITMAP
0EE0
39E0
70E0
71C0
F1C0
E3C0
E780
EB80
7380
0380
0700
0700
0700
ENDCHAR
STARTCHAR r
ENCODING 114
SWIDTH 440 0
DWIDTH 8 0
BBX 9 9 0 0
BITMAP
7B00
3F80
3B00
7800
7000
7000
F000
E000
E000
ENDCHAR
STARTCHAR s
ENCODING 115
SWIDTH 417 0
DWIDTH 8 0
BBX 7 9 0 0
BITMAP
1E
36
72
78
38
3C
9C
D8
F0
ENDCHAR
STARTCHAR t
ENCODING 116
SWIDTH 359 0
DWIDTH 7 0
BBX 7 11 0 0
BITMAP
08
18
7E
38
38
78
70
70
F4
E8
70
ENDCHAR
STARTCHAR u
ENCODING 117
SWIDTH 634 0
DWIDTH 12 0
BBX 12 9 0 0
BITMAP
78E0
38E0
79E0
71C0
71C0
F3C0
E790
EBA0
71C0
ENDCHAR
STARTCHAR v
ENCODING 118
SWIDTH 518 0
DWIDTH 10 0
BBX 10 9 0 0
BITMAP
7980
39C0
78C0
70C0
7180
F180
E300
E600
7800
ENDCHAR
STARTCHAR w
ENCODING 119
SWIDTH 795 0
DWIDTH 15 0
BBX 15 9 0 0
BITMAP
79CC
39CE
71C6
73C6
738C
E38C
E798
EFB0
71C0
ENDCHAR
STARTCHAR x
ENCODING 120
SWIDTH 516 0
DWIDTH 10 0
BBX 9 9 0 0
BITMAP
7980
3980
3A00
1C00
1C00
1C00
2E80
CF00
CE00
ENDCHAR
STARTCHAR y
ENCODING 121
SWIDTH 489 0
DWIDTH 9 0
BBX 11 13 -2 -4
BITMAP
3C60
1C60
1CC0
1CC0
1C80
1F00
0F00
0E00
0C00
0C00
0800
D000
E000
ENDCHAR
STARTCHAR z
ENCODING 122
SWIDTH 466 0
DWIDTH 9 0
BBX 9 9 0 0
BITMAP
3F80
7F00
4600
0C00
1800
3100
7B00
FE00
9C00
ENDCHAR
STARTCHAR braceleft
ENCODING 123
SWIDTH 340 0
DWIDTH 6 0
BBX 7 16 0 -3
BITMAP
0E
1C
1C
1C
38
38
30
E0
70
70
70
E0
E0
E0
E0
70
ENDCHAR
STARTCHAR bar
ENCODING 124
SWIDTH 265 0
DWIDTH 5 0
BBX 2 13 1 0
BITMAP
C0
C0
C0
C0
C0
C0
C0
C0
C0
C0
C0
C0
C0
ENDCHAR
STARTCHAR braceright
ENCODING 125
SWIDTH 340 0
DWIDTH 6 0
BBX 7 16 -1 -3
BITMAP
1C
0E
0E
0E
1C
1C
1C
0E
1C
38
38
38
70
70
70
E0
ENDCHAR
STARTCHAR asciitilde
ENCODING 126
SWIDTH 600 0
DWIDTH 11 0
BBX 10 3 0 4
BITMAP
38C0
7F80
C700
ENDCHAR
STARTCHAR space
ENCODING 160
SWIDTH 210 0
DWIDTH 4 0
BBX 0 0 0 0
BITMAP
ENDCHAR
STARTCHAR exclamdown
ENCODING 161
SWIDTH 285 0
DWIDTH 5 0
BBX 6 13 -1 -4
BITMAP
18
3C
18
00
10
30
30
70
70
70
E0
E0
E0
ENDCHAR
STARTCHAR cent
ENCODING 162
SWIDTH 560 0
DWIDTH 11 0
BBX 10 13 0 0
BITMAP
0200
0200
0F80
3BC0
7280
F200
F400
F400
F480
7D00
3E00
0400
0400
ENDCHAR
STARTCHAR sterling
ENCODING 163
SWIDTH 560 0
DWIDTH 11 0
BBX 11 13 0 0
BITMAP
07C0
1EE0
3C60
3C00
3C00
3C00
1C00
7F00
1C00
1840
30C0
FF80
FF80
ENDCHAR
STARTCHAR currency
ENCODING 164
SWIDTH 560 0
DWIDTH 11 0
BBX 9 9 1 3
BITMAP
DD80
FF80
6300
C180
C180
C180
6300
FF80
DD80
ENDCHAR
STARTCHAR yen
ENCODING 165
SWIDTH 560 0
DWIDTH 11 0
BBX 11 13 1 0
BITMAP
FDE0
78C0
7880
7900
7900
3E00
FF80
3C00
FF00
3C00
7800
7800
FC00
ENDCHAR
STARTCHAR brokenbar
ENCODING 166
SWIDTH 265 0
DWIDTH 5 0
BBX 2 13 1 0
BITMAP
C0
C0
C0
C0
C0
00
00
00
C0
C0
C0
C0
C0
ENDCHAR
STARTCHAR section
ENCODING 167
SWIDTH 568 0
DWIDTH 11 0
BBX 10 15 0 -2
BITMAP
0780
09C0
1880
1C00
2E00
4700
6380
71C0
38C0
1CC0
0E80
0700
4200
E600
7C00
ENDCHAR
STARTCHAR dieresis
ENCODING 168
SWIDTH 400 0
DWIDTH 7 0
BBX 5 2 1 10
BITMAP
D8
D8
ENDCHAR
STARTCHAR copyright
ENCODING 169
SWIDTH 824 0
DWIDTH 15 0
BBX 14 13 0 0
BITMAP
0780
1860
3030
67D8
4CC8
D84C
D80C
D84C
4CC8
6798
3030
1860
0780
ENDCHAR
STARTCHAR ordfeminine
ENCODING 170
SWIDTH 444 0
DWIDTH 8 0
BBX 8 6 0 6
BITMAP
1E
66
66
CC
DD
EE
ENDCHAR
STARTCHAR guillemotleft
ENCODING 171
SWIDTH 560 0
DWIDTH 10 0
BBX 9 7 0 1
BITMAP
0880
1100
3300
6600
CC00
6600
2200
ENDCHAR
STARTCHAR logicalnot
ENCODING 172
SWIDTH 600 0
DWIDTH 11 0
BBX 10 6 0 2
BITMAP
FFC0
FFC0
00C0
00C0
00C0
00C0
ENDCHAR
STARTCHAR hyphen
ENCODING 173
SWIDTH 392 0
DWIDTH 7 0
BBX 5 2 1 4
BITMAP
F8
F8
ENDCHAR
STARTCHAR registered
ENCODING 174
SWIDTH 824 0
DWIDTH 15 0
BBX 14 13 0 0
BITMAP
0780
1860
3030
7F98
4CC8
CCCC
CF8C
CD8C
4CC8
7EF8
3030
1860
0780
ENDCHAR
STARTCHAR macron
ENCODING 175
SWIDTH 400 0
DWIDTH 7 0
BBX 6 1 1 10
BITMAP
FC
ENDCHAR
STARTCHAR degree
ENCODING 176
SWIDTH 375 0
DWIDTH 7 0
BBX 6 6 1 7
BITMAP
78
CC
84
84
CC
78
ENDCHAR
STARTCHAR plusminus
ENCODING 177
SWIDTH 600 0
DWIDTH 11 0
BBX 10 10 0 0
BITMAP
0C00
0C00
0C00
FFC0
FFC0
0C00
0C00
0C00
FFC0
FFC0
ENDCHAR
STARTCHAR twosuperior
ENCODING 178
SWIDTH 402 0
DWIDTH 7 0
BBX 7 8 0 5
BITMAP
3C
66
46
0C
38
60
C4
FC
ENDCHAR
STARTCHAR threesuperior
ENCODING 179
SWIDTH 402 0
DWIDTH 7 0
BBX 7 8 0 5
BITMAP
3C
66
0C
38
0C
0C
D8
70
ENDCHAR
STARTCHAR acute
ENCODING 180
SWIDTH 400 0
DWIDTH 7 0
BBX 3 2 2 10
BITMAP
60
C0
ENDCHAR
STARTCHAR mu
ENCODING 181
SWIDTH 634 0
DWIDTH 12 0
BBX 13 13 -1 -4
BITMAP
3C70
1C70
3CF0
38E0
38E0
79E0
73C8
75D0
78E0
C000
E000
E000
4000
ENDCHAR
STARTCHAR paragraph
ENCODING 182
SWIDTH 580 0
DWIDTH 11 0
BBX 10 15 1 -2
BITMAP
1DC0
7900
7900
FB00
FA00
F200
F200
7600
0400
0400
0400
0C00
0800
0800
3800
ENDCHAR
STARTCHAR periodcentered
ENCODING 183
SWIDTH 280 0
DWIDTH 5 0
BBX 4 3 0 4
BITMAP
60
F0
60
ENDCHAR
STARTCHAR cedilla
ENCODING 184
SWIDTH 400 0
DWIDTH 7 0
BBX 4 4 2 -4
BITMAP
20
70
30
E0
ENDCHAR
STARTCHAR onesuperior
ENCODING 185
SWIDTH 402 0
DWIDTH 7 0
BBX 6 8 0 5
BITMAP
18
38
18
18
30
30
30
FC
ENDCHAR
STARTCHAR ordmasculine
ENCODING 186
SWIDTH 412 0
DWIDTH 8 0
BBX 7 6 0 6
BITMAP
1C
66
66
C6
CC
70
ENDCHAR
STARTCHAR guillemotright
ENCODING 187
SWIDTH 560 0
DWIDTH 10 0
BBX 9 7 0 1
BITMAP
2200
3300
1980
3300
6600
4400
8800
ENDCHAR
STARTCHAR onequarter
ENCODING 188
SWIDTH 940 0
DWIDTH 17 0
BBX 15 13 1 0
BITMAP
7010
3030
3020
3040
60C0
6098
6138
F234
066C
04CC
08FE
1818
103C
ENDCHAR
STARTCHAR onehalf
ENCODING 189
SWIDTH 940 0
DWIDTH 17 0
BBX 15 13 1 0
BITMAP
7020
3060
3040
3080
6180
613C
6266
F446
0C0C
0838
1060
30C4
20FC
ENDCHAR
STARTCHAR threequarters
ENCODING 190
SWIDTH 940 0
DWIDTH 17 0
BBX 15 13 1 0
BITMAP
3C10
6630
0C20
3840
0CC0
0C98
D938
7234
066C
04CC
08FE
1818
103C
ENDCHAR
STARTCHAR questiondown
ENCODING 191
SWIDTH 454 0
DWIDTH 9 0
BBX 8 13 0 -4
BITMAP
06
0F
06
00
0C
3E
0E
1C
70
E0
E6
EE
7C
ENDCHAR
STARTCHAR Agrave
ENCODING 192
SWIDTH 634 0
DWIDTH 13 0
BBX 13 14 -1 0
BITMAP
0180
00C0
0000
01C0
03C0
03C0
05E0
05E0
09E0
1FE0
10F0
20F0
60F0
F1F8
ENDCHAR
STARTCHAR Aacute
ENCODING 193
SWIDTH 634 0
DWIDTH 13 0
BBX 13 14 -1 0
BITMAP
0060
00C0
0000
01C0
03C0
03C0
05E0
05E0
09E0
1FE0
10F0
20F0
60F0
F1F8
ENDCHAR
STARTCHAR Acircumflex
ENCODING 194
SWIDTH 634 0
DWIDTH 13 0
BBX 13 14 -1 0
BITMAP
00C0
0160
0000
01C0
03C0
03C0
05E0
05E0
09E0
1FE0
10F0
20F0
60F0
F1F8
ENDCHAR
STARTCHAR Atilde
ENCODING 195
SWIDTH 634 0
DWIDTH 13 0
BBX 13 14 -1 0
BITMAP
03B0
06E0
0000
01C0
03C0
03C0
05E0
05E0
09E0
1FE0
10F0
20F0
60F0
F1F8
ENDCHAR
STARTCHAR Adieresis
ENCODING 196
SWIDTH 634 0
DWIDTH 13 0
BBX 13 14 -1 0
BITMAP
0360
0360
0000
01C0
03C0
03C0
05E0
05E0
09E0
1FE0
10F0
20F0
60F0
F1F8
ENDCHAR
STARTCHAR Aring
ENCODING 197
SWIDTH 634 0
DWIDTH 13 0
BBX 13 14 -1 0
BITMAP
00C0
0120
00C0
01C0
03C0
03C0
05E0
05E0
09E0
1FE0
10F0
20F0
60F0
F1F8
ENDCHAR
STARTCHAR AE
ENCODING 198
SWIDTH 890 0
DWIDTH 17 0
BBX 19 13 -2 0
BITMAP
03FFE0
00FC60
00BC40
013C00
027840
0278C0
047F80
087880
0FF800
10F040
20F0C0
60F180
F1FF80
ENDCHAR
STARTCHAR Ccedilla
ENCODING 199
SWIDTH 672 0
DWIDTH 13 0
BBX 13 17 0 -4
BITMAP
07F0
1E38
3C10
7810
7800
7800
F000
F000
F000
F020
7060
70C0
1F00
0200
0700
0300
0E00
ENDCHAR
STARTCHAR Egrave
ENCODING 200
SWIDTH 622 0
DWIDTH 12 0
BBX 12 14 0 0
BITMAP
0300
0180
0000
3FF0
1E30
1E10
1E00
3C40
3FC0
3C40
7800
7820
7860
FFE0
ENDCHAR
STARTCHAR Eacute
ENCODING 201
SWIDTH 622 0
DWIDTH 12 0
BBX 12 14 0 0
BITMAP
00C0
0180
0000
3FF0
1E30
1E10
1E00
3C40
3FC0
3C40
7800
7820
7860
FFE0
ENDCHAR
STARTCHAR Ecircumflex
ENCODING 202
SWIDTH 622 0
DWIDTH 12 0
BBX 12 14 0 0
BITMAP
0180
02C0
0000
3FF0
1E30
1E10
1E00
3C40
3FC0
3C40
7800
7820
7860
FFE0
ENDCHAR
STARTCHAR Edieresis
ENCODING 203
SWIDTH 622 0
DWIDTH 12 0
BBX 12 14 0 0
BITMAP
06C0
06C0
0000
3FF0
1E30
1E10
1E00
3C40
3FC0
3C40
7800
7820
7860
FFE0
ENDCHAR
STARTCHAR Igrave
ENCODING 204
SWIDTH 386 0
DWIDTH 7 0
BBX 8 14 -1 0
BITMAP
0C
06
00
3F
1E
1E
1E
3C
3C
3C
78
78
78
FC
ENDCHAR
STARTCHAR Iacute
ENCODING 205
SWIDTH 386 0
DWIDTH 7 0
BBX 8 14 -1 0
BITMAP
03
06
00
3F
1E
1E
1E
3C
3C
3C
78
78
78
FC
ENDCHAR
STARTCHAR Icircumflex
ENCODING 206
SWIDTH 386 0
DWIDTH 7 0
BBX 8 14 -1 0
BITMAP
06
0B
00
3F
1E
1E
1E
3C
3C
3C
78
78
78
FC
ENDCHAR
STARTCHAR Idieresis
ENCODING 207
SWIDTH 386 0
DWIDTH 7 0
BBX 8 14 -1 0
BITMAP
1B
1B
00
3F
1E
1E
1E
3C
3C
3C
78
78
78
FC
ENDCHAR
STARTCHAR Eth
ENCODING 208
SWIDTH 780 0
DWIDTH 15 0
BBX 14 13 0 0
BITMAP
3FE0
1E38
1E38
1E3C
3C3C
3C3C
FF3C
3C78
3C78
7878
78F0
79E0
FF80
ENDCHAR
STARTCHAR Ntilde
ENCODING 209
SWIDTH 741 0
DWIDTH 14 0
BBX 14 14 0 0
BITMAP
03B0
06E0
0000
3E1C
1E08
1F08
3718
2790
2390
23D0
61F0
41E0
40E0
E0E0
ENDCHAR
STARTCHAR Ograve
ENCODING 210
SWIDTH 761 0
DWIDTH 14 0
BBX 14 14 0 0
BITMAP
0180
00C0
0000
07E0
1E38
3C38
783C
783C
F03C
F078
F078
70F0
71E0
1F80
ENDCHAR
STARTCHAR Oacute
ENCODING 211
SWIDTH 761 0
DWIDTH 14 0
BBX 14 14 0 0
BITMAP
0060
00C0
0000
07E0
1E38
3C38
783C
783C
F03C
F078
F078
70F0
71E0
1F80
ENDCHAR
STARTCHAR Ocircumflex
ENCODING 212
SWIDTH 761 0
DWIDTH 14 0
BBX 14 14 0 0
BITMAP
00C0
0160
0000
07E0
1E38
3C38
783C
783C
F03C
F078
F078
70F0
71E0
1F80
ENDCHAR
STARTCHAR Otilde
ENCODING 213
SWIDTH 761 0
DWIDTH 14 0
BBX 14 14 0 0
BITMAP
03B0
06E0
0000
07E0
1E38
3C38
783C
783C
F03C
F078
F078
70F0
71E0
1F80
ENDCHAR
STARTCHAR Odieresis
ENCODING 214
SWIDTH 761 0
DWIDTH 14 0
BBX 14 14 0 0
BITMAP
0360
0360
0000
07E0
1E38
3C38
783C
783C
F03C
F078
F078
70F0
71E0
1F80
ENDCHAR
STARTCHAR multiply
ENCODING 215
SWIDTH 600 0
DWIDTH 11 0
BBX 9 9 1 0
BITMAP
4100
E380
7700
3E00
1C00
3E00
7700
E380
4100
ENDCHAR
STARTCHAR Oslash
ENCODING 216
SWIDTH 761 0
DWIDTH 14 0
BBX 14 13 0 0
BITMAP
07E4
1E38
3C38
787C
78BC
793C
F23C
F278
F478
F878
70F0
71E0
9F80
ENDCHAR
STARTCHAR Ugrave
ENCODING 217
SWIDTH 776 0
DWIDTH 15 0
BBX 15 14 0 0
BITMAP
0180
00C0
0000
7E7E
3C3C
3C3C
7878
7878
7878
7878
F0F0
F0F0
79E0
3FC0
ENDCHAR
STARTCHAR Uacute
ENCODING 218
SWIDTH 776 0
DWIDTH 15 0
BBX 15 14 0 0
BITMAP
00C0
0180
0000
7E7E
3C3C
3C3C
7878
7878
7878
7878
F0F0
F0F0
79E0
3FC0
ENDCHAR
STARTCHAR Ucircumflex
ENCODING 219
SWIDTH 776 0
DWIDTH 15 0
BBX 15 14 0 0
BITMAP
0180
02C0
0000
7E7E
3C3C
3C3C
7878
7878
7878
7878
F0F0
F0F0
79E0
3FC0
ENDCHAR
STARTCHAR Udieresis
ENCODING 220
SWIDTH 776 0
DWIDTH 15 0
BBX 15 14 0 0
BITMAP
0360
0360
0000
7E7E
3C3C
3C3C
7878
7878
7878
7878
F0F0
F0F0
79E0
3FC0
ENDCHAR
STARTCHAR Yacute
ENCODING 221
SWIDTH 622 0
DWIDTH 12 0
BBX 12 14 1 0
BITMAP
0180
0300
0000
FCF0
7860
7840
7880
7900
3E00
3C00
3C00
7800
7800
FC00
ENDCHAR
STARTCHAR Thorn
ENCODING 222
SWIDTH 629 0
DWIDTH 12 0
BBX 12 13 0 0
BITMAP
3F00
1E00
1E00
1FE0
3CF0
3CF0
3CF0
3CE0
3DE0
7F80
7800
7800
FC00
ENDCHAR
STARTCHAR germandbls
ENCODING 223
SWIDTH 628 0
DWIDTH 12 0
BBX 15 18 -3 -4
BITMAP
0078
01CC
038E
038E
038E
0F18
0730
0770
0F78
0E3C
0E1C
0E1C
1ED8
1CF0
1C00
DC00
D800
7000
ENDCHAR
STARTCHAR agrave
ENCODING 224
SWIDTH 596 0
DWIDTH 11 0
BBX 12 12 0 0
BITMAP
0180
00C0
0000
0EE0
39E0
70E0
71C0
F1C0
E3C0
E790
EBA0
71C0
ENDCHAR
STARTCHAR aacute
ENCODING 225
SWIDTH 596 0
DWIDTH 11 0
BBX 12 12 0 0
BITMAP
00C0
0180
0000
0EE0
39E0
70E0
71C0
F1C0
E3C0
E790
EBA0
71C0
ENDCHAR
STARTCHAR acircumflex
ENCODING 226
SWIDTH 596 0
DWIDTH 11 0
BBX 12 12 0 0
BITMAP
0180
02C0
0000
0EE0
39E0
70E0
71C0
F1C0
E3C0
E790
EBA0
71C0
ENDCHAR
STARTCHAR atilde
ENCODING 227
SWIDTH 596 0
DWIDTH 11 0
BBX 12 12 0 0
BITMAP
0760
0DC0
0000
0EE0
39E0
70E0
71C0
F1C0
E3C0
E790
EBA0
71C0
ENDCHAR
STARTCHAR adieresis
ENCODING 228
SWIDTH 596 0
DWIDTH 11 0
BBX 12 12 0 0
BITMAP
06C0
06C0
0000
0EE0
39E0
70E0
71C0
F1C0
E3C0
E790
EBA0
71C0
ENDCHAR
STARTCHAR aring
ENCODING 229
SWIDTH 596 0
DWIDTH 12 0
BBX 12 13 0 0
BITMAP
0300
0480
0300
0000
0EE0
39E0
70E0
71C0
F1C0
E3C0
E790
EBA0
71C0
ENDCHAR
STARTCHAR ae
ENCODING 230
SWIDTH 789 0
DWIDTH 15 0
BBX 15 9 0 0
BITMAP
0EBC
39EE
71CE
71DC
F3F0
E380
E784
EB88
71F0
ENDCHAR
STARTCHAR ccedilla
ENCODING 231
SWIDTH 456 0
DWIDTH 9 0
BBX 9 13 0 -4
BITMAP
0F00
3980
7100
7000
F000
E000
E100
6200
3C00
0800
1C00
0C00
3800
ENDCHAR
STARTCHAR egrave
ENCODING 232
SWIDTH 476 0
DWIDTH 9 0
BBX 9 12 0 0
BITMAP
0600
0300
0000
0F00
3B80
7380
7700
FC00
E000
E100
E200
7C00
ENDCHAR
STARTCHAR eacute
ENCODING 233
SWIDTH 476 0
DWIDTH 9 0
BBX 9 12 0 0
BITMAP
0300
0600
0000
0F00
3B80
7380
7700
FC00
E000
E100
E200
7C00
ENDCHAR
STARTCHAR ecircumflex
ENCODING 234
SWIDTH 476 0
DWIDTH 9 0
BBX 9 12 0 0
BITMAP
0600
0B00
0000
0F00
3B80
7380
7700
FC00
E000
E100
E200
7C00
ENDCHAR
STARTCHAR edieresis
ENCODING 235
SWIDTH 476 0
DWIDTH 9 0
BBX 9 12 0 0
BITMAP
1B00
1B00
0000
0F00
3B80
7380
7700
FC00
E000
E100
E200
7C00
ENDCHAR
STARTCHAR igrave
ENCODING 236
SWIDTH 339 0
DWIDTH 6 0
BBX 6 12 0 0
BITMAP
30
18
00
78
38
78
70
70
F0
E4
E8
70
ENDCHAR
STARTCHAR iacute
ENCODING 237
SWIDTH 339 0
DWIDTH 6 0
BBX 6 12 0 0
BITMAP
0C
18
00
78
38
78
70
70
F0
E4
E8
70
ENDCHAR
STARTCHAR icircumflex
ENCODING 238
SWIDTH 339 0
DWIDTH 6 0
BBX 6 12 0 0
BITMAP
18
2C
00
78
38
78
70
70
F0
E4
E8
70
ENDCHAR
STARTCHAR idieresis
ENCODING 239
SWIDTH 339 0
DWIDTH 6 0
BBX 6 12 0 0
BITMAP
6C
6C
00
78
38
78
70
70
F0
E4
E8
70
ENDCHAR
STARTCHAR eth
ENCODING 240
SWIDTH 562 0
DWIDTH 10 0
BBX 10 14 0 0
BITMAP
0400
0EC0
0700
1B00
0380
0F80
39C0
71C0
71C0
F3C0
E380
E380
E700
7E00
ENDCHAR
STARTCHAR ntilde
ENCODING 241
SWIDTH 635 0
DWIDTH 12 0
BBX 12 12 0 0
BITMAP
0EC0
1B80
0000
79C0
3AE0
3CE0
79E0
71C0
71C0
F3D0
E3A0
E1C0
ENDCHAR
STARTCHAR ograve
ENCODING 242
SWIDTH 562 0
DWIDTH 10 0
BBX 10 12 0 0
BITMAP
0600
0300
0000
0F80
39C0
71C0
71C0
F3C0
E380
E380
E700
7E00
ENDCHAR
STARTCHAR oacute
ENCODING 243
SWIDTH 562 0
DWIDTH 10 0
BBX 10 12 0 0
BITMAP
0300
0600
0000
0F80
39C0
71C0
71C0
F3C0
E380
E380
E700
7E00
ENDCHAR
STARTCHAR ocircumflex
ENCODING 244
SWIDTH 562 0
DWIDTH 10 0
BBX 10 12 0 0
BITMAP
0600
0B00
0000
0F80
39C0
71C0
71C0
F3C0
E380
E380
E700
7E00
ENDCHAR
STARTCHAR otilde
ENCODING 245
SWIDTH 562 0
DWIDTH 10 0
BBX 10 12 0 0
BITMAP
0EC0
1B80
0000
0F80
39C0
71C0
71C0
F3C0
E380
E380
E700
7E00
ENDCHAR
STARTCHAR odieresis
ENCODING 246
SWIDTH 562 0
DWIDTH 10 0
BBX 10 12 0 0
BITMAP
0D80
0D80
0000
0F80
39C0
71C0
71C0
F3C0
E380
E380
E700
7E00
ENDCHAR
STARTCHAR divide
ENCODING 247
SWIDTH 600 0
DWIDTH 11 0
BBX 10 10 0 0
BITMAP
0C00
1E00
0C00
0000
FFC0
FFC0
0000
0C00
1E00
0C00
ENDCHAR
STARTCHAR oslash
ENCODING 248
SWIDTH 562 0
DWIDTH 11 0
BBX 10 11 0 -1
BITMAP
0040
0F80
39C0
73C0
75C0
FBC0
EB80
F380
E700
7E00
8000
ENDCHAR
STARTCHAR ugrave
ENCODING 249
SWIDTH 634 0
DWIDTH 12 0
BBX 12 12 0 0
BITMAP
0600
0300
0000
78E0
38E0
79E0
71C0
71C0
F3C0
E790
EBA0
71C0
ENDCHAR
STARTCHAR uacute
ENCODING 250
SWIDTH 634 0
DWIDTH 12 0
BBX 12 12 0 0
BITMAP
0180
0300
0000
78E0
38E0
79E0
71C0
71C0
F3C0
E790
EBA0
71C0
ENDCHAR
STARTCHAR ucircumflex
ENCODING 251
SWIDTH 634 0
DWIDTH 12 0
BBX 12 12 0 0
BITMAP
0300
0580
0000
78E0
38E0
79E0
71C0
71C0
F3C0
E790
EBA0
71C0
ENDCHAR
STARTCHAR udieresis
ENCODING 252
SWIDTH 634 0
DWIDTH 12 0
BBX 12 12 0 0
BITMAP
0D80
0D80
0000
78E0
38E0
79E0
71C0
71C0
F3C0
E790
EBA0
71C0
ENDCHAR
STARTCHAR yacute
ENCODING 253
SWIDTH 489 0
DWIDTH 9 0
BBX 11 16 -2 -4
BITMAP
00C0
0180
0000
3C60
1C60
1CC0
1CC0
1C80
1F00
0F00
0E00
0C00
0C00
0800
D000
E000
ENDCHAR
STARTCHAR thorn
ENCODING 254
SWIDTH 600 0
DWIDTH 12 0
BBX 12 18 -1 -4
BITMAP
1E00
0E00
0E00
1E00
1C00
1CE0
1D70
3E70
3C70
38F0
38E0
78E0
79C0
7780
7000
E000
E000
E000
ENDCHAR
STARTCHAR ydieresis
ENCODING 255
SWIDTH 489 0
DWIDTH 9 0
BBX 11 16 -2 -4
BITMAP
06C0
06C0
0000
3C60
1C60
1CC0
1CC0
1C80
1F00
0F00
0E00
0C00
0C00
0800
D000
E000
ENDCHAR
STARTCHAR Amacron
ENCODING 256
SWIDTH 634 0
DWIDTH 12 0
BBX 13 15 -1 0
BITMAP
07E0
0000
01C0
01C0
03C0
03C0
05E0
05E0
09E0
09E0
1FF0
10F0
20F0
60F0
F1F8
ENDCHAR
STARTCHAR amacron
ENCODING 257
SWIDTH 596 0
DWIDTH 11 0
BBX 12 11 0 0
BITMAP
1F80
0000
0EE0
39E0
70E0
71C0
F1C0
E3C0
E790
EBA0
71C0
ENDCHAR
STARTCHAR Abreve
ENCODING 258
SWIDTH 634 0
DWIDTH 12 0
BBX 13 16 -1 0
BITMAP
0660
03C0
0000
01C0
01C0
03C0
03C0
05E0
05E0
09E0
09E0
1FF0
10F0
20F0
60F0
F1F8
ENDCHAR
STARTCHAR abreve
ENCODING 259
SWIDTH 596 0
DWIDTH 11 0
BBX 12 12 0 0
BITMAP
1980
0F00
0000
0EE0
39E0
70E0
71C0
F1C0
E3C0
E790
EBA0
71C0
ENDCHAR
STARTCHAR Aogonek
ENCODING 260
SWIDTH 634 0
DWIDTH 12 0
BBX 13 17 -1 -4
BITMAP
01C0
01C0
03C0
03C0
05E0
05E0
09E0
09E0
1FF0
10F0
20F0
60F0
F1F8
0180
0300
0600
0380
ENDCHAR
STARTCHAR aogonek
ENCODING 261
SWIDTH 596 0
DWIDTH 11 0
BBX 12 13 0 -4
BITMAP
0EE0
39E0
70E0
71C0
F1C0
E3C0
E790
EBA0
71C0
0600
0C00
1800
0E00
ENDCHAR
STARTCHAR Cacute
ENCODING 262
SWIDTH 672 0
DWIDTH 13 0
BBX 13 16 0 0
BITMAP
0180
0300
0000
07F0
1E38
3C10
7810
7800
7800
F000
F000
F000
F020
7060
70C0
1F00
ENDCHAR
STARTCHAR cacute
ENCODING 263
SWIDTH 456 0
DWIDTH 9 0
BBX 9 12 0 0
BITMAP
0600
0C00
0000
0F00
3980
7100
7000
F000
E000
E100
E200
7C00
ENDCHAR
STARTCHAR Ccircumflex
ENCODING 264
SWIDTH 672 0
DWIDTH 13 0
BBX 13 16 0 0
BITMAP
0300
0580
0000
07F0
1E38
3C10
7810
7800
7800
F000
F000
F000
F020
7060
70C0
1F00
ENDCHAR
STARTCHAR ccircumflex
ENCODING 265
SWIDTH 456 0
DWIDTH 9 0
BBX 9 12 0 0
BITMAP
0C00
1600
0000
0F00
3980
7100
7000
F000
E000
E100
E200
7C00
ENDCHAR
STARTCHAR Cdotaccent
ENCODING 266
SWIDTH 672 0
DWIDTH 13 0
BBX 13 16 0 0
BITMAP
0300
0300
0000
07F0
1E38
3C10
7810
7800
7800
F000
F000
F000
F020
7060
70C0
1F00
ENDCHAR
STARTCHAR cdotaccent
ENCODING 267
SWIDTH 456 0
DWIDTH 9 0
BBX 9 12 0 0
BITMAP
0C00
0C00
0000
0F00
3980
7100
7000
F000
E000
E100
E200
7C00
ENDCHAR
STARTCHAR Ccaron
ENCODING 268
SWIDTH 672 0
DWIDTH 13 0
BBX 13 16 0 0
BITMAP
0680
0300
0000
07F0
1E38
3C10
7810
7800
7800
F000
F000
F000
F020
7060
70C0
1F00
ENDCHAR
STARTCHAR ccaron
ENCODING 269
SWIDTH 456 0
DWIDTH 9 0
BBX 9 12 0 0
BITMAP
1A00
0C00
0000
0F00
3980
7100
7000
F000
E000
E100
E200
7C00
ENDCHAR
STARTCHAR Dcaron
ENCODING 270
SWIDTH 774 0
DWIDTH 15 0
BBX 14 16 0 0
BITMAP
0680
0300
0000
3FE0
1E38
1E38
1E3C
3C3C
3C3C
3C3C
3C78
3C78
7878
78F0
79E0
FF80
ENDCHAR
STARTCHAR dcaron
ENCODING 271
SWIDTH 825 0
DWIDTH 16 0
BBX 16 14 0 0
BITMAP
00F0
0076
0077
00F7
00E6
0FEC
38F8
71C0
71C0
F1C0
E3C0
E790
EBA0
71C0
ENDCHAR
STARTCHAR Dcroat
ENCODING 272
SWIDTH 780 0
DWIDTH 15 0
BBX 14 13 0 0
BITMAP
3FE0
1E38
1E38
1E3C
3C3C
3C3C
FF3C
3C78
3C78
7878
78F0
79E0
FF80
ENDCHAR
STARTCHAR dcroat
ENCODING 273
SWIDTH 609 0
DWIDTH 12 0
BBX 13 14 0 0
BITMAP
00F0
0070
0070
07F8
00E0
0FE0
38E0
71C0
71C0
F1C0
E3C0
E790
EBA0
71C0
ENDCHAR
STARTCHAR Emacron
ENCODING 274
SWIDTH 622 0
DWIDTH 12 0
BBX 12 15 0 0
BITMAP
1F80
0000
3FF0
1E30
1E20
1E00
3C20
3C60
3FC0
3C40
3C00
7820
7860
78C0
FFC0
ENDCHAR
STARTCHAR emacron
ENCODING 275
SWIDTH 476 0
DWIDTH 9 0
BBX 9 11 0 0
BITMAP
3F00
0000
0F00
3B80
7380
7700
FC00
E000
E100
E200
7C00
ENDCHAR
STARTCHAR Ebreve
ENCODING 276
SWIDTH 622 0
DWIDTH 12 0
BBX 12 16 0 0
BITMAP
1980
0F00
0000
3FF0
1E30
1E20
1E00
3C20
3C60
3FC0
3C40
3C00
7820
7860
78C0
FFC0
ENDCHAR
STARTCHAR ebreve
ENCODING 277
SWIDTH 476 0
DWIDTH 9 0
BBX 9 12 0 0
BITMAP
3300
1E00
0000
0F00
3B80
7380
7700
FC00
E000
E100
E200
7C00
ENDCHAR
STARTCHAR Edotaccent
ENCODING 278
SWIDTH 622 0
DWIDTH 12 0
BBX 12 16 0 0
BITMAP
0600
0600
0000
3FF0
1E30
1E20
1E00
3C20
3C60
3FC0
3C40
3C00
7820
7860
78C0
FFC0
ENDCHAR
STARTCHAR edotaccent
ENCODING 279
SWIDTH 476 0
DWIDTH 9 0
BBX 9 12 0 0
BITMAP
0C00
0C00
0000
0F00
3B80
7380
7700
FC00
E000
E100
E200
7C00
ENDCHAR
STARTCHAR Eogonek
ENCODING 280
SWIDTH 622 0
DWIDTH 12 0
BBX 12 17 0 -4
BITMAP
3FF0
1E30
1E20
1E00
3C20
3C60
3FC0
3C40
3C00
7820
7860
78C0
FFC0
0600
0C00
1800
0E00
ENDCHAR
STARTCHAR eogonek
ENCODING 281
SWIDTH 476 0
DWIDTH 9 0
BBX 9 13 0 -4
BITMAP
0F00
3B80
7380
7700
FC00
E000
E100
E200
7C00
1800
3000
6000
3800
ENDCHAR
STARTCHAR Ecaron
ENCODING 282
SWIDTH 622 0
DWIDTH 12 0
BBX 12 16 0 0
BITMAP
0D00
0600
0000
3FF0
1E30
1E20
1E00
3C20
3C60
3FC0
3C40
3C00
7820
7860
78C0
FFC0
ENDCHAR
STARTCHAR ecaron
ENCODING 283
SWIDTH 476 0
DWIDTH 9 0
BBX 9 12 0 0
BITMAP
1A00
0C00
0000
0F00
3B80
7380
7700
FC00
E000
E100
E200
7C00
ENDCHAR
STARTCHAR Gcircumflex
ENCODING 284
SWIDTH 726 0
DWIDTH 13 0
BBX 13 16 0 0
BITMAP
0300
0580
0000
07F0
1E38
3C10
7810
7800
7800
F000
F1F8
F0F0
F0F0
70F0
71E0
1F80
ENDCHAR
STARTCHAR gcircumflex
ENCODING 285
SWIDTH 522 0
DWIDTH 10 0
BBX 12 16 -1 -4
BITMAP
0600
0B00
0000
0FF0
1DC0
39C0
39C0
3B80
1F00
1800
3E00
3F80
63C0
E1C0
E380
7F00
ENDCHAR
STARTCHAR Gbreve
ENCODING 286
SWIDTH 726 0
DWIDTH 13 0
BBX 13 16 0 0
BITMAP
0CC0
0780
0000
07F0
1E38
3C10
7810
7800
7800
F000
F1F8
F0F0
F0F0
70F0
71E0
1F80
ENDCHAR
STARTCHAR gbreve
ENCODING 287
SWIDTH 522 0
DWIDTH 10 0
BBX 12 16 -1 -4
BITMAP
1980
0F00
0000
0FF0
1DC0
39C0
39C0
3B80
1F00
1800
3E00
3F80
63C0
E1C0
E380
7F00
ENDCHAR
STARTCHAR Gdotaccent
ENCODING 288
SWIDTH 726 0
DWIDTH 13 0
BBX 13 16 0 0
BITMAP
0300
0300
0000
07F0
1E38
3C10
7810
7800
7800
F000
F1F8
F0F0
F0F0
70F0
71E0
1F80
ENDCHAR
STARTCHAR gdotaccent
ENCODING 289
SWIDTH 522 0
DWIDTH 10 0
BBX 12 16 -1 -4
BITMAP
0600
0600
0000
0FF0
1DC0
39C0
39C0
3B80
1F00
1800
3E00
3F80
63C0
E1C0
E380
7F00
ENDCHAR
STARTCHAR Gcommaaccent
ENCODING 290
SWIDTH 726 0
DWIDTH 13 0
BBX 13 20 0 -7
BITMAP
07F0
1E38
3C10
7810
7800
7800
F000
F1F8
F0F0
F0F0
70F0
71E0
1F80
0000
0600
0700
0700
0600
0C00
1800
ENDCHAR
STARTCHAR gcommaaccent
ENCODING 291
SWIDTH 522 0
DWIDTH 10 0
BBX 12 20 -1 -4
BITMAP
00C0
0180
0300
0700
0700
0300
0000
0FF0
1DC0
39C0
39C0
3B80
1F00
1800
3E00
3F80
63C0
E1C0
E380
7F00
ENDCHAR
STARTCHAR Hcircumflex
ENCODING 292
SWIDTH 800 0
DWIDTH 15 0
BBX 15 16 0 0
BITMAP
0180
02C0
0000
3F7E
1E3C
1E3C
1E3C
3C78
3C78
3FF8
3C78
3C78
78F0
78F0
78F0
FDF8
ENDCHAR
STARTCHAR hcircumflex
ENCODING 293
SWIDTH 629 0
DWIDTH 12 0
BBX 12 17 0 0
BITMAP
0C00
1600
0000
3C00
1C00
1C00
3C00
3800
39C0
3AE0
74E0
79E0
71C0
71C0
F3D0
E3A0
E1C0
ENDCHAR
STARTCHAR Hbar
ENCODING 294
SWIDTH 800 0
DWIDTH 15 0
BBX 15 13 0 0
BITMAP
3F7E
1E3C
1E3C
FFFE
3C78
3C78
3FF8
3C78
3C78
78F0
78F0
78F0
FDF8
ENDCHAR
STARTCHAR hbar
ENCODING 295
SWIDTH 629 0
DWIDTH 12 0
BBX 13 14 -1 0
BITMAP
1E00
0E00
0E00
FF00
1C00
1CE0
1D70
3A70
3CF0
38E0
38E0
79E8
71D0
70E0
ENDCHAR
STARTCHAR Itilde
ENCODING 296
SWIDTH 386 0
DWIDTH 7 0
BBX 8 16 -1 0
BITMAP
3B
6E
00
3F
1E
1E
1E
3C
3C
3C
3C
3C
78
78
78
FC
ENDCHAR
STARTCHAR itilde
ENCODING 297
SWIDTH 339 0
DWIDTH 6 0
BBX 7 12 0 0
BITMAP
76
DC
00
78
38
78
70
70
F0
E4
E8
70
ENDCHAR
STARTCHAR Imacron
ENCODING 298
SWIDTH 386 0
DWIDTH 7 0
BBX 8 15 -1 0
BITMAP
3F
00
3F
1E
1E
1E
3C
3C
3C
3C
3C
78
78
78
FC
ENDCHAR
STARTCHAR imacron
ENCODING 299
SWIDTH 339 0
DWIDTH 6 0
BBX 6 11 0 0
BITMAP
FC
00
78
38
78
70
70
F0
E4
E8
70
ENDCHAR
STARTCHAR Ibreve
ENCODING 300
SWIDTH 386 0
DWIDTH 7 0
BBX 8 16 -1 0
BITMAP
33
1E
00
3F
1E
1E
1E
3C
3C
3C
3C
3C
78
78
78
FC
ENDCHAR
STARTCHAR ibreve
ENCODING 301
SWIDTH 339 0
DWIDTH 6 0
BBX 6 12 0 0
BITMAP
CC
78
00
78
38
78
70
70
F0
E4
E8
70
ENDCHAR
STARTCHAR Iogonek
ENCODING 302
SWIDTH 386 0
DWIDTH 7 0
BBX 8 17 -1 -4
BITMAP
3F
1E
1E
1E
3C
3C
3C
3C
3C
78
78
78
FC
18
30
60
38
ENDCHAR
STARTCHAR iogonek
ENCODING 303
SWIDTH 339 0
DWIDTH 6 0
BBX 6 17 0 -4
BITMAP
18
3C
18
00
78
38
78
70
70
F0
E4
E8
70
30
60
C0
70
ENDCHAR
STARTCHAR Idotaccent
ENCODING 304
SWIDTH 386 0
DWIDTH 7 0
BBX 8 16 -1 0
BITMAP
0C
0C
00
3F
1E
1E
1E
3C
3C
3C
3C
3C
78
78
78
FC
ENDCHAR
STARTCHAR dotlessi
ENCODING 305
SWIDTH 339 0
DWIDTH 6 0
BBX 6 9 0 0
BITMAP
78
38
78
70
70
F0
E4
E8
70
ENDCHAR
STARTCHAR IJ
ENCODING 306
SWIDTH 755 0
DWIDTH 14 0
BBX 15 15 -1 -2
BITMAP
3F7E
1E3C
1E3C
1E3C
3C78
3C78
3C78
3C78
3CF0
78F0
78F0
78F0
FDE0
01E0
0780
ENDCHAR
STARTCHAR ij
ENCODING 307
SWIDTH 655 0
DWIDTH 12 0
BBX 12 17 0 -4
BITMAP
1860
3CF0
1860
0000
79E0
38E0
78E0
71E0
71C0
F1C0
E5C0
EBC0
7380
0380
1B80
1B00
0E00
ENDCHAR
STARTCHAR Jcircumflex
ENCODING 308
SWIDTH 388 0
DWIDTH 7 0
BBX 10 18 -3 -2
BITMAP
0600
0B00
0000
0FC0
0780
0780
0780
0F00
0F00
0F00
0F00
1E00
1E00
1E00
1E00
3C00
3C00
F000
ENDCHAR
STARTCHAR jcircumflex
ENCODING 309
SWIDTH 333 0
DWIDTH 6 0
BBX 9 16 -3 -4
BITMAP
0600
0B00
0000
0F00
0700
0700
0F00
0E00
0E00
0E00
1E00
1C00
1C00
DC00
D800
7000
ENDCHAR
STARTCHAR Kcommaaccent
ENCODING 310
SWIDTH 688 0
DWIDTH 14 0
BBX 14 20 0 -7
BITMAP
3F3C
1E18
1E30
1E60
3CC0
3D80
3FC0
3DC0
3DE0
79E0
78F0
78F8
FC7C
0000
0300
0380
0380
0300
0600
0C00
ENDCHAR
STARTCHAR kcommaaccent
ENCODING 311
SWIDTH 570 0
DWIDTH 11 0
BBX 11 21 0 -7
BITMAP
3C00
1C00
1C00
3C00
3800
38C0
39E0
7380
7600
7E00
F700
E720
E3C0
E380
0000
0C00
0E00
0E00
0C00
1800
3000
ENDCHAR
STARTCHAR kgreenlandic
ENCODING 312
SWIDTH 570 0
DWIDTH 11 0
BBX 11 9 0 0
BITMAP
38C0
39E0
7380
7600
7E00
F700
E720
E3C0
E380
ENDCHAR
STARTCHAR Lacute
ENCODING 313
SWIDTH 586 0
DWIDTH 11 0
BBX 11 16 0 0
BITMAP
0600
0C00
0000
3F00
1E00
1E00
1E00
3C00
3C00
3C00
3C00
3C00
7820
7860
78C0
FFC0
ENDCHAR
STARTCHAR lacute
ENCODING 314
SWIDTH 327 0
DWIDTH 6 0
BBX 6 17 0 0
BITMAP
0C
18
00
3C
1C
1C
3C
38
38
38
70
70
70
F0
E4
E8
70
ENDCHAR
STARTCHAR Lcommaaccent
ENCODING 315
SWIDTH 586 0
DWIDTH 11 0
BBX 11 20 0 -7
BITMAP
3F00
1E00
1E00
1E00
3C00
3C00
3C00
3C00
3C00
7820
7860
78C0
FFC0
0000
0C00
0E00
0E00
0C00
1800
3000
ENDCHAR
STARTCHAR lcommaaccent
ENCODING 316
SWIDTH 327 0
DWIDTH 6 0
BBX 6 21 0 -7
BITMAP
3C
1C
1C
3C
38
38
38
70
70
70
F0
E4
E8
70
00
30
38
38
30
60
C0
ENDCHAR
STARTCHAR Lcaron
ENCODING 317
SWIDTH 803 0
DWIDTH 15 0
BBX 15 13 0 0
BITMAP
3F0C
1E0E
1E0E
1E0C
3C18
3C30
3C00
3C00
3C00
7820
7860
78C0
FFC0
ENDCHAR
STARTCHAR lcaron
ENCODING 318
SWIDTH 557 0
DWIDTH 11 0
BBX 11 14 0 0
BITMAP
3C00
1CC0
1CE0
3CE0
38C0
3980
3B00
7000
7000
7000
F000
E400
E800
7000
ENDCHAR
STARTCHAR Ldot
ENCODING 319
SWIDTH 837 0
DWIDTH 15 0
BBX 14 13 0 0
BITMAP
3F00
1E00
1E00
1E00
3C00
3C00
3C18
3C3C
3C18
7820
7860
78C0
FFC0
ENDCHAR
STARTCHAR ldot
ENCODING 320
SWIDTH 591 0
DWIDTH 11 0
BBX 10 14 0 0
BITMAP
3C00
1C00
1C00
3C00
3800
3800
3800
7180
73C0
7180
F000
E400
E800
7000
ENDCHAR
STARTCHAR Lslash
ENCODING 321
SWIDTH 592 0
DWIDTH 11 0
BBX 12 13 -1 0
BITMAP
1F80
0F00
0F00
0F00
1EC0
1F00
1E00
3E00
DE00
3C10
3C30
3C60
7FE0
ENDCHAR
STARTCHAR lslash
ENCODING 322
SWIDTH 339 0
DWIDTH 6 0
BBX 7 14 0 0
BITMAP
3C
1C
1C
3C
3A
3C
38
70
F0
70
F0
E4
E8
70
ENDCHAR
STARTCHAR Nacute
ENCODING 323
SWIDTH 741 0
DWIDTH 14 0
BBX 14 16 0 0
BITMAP
0180
0300
0000
3E1C
1E08
1F08
1F08
3F98
2790
27D0
23D0
63F0
41E0
41E0
40E0
E0E0
ENDCHAR
STARTCHAR nacute
ENCODING 324
SWIDTH 635 0
DWIDTH 12 0
BBX 12 12 0 0
BITMAP
0300
0600
0000
79C0
3AE0
3CE0
79E0
71C0
71C0
F3D0
E3A0
E1C0
ENDCHAR
STARTCHAR Ncommaaccent
ENCODING 325
SWIDTH 741 0
DWIDTH 14 0
BBX 14 20 0 -7
BITMAP
3E1C
1E08
1F08
1F08
3F98
2790
27D0
23D0
63F0
41E0
41E0
40E0
E0E0
0000
0300
0380
0380
0300
0600
0C00
ENDCHAR
STARTCHAR ncommaaccent
ENCODING 326
SWIDTH 635 0
DWIDTH 12 0
BBX 12 16 0 -7
BITMAP
79C0
3AE0
3CE0
79E0
71C0
71C0
F3D0
E3A0
E1C0
0000
0600
0700
0700
0600
0C00
1800
ENDCHAR
STARTCHAR Ncaron
ENCODING 327
SWIDTH 741 0
DWIDTH 14 0
BBX 14 16 0 0
BITMAP
0680
0300
0000
3E1C
1E08
1F08
1F08
3F98
2790
27D0
23D0
63F0
41E0
41E0
40E0
E0E0
ENDCHAR
STARTCHAR ncaron
ENCODING 328
SWIDTH 635 0
DWIDTH 12 0
BBX 12 12 0 0
BITMAP
0D00
0600
0000
79C0
3AE0
3CE0
79E0
71C0
71C0
F3D0
E3A0
E1C0
ENDCHAR
STARTCHAR napostrophe
ENCODING 329
SWIDTH 869 0
DWIDTH 17 0
BBX 17 13 0 0
BITMAP
300000
380000
380000
300000
63CE00
C1D700
01E700
03CF00
038E00
038E00
079E80
071D00
070E00
ENDCHAR
STARTCHAR Eng
ENCODING 330
SWIDTH 741 0
DWIDTH 14 0
BBX 14 17 0 -4
BITMAP
3E1C
1E08
1F08
1F08
3F98
2790
27D0
23D0
63F0
41E0
41E0
41E0
E1E0
01C0
0DC0
0D80
0700
ENDCHAR
STARTCHAR eng
ENCODING 331
SWIDTH 635 0
DWIDTH 12 0
BBX 11 13 0 -4
BITMAP
79C0
3AE0
3CE0
79E0
71C0
71C0
F1C0
E3C0
E380
0380
1B80
1B00
0E00
ENDCHAR
STARTCHAR Omacron
ENCODING 332
SWIDTH 761 0
DWIDTH 14 0
BBX 14 15 0 0
BITMAP
0FC0
0000
07E0
1E38
3C38
783C
783C
783C
F03C
F078
F078
F078
70F0
71E0
1F80
ENDCHAR
STARTCHAR omacron
ENCODING 333
SWIDTH 562 0
DWIDTH 10 0
BBX 10 11 0 0
BITMAP
1F80
0000
0F80
39C0
71C0
71C0
F3C0
E380
E380
E700
7E00
ENDCHAR
STARTCHAR Obreve
ENCODING 334
SWIDTH 761 0
DWIDTH 14 0
BBX 14 16 0 0
BITMAP
0CC0
0780
0000
07E0
1E38
3C38
783C
783C
783C
F03C
F078
F078
F078
70F0
71E0
1F80
ENDCHAR
STARTCHAR obreve
ENCODING 335
SWIDTH 562 0
DWIDTH 10 0
BBX 10 12 0 0
BITMAP
1980
0F00
0000
0F80
39C0
71C0
71C0
F3C0
E380
E380
E700
7E00
ENDCHAR
STARTCHAR Ohungarumlaut
ENCODING 336
SWIDTH 761 0
DWIDTH 14 0
BBX 14 16 0 0
BITMAP
0360
06C0
0000
07E0
1E38
3C38
783C
783C
783C
F03C
F078
F078
F078
70F0
71E0
1F80
ENDCHAR
STARTCHAR ohungarumlaut
ENCODING 337
SWIDTH 562 0
DWIDTH 10 0
BBX 10 12 0 0
BITMAP
0D80
1B00
0000
0F80
39C0
71C0
71C0
F3C0
E380
E380
E700
7E00
ENDCHAR
STARTCHAR OE
ENCODING 338
SWIDTH 1016 0
DWIDTH 19 0
BBX 19 13 0 0
BITMAP
07FFE0
1E3C60
3C3C40
783C00
787840
7878C0
F07F80
F07880
F07800
F0F040
70F0C0
70F180
1FFF80
ENDCHAR
STARTCHAR oe
ENCODING 339
SWIDTH 811 0
DWIDTH 15 0
BBX 15 9 0 0
BITMAP
0FBC
39EE
71CE
71DC
F3F0
E380
E384
E788
7DF0
ENDCHAR
STARTCHAR Racute
ENCODING 340
SWIDTH 681 0
DWIDTH 13 0
BBX 13 16 0 0
BITMAP
0180
0300
0000
3FF0
1E78
1E78
1E78
3C70
3CF0
3FC0
3CE0
3CF0
78F0
78F0
78F0
FC78
ENDCHAR
STARTCHAR racute
ENCODING 341
SWIDTH 440 0
DWIDTH 8 0
BBX 9 12 0 0
BITMAP
0600
0C00
0000
7B00
3F80
3B00
7800
7000
7000
F000
E000
E000
ENDCHAR
STARTCHAR Rcommaaccent
ENCODING 342
SWIDTH 681 0
DWIDTH 13 0
BBX 13 20 0 -7
BITMAP
3FF0
1E78
1E78
1E78
3C70
3CF0
3FC0
3CE0
3CF0
78F0
78F0
78F0
FC78
0000
0600
0700
0700
0600
0C00
1800
ENDCHAR
STARTCHAR rcommaaccent
ENCODING 343
SWIDTH 440 0
DWIDTH 8 0
BBX 9 16 0 -7
BITMAP
7B00
3F80
3B00
7800
7000
7000
F000
E000
E000
0000
3000
3800
3800
3000
6000
C000
ENDCHAR
STARTCHAR Rcaron
ENCODING 344
SWIDTH 681 0
DWIDTH 13 0
BBX 13 16 0 0
BITMAP
0680
0300
0000
3FF0
1E78
1E78
1E78
3C70
3CF0
3FC0
3CE0
3CF0
78F0
78F0
78F0
FC78
ENDCHAR
STARTCHAR rcaron
ENCODING 345
SWIDTH 440 0
DWIDTH 8 0
BBX 9 12 0 0
BITMAP
1A00
0C00
0000
7B00
3F80
3B00
7800
7000
7000
F000
E000
E000
ENDCHAR
STARTCHAR Sacute
ENCODING 346
SWIDTH 551 0
DWIDTH 11 0
BBX 11 16 0 0
BITMAP
0300
0600
0000
07C0
1CE0
3860
3820
3C00
3F00
1F80
0FC0
03C0
81C0
C1C0
E380
7E00
ENDCHAR
STARTCHAR sacute
ENCODING 347
SWIDTH 417 0
DWIDTH 8 0
BBX 7 12 0 0
BITMAP
0C
18
00
1E
36
72
78
38
3C
9C
D8
F0
ENDCHAR
STARTCHAR Scircumflex
ENCODING 348
SWIDTH 551 0
DWIDTH 11 0
BBX 11 16 0 0
BITMAP
0600
0B00
0000
07C0
1CE0
3860
3820
3C00
3F00
1F80
0FC0
03C0
81C0
C1C0
E380
7E00
ENDCHAR
STARTCHAR scircumflex
ENCODING 349
SWIDTH 417 0
DWIDTH 8 0
BBX 7 12 0 0
BITMAP
18
2C
00
1E
36
72
78
38
3C
9C
D8
F0
ENDCHAR
STARTCHAR Scedilla
ENCODING 350
SWIDTH 551 0
DWIDTH 11 0
BBX 11 17 0 -4
BITMAP
07C0
1CE0
3860
3820
3C00
3F00
1F80
0FC0
03C0
81C0
C1C0
E380
7E00
0400
0E00
0600
1C00
ENDCHAR
STARTCHAR scedilla
ENCODING 351
SWIDTH 417 0
DWIDTH 8 0
BBX 7 13 0 -4
BITMAP
1E
36
72
78
38
3C
9C
D8
F0
10
38
18
70
ENDCHAR
STARTCHAR Scaron
ENCODING 352
SWIDTH 551 0
DWIDTH 11 0
BBX 11 14 0 0
BITMAP
0680
0300
0000
0FC0
1CE0
3860
3C20
3F00
1F80
0FC0
83C0
C1C0
E380
7F00
ENDCHAR
STARTCHAR scaron
ENCODING 353
SWIDTH 417 0
DWIDTH 8 0
BBX 7 12 0 0
BITMAP
1A
0C
00
1E
36
72
78
38
3C
9C
D8
F0
ENDCHAR
STARTCHAR Tcommaaccent
ENCODING 354
SWIDTH 616 0
DWIDTH 12 0
BBX 12 17 1 -4
BITMAP
FFF0
CF30
8F10
0F00
1E00
1E00
1E00
1E00
1E00
3C00
3C00
3C00
7E00
0800
1C00
0C00
3800
ENDCHAR
STARTCHAR tcommaaccent
ENCODING 355
SWIDTH 359 0
DWIDTH 7 0
BBX 7 15 0 -4
BITMAP
08
18
7E
38
38
78
70
70
F4
E8
70
10
38
18
70
ENDCHAR
STARTCHAR Tcaron
ENCODING 356
SWIDTH 616 0
DWIDTH 12 0
BBX 12 16 1 0
BITMAP
0D00
0600
0000
FFF0
CF30
8F10
0F00
1E00
1E00
1E00
1E00
1E00
3C00
3C00
3C00
7E00
ENDCHAR
STARTCHAR tcaron
ENCODING 357
SWIDTH 587 0
DWIDTH 12 0
BBX 12 13 0 0
BITMAP
0060
0070
0870
1860
7EC0
3980
3800
7800
7000
7000
F400
E800
7000
ENDCHAR
STARTCHAR Tbar
ENCODING 358
SWIDTH 616 0
DWIDTH 12 0
BBX 12 13 1 0
BITMAP
FFF0
CF30
8F10
0F00
1E00
1E00
3FC0
1E00
1E00
3C00
3C00
3C00
7E00
ENDCHAR
STARTCHAR tbar
ENCODING 359
SWIDTH 359 0
DWIDTH 7 0
BBX 8 11 0 0
BITMAP
08
18
7E
38
38
FF
70
70
F4
E8
70
ENDCHAR
STARTCHAR Utilde
ENCODING 360
SWIDTH 776 0
DWIDTH 15 0
BBX 15 16 0 0
BITMAP
03B0
06E0
0000
7E7E
3C3C
3C3C
3C3C
7878
7878
7878
7878
F0F0
F0F0
F0F0
79E0
3FC0
ENDCHAR
STARTCHAR utilde
ENCODING 361
SWIDTH 634 0
DWIDTH 12 0
BBX 12 12 0 0
BITMAP
0EC0
1B80
0000
78E0
38E0
79E0
71C0
71C0
F3C0
E790
EBA0
71C0
ENDCHAR
STARTCHAR Umacron
ENCODING 362
SWIDTH 776 0
DWIDTH 15 0
BBX 15 15 0 0
BITMAP
07E0
0000
7E7E
3C3C
3C3C
3C3C
7878
7878
7878
7878
F0F0
F0F0
F0F0
79E0
3FC0
ENDCHAR
STARTCHAR umacron
ENCODING 363
SWIDTH 634 0
DWIDTH 12 0
BBX 12 11 0 0
BITMAP
1F80
0000
78E0
38E0
79E0
71C0
71C0
F3C0
E790
EBA0
71C0
ENDCHAR
STARTCHAR Ubreve
ENCODING 364
SWIDTH 776 0
DWIDTH 15 0
BBX 15 16 0 0
BITMAP
0660
03C0
0000
7E7E
3C3C
3C3C
3C3C
7878
7878
7878
7878
F0F0
F0F0
F0F0
79E0
3FC0
ENDCHAR
STARTCHAR ubreve
ENCODING 365
SWIDTH 634 0
DWIDTH 12 0
BBX 12 12 0 0
BITMAP
1980
0F00
0000
78E0
38E0
79E0
71C0
71C0
F3C0
E790
EBA0
71C0
ENDCHAR
STARTCHAR Uring
ENCODING 366
SWIDTH 776 0
DWIDTH 15 0
BBX 15 17 0 0
BITMAP
0180
0240
0180
0000
7E7E
3C3C
3C3C
3C3C
7878
7878
7878
7878
F0F0
F0F0
F0F0
79E0
3FC0
ENDCHAR
STARTCHAR uring
ENCODING 367
SWIDTH 634 0
DWIDTH 12 0
BBX 12 13 0 0
BITMAP
0600
0900
0600
0000
78E0
38E0
79E0
71C0
71C0
F3C0
E790
EBA0
71C0
ENDCHAR
STARTCHAR Uhungarumlaut
ENCODING 368
SWIDTH 776 0
DWIDTH 15 0
BBX 15 16 0 0
BITMAP
0360
06C0
0000
7E7E
3C3C
3C3C
3C3C
7878
7878
7878
7878
F0F0
F0F0
F0F0
79E0
3FC0
ENDCHAR
STARTCHAR uhungarumlaut
ENCODING 369
SWIDTH 634 0
DWIDTH 12 0
BBX 12 12 0 0
BITMAP
0D80
1B00
0000
78E0
38E0
79E0
71C0
71C0
F3C0
E790
EBA0
71C0
ENDCHAR
STARTCHAR Uogonek
ENCODING 370
SWIDTH 776 0
DWIDTH 15 0
BBX 15 17 0 -4
BITMAP
7E7E
3C3C
3C3C
3C3C
7878
7878
7878
7878
F0F0
F0F0
F0F0
79E0
3FC0
0300
0600
0C00
0700
ENDCHAR
STARTCHAR uogonek
ENCODING 371
SWIDTH 634 0
DWIDTH 12 0
BBX 12 13 0 -4
BITMAP
78E0
38E0
79E0
71C0
71C0
F3C0
E790
EBA0
71C0
0600
0C00
1800
0E00
ENDCHAR
STARTCHAR Wcircumflex
ENCODING 372
SWIDTH 920 0
DWIDTH 18 0
BBX 19 16 0 0
BITMAP
00C000
016000
000000
FCF1E0
78F0C0
78F080
78F100
78F100
797200
3D7A00
3E7C00
3E7C00
3C7800
3C7800
387800
387000
ENDCHAR
STARTCHAR wcircumflex
ENCODING 373
SWIDTH 795 0
DWIDTH 15 0
BBX 15 12 0 0
BITMAP
0180
02C0
0000
79CC
39CE
71C6
73C6
738C
E38C
E798
EFB0
71C0
ENDCHAR
STARTCHAR Ycircumflex
ENCODING 374
SWIDTH 622 0
DWIDTH 12 0
BBX 12 16 1 0
BITMAP
0C00
1600
0000
FCF0
7860
7840
7880
7900
3E00
3E00
3C00
3C00
7800
7800
7800
FC00
ENDCHAR
STARTCHAR ycircumflex
ENCODING 375
SWIDTH 489 0
DWIDTH 9 0
BBX 11 16 -2 -4
BITMAP
0600
0B00
0000
3C60
1C60
1CC0
1CC0
1C80
1F00
0F00
0E00
0C00
0C00
0800
D000
E000
ENDCHAR
STARTCHAR Ydieresis
ENCODING 376
SWIDTH 622 0
DWIDTH 12 0
BBX 12 14 1 0
BITMAP
0D80
0D80
0000
FCF0
7860
7840
7880
7900
3E00
3C00
3C00
7800
7800
FC00
ENDCHAR
STARTCHAR Zacute
ENCODING 377
SWIDTH 618 0
DWIDTH 12 0
BBX 12 16 0 0
BITMAP
0300
0600
0000
3FF0
71F0
63E0
43C0
07C0
0F80
0F00
1F00
3E00
3C20
7C60
F8E0
FFC0
ENDCHAR
STARTCHAR zacute
ENCODING 378
SWIDTH 466 0
DWIDTH 9 0
BBX 9 12 0 0
BITMAP
0600
0C00
0000
3F80
7F00
4600
0C00
1800
3100
7B00
FE00
9C00
ENDCHAR
STARTCHAR Zdotaccent
ENCODING 379
SWIDTH 618 0
DWIDTH 12 0
BBX 12 16 0 0
BITMAP
0300
0300
0000
3FF0
71F0
63E0
43C0
07C0
0F80
0F00
1F00
3E00
3C20
7C60
F8E0
FFC0
ENDCHAR
STARTCHAR zdotaccent
ENCODING 380
SWIDTH 466 0
DWIDTH 9 0
BBX 9 12 0 0
BITMAP
0C00
0C00
0000
3F80
7F00
4600
0C00
1800
3100
7B00
FE00
9C00
ENDCHAR
STARTCHAR Zcaron
ENCODING 381
SWIDTH 618 0
DWIDTH 12 0
BBX 12 14 0 0
BITMAP
0340
0180
0000
3FF0
33E0
63C0
47C0
0F80
0F00
1F00
3E20
3C60
7CC0
FFC0
ENDCHAR
STARTCHAR zcaron
ENCODING 382
SWIDTH 466 0
DWIDTH 9 0
BBX 9 12 0 0
BITMAP
0D00
0600
0000
3F80
7F00
4600
0C00
1800
3100
7B00
FE00
9C00
ENDCHAR
STARTCHAR uni0186
ENCODING 390
SWIDTH 672 0
DWIDTH 13 0
BBX 13 13 0 0
BITMAP
07C0
1870
3070
2078
0078
0078
0078
00F0
00F0
40F0
41E0
E3C0
7F00
ENDCHAR
STARTCHAR uni0189
ENCODING 393
SWIDTH 780 0
DWIDTH 15 0
BBX 14 13 0 0
BITMAP
3FE0
1E38
1E38
1E3C
3C3C
3C3C
FF3C
3C78
3C78
7878
78F0
79E0
FF80
ENDCHAR
STARTCHAR uni018E
ENCODING 398
SWIDTH 622 0
DWIDTH 12 0
BBX 12 13 0 0
BITMAP
3FF0
31E0
61E0
41E0
03C0
23C0
3FC0
63C0
43C0
0780
4780
C780
FFC0
ENDCHAR
STARTCHAR florin
ENCODING 402
SWIDTH 560 0
DWIDTH 10 0
BBX 11 16 -1 -3
BITMAP
01E0
0360
0700
0700
0700
3FC0
0E00
0E00
0E00
0E00
1C00
1C00
1C00
1C00
D800
F000
ENDCHAR
STARTCHAR uni0197
ENCODING 407
SWIDTH 386 0
DWIDTH 7 0
BBX 8 13 -1 0
BITMAP
3F
1E
1E
1E
3C
3C
FF
3C
3C
78
78
78
FC
ENDCHAR
STARTCHAR uni019A
ENCODING 410
SWIDTH 327 0
DWIDTH 6 0
BBX 8 14 -1 0
BITMAP
1E
0E
0E
1E
1C
1C
FF
38
38
38
78
72
74
38
ENDCHAR
STARTCHAR uni019D
ENCODING 413
SWIDTH 741 0
DWIDTH 14 0
BBX 17 17 -3 -4
BITMAP
07C380
03C100
03E100
03E100
07F300
04F200
04FA00
047A00
0C7E00
0E3C00
0E1C00
1E1C00
1C1C00
1C0000
DC0000
D80000
700000
ENDCHAR
STARTCHAR uni019F
ENCODING 415
SWIDTH 761 0
DWIDTH 14 0
BBX 14 13 0 0
BITMAP
07E0
1E38
3C38
783C
783C
783C
FFFC
F078
F078
F078
70F0
71E0
1F80
ENDCHAR
STARTCHAR Ohorn
ENCODING 416
SWIDTH 761 0
DWIDTH 14 0
BBX 18 13 0 0
BITMAP
07E180
1E39C0
3C39C0
783D80
783F00
783E00
F03C00
F07800
F07800
F07800
70F000
71E000
1F8000
ENDCHAR
STARTCHAR ohorn
ENCODING 417
SWIDTH 562 0
DWIDTH 10 0
BBX 14 9 0 0
BITMAP
0F98
39DC
71DC
71D8
F3F0
E3E0
E380
E700
7E00
ENDCHAR
STARTCHAR Uhorn
ENCODING 431
SWIDTH 776 0
DWIDTH 15 0
BBX 19 13 0 0
BITMAP
7E7EC0
3C3CE0
3C3CE0
3C3CC0
787980
787B00
787800
787800
F0F000
F0F000
F0F000
79E000
3FC000
ENDCHAR
STARTCHAR uhorn
ENCODING 432
SWIDTH 634 0
DWIDTH 12 0
BBX 16 9 0 0
BITMAP
78E6
38E7
79E7
71C6
71CC
F3D8
E790
EBA0
71C0
ENDCHAR
STARTCHAR uni01B5
ENCODING 437
SWIDTH 618 0
DWIDTH 12 0
BBX 12 13 0 0
BITMAP
3FF0
71F0
63E0
43C0
07C0
0F80
3FC0
1F00
3E00
3C20
7C60
F8E0
FFC0
ENDCHAR
STARTCHAR uni01B6
ENCODING 438
SWIDTH 466 0
DWIDTH 9 0
BBX 9 9 0 0
BITMAP
3F80
7F00
4600
0C00
7F80
3100
7B00
FE00
9C00
ENDCHAR
STARTCHAR uni01BB
ENCODING 443
SWIDTH 560 0
DWIDTH 11 0
BBX 11 13 0 0
BITMAP
0F80
39C0
71E0
21E0
01E0
03C0
FFE0
1E00
3800
7040
FFC0
FF80
FF80
ENDCHAR
STARTCHAR uni01BC
ENCODING 444
SWIDTH 560 0
DWIDTH 11 0
BBX 11 13 0 0
BITMAP
1FE0
1FC0
1F80
3000
2000
3F00
2380
03C0
03C0
43C0
E3C0
E780
7E00
ENDCHAR
STARTCHAR uni01C0
ENCODING 448
SWIDTH 265 0
DWIDTH 5 0
BBX 2 13 1 0
BITMAP
C0
C0
C0
C0
C0
C0
C0
C0
C0
C0
C0
C0
C0
ENDCHAR
STARTCHAR uni01C2
ENCODING 450
SWIDTH 600 0
DWIDTH 11 0
BBX 10 13 0 -1
BITMAP
0C00
0C00
0C00
0C00
FFC0
FFC0
0C00
0C00
FFC0
FFC0
0C00
0C00
0C00
ENDCHAR
STARTCHAR uni01C3
ENCODING 451
SWIDTH 285 0
DWIDTH 5 0
BBX 6 13 0 0
BITMAP
1C
1C
1C
38
38
38
30
30
20
00
60
F0
60
ENDCHAR
STARTCHAR uni01CD
ENCODING 461
SWIDTH 634 0
DWIDTH 12 0
BBX 13 16 -1 0
BITMAP
0340
0180
0000
01C0
01C0
03C0
03C0
05E0
05E0
09E0
09E0
1FF0
10F0
20F0
60F0
F1F8
ENDCHAR
STARTCHAR uni01CE
ENCODING 462
SWIDTH 596 0
DWIDTH 11 0
BBX 12 12 0 0
BITMAP
0D00
0600
0000
0EE0
39E0
70E0
71C0
F1C0
E3C0
E790
EBA0
71C0
ENDCHAR
STARTCHAR uni01CF
ENCODING 463
SWIDTH 386 0
DWIDTH 7 0
BBX 8 16 -1 0
BITMAP
1A
0C
00
3F
1E
1E
1E
3C
3C
3C
3C
3C
78
78
78
FC
ENDCHAR
STARTCHAR uni01D0
ENCODING 464
SWIDTH 339 0
DWIDTH 6 0
BBX 6 12 0 0
BITMAP
68
30
00
78
38
78
70
70
F0
E4
E8
70
ENDCHAR
STARTCHAR uni01D1
ENCODING 465
SWIDTH 761 0
DWIDTH 14 0
BBX 14 16 0 0
BITMAP
0680
0300
0000
07E0
1E38
3C38
783C
783C
783C
F03C
F078
F078
F078
70F0
71E0
1F80
ENDCHAR
STARTCHAR uni01D2
ENCODING 466
SWIDTH 562 0
DWIDTH 10 0
BBX 10 12 0 0
BITMAP
0D00
0600
0000
0F80
39C0
71C0
71C0
F3C0
E380
E380
E700
7E00
ENDCHAR
STARTCHAR uni01D3
ENCODING 467
SWIDTH 776 0
DWIDTH 15 0
BBX 15 16 0 0
BITMAP
0340
0180
0000
7E7E
3C3C
3C3C
3C3C
7878
7878
7878
7878
F0F0
F0F0
F0F0
79E0
3FC0
ENDCHAR
STARTCHAR uni01D4
ENCODING 468
SWIDTH 634 0
DWIDTH 12 0
BBX 12 12 0 0
BITMAP
0D00
0600
0000
78E0
38E0
79E0
71C0
71C0
F3C0
E790
EBA0
71C0
ENDCHAR
STARTCHAR uni01D5
ENCODING 469
SWIDTH 776 0
DWIDTH 15 0
BBX 15 16 0 0
BITMAP
07E0
0000
0360
0360
0000
7E7E
3C3C
3C3C
7878
7878
7878
7878
F0F0
F0F0
79E0
3FC0
ENDCHAR
STARTCHAR uni01D6
ENCODING 470
SWIDTH 634 0
DWIDTH 12 0
BBX 12 14 0 0
BITMAP
1F80
0000
0D80
0D80
0000
78E0
38E0
79E0
71C0
71C0
F3C0
E790
EBA0
71C0
ENDCHAR
STARTCHAR uni01D7
ENCODING 471
SWIDTH 776 0
DWIDTH 15 0
BBX 15 17 0 0
BITMAP
00C0
0180
0000
0360
0360
0000
7E7E
3C3C
3C3C
7878
7878
7878
7878
F0F0
F0F0
79E0
3FC0
ENDCHAR
STARTCHAR uni01D8
ENCODING 472
SWIDTH 634 0
DWIDTH 12 0
BBX 12 15 0 0
BITMAP
0300
0600
0000
0D80
0D80
0000
78E0
38E0
79E0
71C0
71C0
F3C0
E790
EBA0
71C0
ENDCHAR
STARTCHAR uni01D9
ENCODING 473
SWIDTH 776 0
DWIDTH 15 0
BBX 15 17 0 0
BITMAP
0340
0180
0000
0360
0360
0000
7E7E
3C3C
3C3C
7878
7878
7878
7878
F0F0
F0F0
79E0
3FC0
ENDCHAR
STARTCHAR uni01DA
ENCODING 474
SWIDTH 634 0
DWIDTH 12 0
BBX 12 15 0 0
BITMAP
0D00
0600
0000
0D80
0D80
0000
78E0
38E0
79E0
71C0
71C0
F3C0
E790
EBA0
71C0
ENDCHAR
STARTCHAR uni01DB
ENCODING 475
SWIDTH 776 0
DWIDTH 15 0
BBX 15 17 0 0
BITMAP
0300
0180
0000
0360
0360
0000
7E7E
3C3C
3C3C
7878
7878
7878
7878
F0F0
F0F0
79E0
3FC0
ENDCHAR
STARTCHAR uni01DC
ENCODING 476
SWIDTH 634 0
DWIDTH 12 0
BBX 12 15 0 0
BITMAP
0C00
0600
0000
0D80
0D80
0000
78E0
38E0
79E0
71C0
71C0
F3C0
E790
EBA0
71C0
ENDCHAR
STARTCHAR uni01DD
ENCODING 477
SWIDTH 476 0
DWIDTH 9 0
BBX 9 9 0 0
BITMAP
1F00
2380
4380
0380
1F80
7700
E700
EE00
7800
ENDCHAR
STARTCHAR uni01DE
ENCODING 478
SWIDTH 634 0
DWIDTH 13 0
BBX 13 16 -1 0
BITMAP
07E0
0000
0360
0360
0000
01C0
03C0
03C0
05E0
05E0
09E0
1FE0
10F0
20F0
60F0
F1F8
ENDCHAR
STARTCHAR uni01DF
ENCODING 479
SWIDTH 596 0
DWIDTH 11 0
BBX 12 14 0 0
BITMAP
0FC0
0000
06C0
06C0
0000
0EE0
39E0
70E0
71C0
F1C0
E3C0
E790
EBA0
71C0
ENDCHAR
STARTCHAR uni01E0
ENCODING 480
SWIDTH 634 0
DWIDTH 12 0
BBX 13 18 -1 0
BITMAP
07E0
0000
0180
0180
0000
01C0
01C0
03C0
03C0
05E0
05E0
09E0
09E0
1FF0
10F0
20F0
60F0
F1F8
ENDCHAR
STARTCHAR uni01E1
ENCODING 481
SWIDTH 596 0
DWIDTH 11 0
BBX 12 14 0 0
BITMAP
0FC0
0000
0600
0600
0000
0EE0
39E0
70E0
71C0
F1C0
E3C0
E790
EBA0
71C0
ENDCHAR
STARTCHAR uni01E2
ENCODING 482
SWIDTH 890 0
DWIDTH 17 0
BBX 19 15 -2 0
BITMAP
00FC00
000000
03FFE0
00FC60
00BC40
013C00
027840
0278C0
047F80
087880
0FF800
10F040
20F0C0
60F180
F1FF80
ENDCHAR
STARTCHAR uni01E3
ENCODING 483
SWIDTH 789 0
DWIDTH 15 0
BBX 15 11 0 0
BITMAP
07E0
0000
0EBC
39EE
71CE
71DC
F3F0
E380
E784
EB88
71F0
ENDCHAR
STARTCHAR uni01E4
ENCODING 484
SWIDTH 726 0
DWIDTH 13 0
BBX 15 13 0 0
BITMAP
07F0
1E38
3C10
7810
7800
7800
F000
F1F8
F0F0
F1FE
70F0
71E0
1F80
ENDCHAR
STARTCHAR uni01E5
ENCODING 485
SWIDTH 522 0
DWIDTH 10 0
BBX 12 13 -1 -4
BITMAP
0FF0
1DC0
39C0
39C0
3B80
1F00
1800
3E00
3F80
FFF0
E1C0
E380
7F00
ENDCHAR
STARTCHAR Gcaron
ENCODING 486
SWIDTH 726 0
DWIDTH 13 0
BBX 13 16 0 0
BITMAP
0680
0300
0000
07F0
1E38
3C10
7810
7800
7800
F000
F1F8
F0F0
F0F0
70F0
71E0
1F80
ENDCHAR
STARTCHAR gcaron
ENCODING 487
SWIDTH 522 0
DWIDTH 10 0
BBX 12 16 -1 -4
BITMAP
0D00
0600
0000
0FF0
1DC0
39C0
39C0
3B80
1F00
1800
3E00
3F80
63C0
E1C0
E380
7F00
ENDCHAR
STARTCHAR uni01E8
ENCODING 488
SWIDTH 688 0
DWIDTH 14 0
BBX 14 16 0 0
BITMAP
0680
0300
0000
3F3C
1E18
1E30
1E60
3CC0
3D80
3FC0
3DC0
3DE0
79E0
78F0
78F8
FC7C
ENDCHAR
STARTCHAR uni01E9
ENCODING 489
SWIDTH 570 0
DWIDTH 11 0
BBX 11 17 0 0
BITMAP
1A00
0C00
0000
3C00
1C00
1C00
3C00
3800
38C0
39E0
7380
7600
7E00
F700
E720
E3C0
E380
ENDCHAR
STARTCHAR uni01EA
ENCODING 490
SWIDTH 761 0
DWIDTH 14 0
BBX 14 17 0 -4
BITMAP
07E0
1E38
3C38
783C
783C
783C
F03C
F078
F078
F078
70F0
71E0
1F80
0300
0600
0C00
0700
ENDCHAR
STARTCHAR uni01EB
ENCODING 491
SWIDTH 562 0
DWIDTH 10 0
BBX 10 13 0 -4
BITMAP
0F80
39C0
71C0
71C0
F3C0
E380
E380
E700
7E00
0C00
1800
3000
1C00
ENDCHAR
STARTCHAR uni01EC
ENCODING 492
SWIDTH 761 0
DWIDTH 14 0
BBX 14 19 0 -4
BITMAP
0FC0
0000
07E0
1E38
3C38
783C
783C
783C
F03C
F078
F078
F078
70F0
71E0
1F80
0300
0600
0C00
0700
ENDCHAR
STARTCHAR uni01ED
ENCODING 493
SWIDTH 562 0
DWIDTH 10 0
BBX 10 15 0 -4
BITMAP
1F80
0000
0F80
39C0
71C0
71C0
F3C0
E380
E380
E700
7E00
0C00
1800
3000
1C00
ENDCHAR
STARTCHAR uni01F0
ENCODING 496
SWIDTH 333 0
DWIDTH 6 0
BBX 9 16 -3 -4
BITMAP
0D00
0600
0000
0F00
0700
0700
0F00
0E00
0E00
0E00
1E00
1C00
1C00
DC00
D800
7000
ENDCHAR
STARTCHAR uni01F4
ENCODING 500
SWIDTH 726 0
DWIDTH 13 0
BBX 13 16 0 0
BITMAP
0180
0300
0000
07F0
1E38
3C10
7810
7800
7800
F000
F1F8
F0F0
F0F0
70F0
71E0
1F80
ENDCHAR
STARTCHAR uni01F5
ENCODING 501
SWIDTH 522 0
DWIDTH 10 0
BBX 12 16 -1 -4
BITMAP
0300
0600
0000
0FF0
1DC0
39C0
39C0
3B80
1F00
1800
3E00
3F80
63C0
E1C0
E380
7F00
ENDCHAR
STARTCHAR uni01F8
ENCODING 504
SWIDTH 741 0
DWIDTH 14 0
BBX 14 16 0 0
BITMAP
0600
0300
0000
3E1C
1E08
1F08
1F08
3F98
2790
27D0
23D0
63F0
41E0
41E0
40E0
E0E0
ENDCHAR
STARTCHAR uni01F9
ENCODING 505
SWIDTH 635 0
DWIDTH 12 0
BBX 12 12 0 0
BITMAP
0C00
0600
0000
79C0
3AE0
3CE0
79E0
71C0
71C0
F3D0
E3A0
E1C0
ENDCHAR
STARTCHAR Aringacute
ENCODING 506
SWIDTH 634 0
DWIDTH 13 0
BBX 13 17 -1 0
BITMAP
00C0
0180
0000
00C0
0120
00C0
01C0
03C0
03C0
05E0
05E0
09E0
1FE0
10F0
20F0
60F0
F1F8
ENDCHAR
STARTCHAR aringacute
ENCODING 507
SWIDTH 596 0
DWIDTH 12 0
BBX 12 16 0 0
BITMAP
0180
0300
0000
0300
0480
0300
0000
0EE0
39E0
70E0
71C0
F1C0
E3C0
E790
EBA0
71C0
ENDCHAR
STARTCHAR AEacute
ENCODING 508
SWIDTH 890 0
DWIDTH 17 0
BBX 19 16 -2 0
BITMAP
001800
003000
000000
03FFE0
00FC60
00BC40
013C00
027840
0278C0
047F80
087880
0FF800
10F040
20F0C0
60F180
F1FF80
ENDCHAR
STARTCHAR aeacute
ENCODING 509
SWIDTH 789 0
DWIDTH 15 0
BBX 15 12 0 0
BITMAP
00C0
0180
0000
0EBC
39EE
71CE
71DC
F3F0
E380
E784
EB88
71F0
ENDCHAR
STARTCHAR Oslashacute
ENCODING 510
SWIDTH 761 0
DWIDTH 14 0
BBX 14 16 0 0
BITMAP
0180
0300
0000
07E4
1E38
3C38
787C
78BC
793C
F23C
F278
F478
F878
70F0
71E0
9F80
ENDCHAR
STARTCHAR oslashacute
ENCODING 511
SWIDTH 562 0
DWIDTH 11 0
BBX 10 14 0 -1
BITMAP
0300
0600
0000
0040
0F80
39C0
73C0
75C0
FBC0
EB80
F380
E700
7E00
8000
ENDCHAR
STARTCHAR Scommaaccent
ENCODING 536
SWIDTH 551 0
DWIDTH 11 0
BBX 11 20 0 -7
BITMAP
07C0
1CE0
3860
3820
3C00
3F00
1F80
0FC0
03C0
81C0
C1C0
E380
7E00
0000
0C00
0E00
0E00
0C00
1800
3000
ENDCHAR
STARTCHAR scommaaccent
ENCODING 537
SWIDTH 417 0
DWIDTH 8 0
BBX 7 16 0 -7
BITMAP
1E
36
72
78
38
3C
9C
D8
F0
00
30
38
38
30
60
C0
ENDCHAR
STARTCHAR Tcommaaccent
ENCODING 538
SWIDTH 616 0
DWIDTH 12 0
BBX 12 20 1 -7
BITMAP
FFF0
CF30
8F10
0F00
1E00
1E00
1E00
1E00
1E00
3C00
3C00
3C00
7E00
0000
0C00
0E00
0E00
0C00
1800
3000
ENDCHAR
STARTCHAR tcommaaccent
ENCODING 539
SWIDTH 359 0
DWIDTH 7 0
BBX 7 18 0 -7
BITMAP
08
18
7E
38
38
78
70
70
F4
E8
70
00
30
38
38
30
60
C0
ENDCHAR
STARTCHAR uni021E
ENCODING 542
SWIDTH 800 0
DWIDTH 15 0
BBX 15 16 0 0
BITMAP
0340
0180
0000
3F7E
1E3C
1E3C
1E3C
3C78
3C78
3FF8
3C78
3C78
78F0
78F0
78F0
FDF8
ENDCHAR
STARTCHAR uni021F
ENCODING 543
SWIDTH 629 0
DWIDTH 12 0
BBX 12 17 0 0
BITMAP
1A00
0C00
0000
3C00
1C00
1C00
3C00
3800
39C0
3AE0
74E0
79E0
71C0
71C0
F3D0
E3A0
E1C0
ENDCHAR
STARTCHAR uni0226
ENCODING 550
SWIDTH 634 0
DWIDTH 12 0
BBX 13 16 -1 0
BITMAP
0180
0180
0000
01C0
01C0
03C0
03C0
05E0
05E0
09E0
09E0
1FF0
10F0
20F0
60F0
F1F8
ENDCHAR
STARTCHAR uni0227
ENCODING 551
SWIDTH 596 0
DWIDTH 11 0
BBX 12 12 0 0
BITMAP
0600
0600
0000
0EE0
39E0
70E0
71C0
F1C0
E3C0
E790
EBA0
71C0
ENDCHAR
STARTCHAR uni0228
ENCODING 552
SWIDTH 622 0
DWIDTH 12 0
BBX 12 17 0 -4
BITMAP
3FF0
1E30
1E20
1E00
3C20
3C60
3FC0
3C40
3C00
7820
7860
78C0
FFC0
0400
0E00
0600
1C00
ENDCHAR
STARTCHAR uni0229
ENCODING 553
SWIDTH 476 0
DWIDTH 9 0
BBX 9 13 0 -4
BITMAP
0F00
3B80
7380
7700
FC00
E000
E100
E200
7C00
1000
3800
1800
7000
ENDCHAR
STARTCHAR uni022A
ENCODING 554
SWIDTH 761 0
DWIDTH 14 0
BBX 14 16 0 0
BITMAP
07E0
0000
0360
0360
0000
07E0
1E38
3C38
783C
783C
F03C
F078
F078
70F0
71E0
1F80
ENDCHAR
STARTCHAR uni022B
ENCODING 555
SWIDTH 562 0
DWIDTH 10 0
BBX 10 14 0 0
BITMAP
1F80
0000
0D80
0D80
0000
0F80
39C0
71C0
71C0
F3C0
E380
E380
E700
7E00
ENDCHAR
STARTCHAR uni022C
ENCODING 556
SWIDTH 761 0
DWIDTH 14 0
BBX 14 16 0 0
BITMAP
07E0
0000
03B0
06E0
0000
07E0
1E38
3C38
783C
783C
F03C
F078
F078
70F0
71E0
1F80
ENDCHAR
STARTCHAR uni022D
ENCODING 557
SWIDTH 562 0
DWIDTH 10 0
BBX 10 14 0 0
BITMAP
1F80
0000
0EC0
1B80
0000
0F80
39C0
71C0
71C0
F3C0
E380
E380
E700
7E00
ENDCHAR
STARTCHAR uni022E
ENCODING 558
SWIDTH 761 0
DWIDTH 14 0
BBX 14 16 0 0
BITMAP
0300
0300
0000
07E0
1E38
3C38
783C
783C
783C
F03C
F078
F078
F078
70F0
71E0
1F80
ENDCHAR
STARTCHAR uni022F
ENCODING 559
SWIDTH 562 0
DWIDTH 10 0
BBX 10 12 0 0
BITMAP
0600
0600
0000
0F80
39C0
71C0
71C0
F3C0
E380
E380
E700
7E00
ENDCHAR
STARTCHAR uni0230
ENCODING 560
SWIDTH 761 0
DWIDTH 14 0
BBX 14 18 0 0
BITMAP
0FC0
0000
0300
0300
0000
07E0
1E38
3C38
783C
783C
783C
F03C
F078
F078
F078
70F0
71E0
1F80
ENDCHAR
STARTCHAR uni0231
ENCODING 561
SWIDTH 562 0
DWIDTH 10 0
BBX 10 14 0 0
BITMAP
1F80
0000
0600
0600
0000
0F80
39C0
71C0
71C0
F3C0
E380
E380
E700
7E00
ENDCHAR
STARTCHAR uni0232
ENCODING 562
SWIDTH 622 0
DWIDTH 12 0
BBX 12 15 1 0
BITMAP
3F00
0000
FCF0
7860
7840
7880
7900
3E00
3E00
3C00
3C00
7800
7800
7800
FC00
ENDCHAR
STARTCHAR uni0233
ENCODING 563
SWIDTH 489 0
DWIDTH 9 0
BBX 11 15 -2 -4
BITMAP
1F80
0000
3C60
1C60
1CC0
1CC0
1C80
1F00
0F00
0E00
0C00
0C00
0800
D000
E000
ENDCHAR
STARTCHAR uni0250
ENCODING 592
SWIDTH 596 0
DWIDTH 11 0
BBX 12 9 0 0
BITMAP
38E0
5D70
9E70
3C70
38F0
38E0
70E0
79C0
7700
ENDCHAR
STARTCHAR uni0259
ENCODING 601
SWIDTH 476 0
DWIDTH 9 0
BBX 9 9 0 0
BITMAP
1F00
2380
4380
0380
1F80
7700
E700
EE00
7800
ENDCHAR
STARTCHAR uni025F
ENCODING 607
SWIDTH 348 0
DWIDTH 7 0
BBX 12 18 -3 -9
BITMAP
00E0
01B0
03B0
0380
0380
0780
0700
0700
0700
0F00
0E00
0E00
7F00
1C00
1C00
DC00
D800
7000
ENDCHAR
STARTCHAR uni0265
ENCODING 613
SWIDTH 629 0
DWIDTH 12 0
BBX 12 14 0 -5
BITMAP
3870
5C70
BCF0
38E0
38E0
79E0
72E0
75C0
39C0
01C0
03C0
0380
0380
03C0
ENDCHAR
STARTCHAR uni0275
ENCODING 629
SWIDTH 562 0
DWIDTH 10 0
BBX 10 9 0 0
BITMAP
0F80
39C0
71C0
71C0
FFC0
E380
E380
E700
7E00
ENDCHAR
STARTCHAR uni0279
ENCODING 633
SWIDTH 440 0
DWIDTH 8 0
BBX 9 9 0 0
BITMAP
0380
0380
0780
0700
0700
0F00
6E00
FE00
6F00
ENDCHAR
STARTCHAR uni0287
ENCODING 647
SWIDTH 359 0
DWIDTH 7 0
BBX 7 11 0 0
BITMAP
1C
2E
5E
1C
1C
3C
38
38
FC
30
20
ENDCHAR
STARTCHAR uni0289
ENCODING 649
SWIDTH 634 0
DWIDTH 12 0
BBX 12 9 0 0
BITMAP
78E0
38E0
79E0
71C0
FFF0
F3C0
E790
EBA0
71C0
ENDCHAR
STARTCHAR uni028C
ENCODING 652
SWIDTH 518 0
DWIDTH 10 0
BBX 10 9 0 0
BITMAP
0780
19C0
31C0
63C0
6380
C380
C780
E700
6780
ENDCHAR
STARTCHAR uni028D
ENCODING 653
SWIDTH 795 0
DWIDTH 15 0
BBX 15 9 0 0
BITMAP
071C
1BEE
33CE
638E
639C
C79C
C71C
E738
673C
ENDCHAR
STARTCHAR uni028E
ENCODING 654
SWIDTH 489 0
DWIDTH 9 0
BBX 11 13 -2 0
BITMAP
00E0
0160
0200
0600
0600
0E00
1E00
1F00
2700
6700
6700
C700
C780
ENDCHAR
STARTCHAR uni029E
ENCODING 670
SWIDTH 570 0
DWIDTH 11 0
BBX 11 14 0 -5
BITMAP
38E0
78E0
9CE0
1DE0
0FC0
0DC0
39C0
F380
6380
0380
0780
0700
0700
0780
ENDCHAR
STARTCHAR uni02BB
ENCODING 699
SWIDTH 246 0
DWIDTH 5 0
BBX 5 6 1 7
BITMAP
18
30
60
E0
E0
60
ENDCHAR
STARTCHAR afii57929
ENCODING 700
SWIDTH 246 0
DWIDTH 5 0
BBX 5 6 0 7
BITMAP
30
38
38
30
60
C0
ENDCHAR
STARTCHAR afii64937
ENCODING 701
SWIDTH 246 0
DWIDTH 5 0
BBX 5 6 0 7
BITMAP
60
E0
E0
60
30
18
ENDCHAR
STARTCHAR circumflex
ENCODING 710
SWIDTH 400 0
DWIDTH 7 0
BBX 4 2 2 10
BITMAP
60
B0
ENDCHAR
STARTCHAR caron
ENCODING 711
SWIDTH 400 0
DWIDTH 7 0
BBX 4 2 1 10
BITMAP
D0
60
ENDCHAR
STARTCHAR uni02C8
ENCODING 712
SWIDTH 246 0
DWIDTH 5 0
BBX 3 7 1 6
BITMAP
60
60
E0
C0
C0
80
80
ENDCHAR
STARTCHAR macron
ENCODING 713
SWIDTH 400 0
DWIDTH 7 0
BBX 6 1 1 10
BITMAP
FC
ENDCHAR
STARTCHAR uni02CA
ENCODING 714
SWIDTH 400 0
DWIDTH 7 0
BBX 3 2 2 10
BITMAP
60
C0
ENDCHAR
STARTCHAR uni02CB
ENCODING 715
SWIDTH 400 0
DWIDTH 7 0
BBX 3 2 2 10
BITMAP
C0
60
ENDCHAR
STARTCHAR uni02CD
ENCODING 717
SWIDTH 400 0
DWIDTH 7 0
BBX 6 1 1 -2
BITMAP
FC
ENDCHAR
STARTCHAR uni02CE
ENCODING 718
SWIDTH 400 0
DWIDTH 7 0
BBX 3 2 2 -3
BITMAP
C0
60
ENDCHAR
STARTCHAR uni02CF
ENCODING 719
SWIDTH 400 0
DWIDTH 7 0
BBX 3 2 2 -3
BITMAP
60
C0
ENDCHAR
STARTCHAR breve
ENCODING 728
SWIDTH 400 0
DWIDTH 7 0
BBX 6 2 1 10
BITMAP
CC
78
ENDCHAR
STARTCHAR dotaccent
ENCODING 729
SWIDTH 402 0
DWIDTH 7 0
BBX 2 2 3 10
BITMAP
C0
C0
ENDCHAR
STARTCHAR ring
ENCODING 730
SWIDTH 400 0
DWIDTH 7 0
BBX 4 3 1 10
BITMAP
60
90
60
ENDCHAR
STARTCHAR ogonek
ENCODING 731
SWIDTH 350 0
DWIDTH 6 0
BBX 4 4 1 -4
BITMAP
30
60
C0
70
ENDCHAR
STARTCHAR tilde
ENCODING 732
SWIDTH 400 0
DWIDTH 7 0
BBX 7 2 0 10
BITMAP
76
DC
ENDCHAR
STARTCHAR hungarumlaut
ENCODING 733
SWIDTH 400 0
DWIDTH 7 0
BBX 6 2 1 10
BITMAP
6C
D8
ENDCHAR
STARTCHAR uni02EE
ENCODING 750
SWIDTH 455 0
DWIDTH 8 0
BBX 9 6 0 7
BITMAP
3300
3B80
3B80
3300
6600
CC00
ENDCHAR
STARTCHAR uni037E
ENCODING 894
SWIDTH 280 0
DWIDTH 5 0
BBX 7 12 -2 -3
BITMAP
0C
1E
0C
00
00
00
30
38
38
30
60
C0
ENDCHAR
STARTCHAR tonos
ENCODING 900
SWIDTH 400 0
DWIDTH 7 0
BBX 3 2 2 10
BITMAP
60
C0
ENDCHAR
STARTCHAR dieresistonos
ENCODING 901
SWIDTH 400 0
DWIDTH 7 0
BBX 5 5 1 10
BITMAP
30
60
00
D8
D8
ENDCHAR
STARTCHAR anoteleia
ENCODING 903
SWIDTH 280 0
DWIDTH 5 0
BBX 4 3 0 4
BITMAP
60
F0
60
ENDCHAR
STARTCHAR mu
ENCODING 956
SWIDTH 634 0
DWIDTH 12 0
BBX 13 13 -1 -4
BITMAP
3C70
1C70
3CF0
38E0
38E0
79E0
73C8
75D0
78E0
C000
E000
E000
4000
ENDCHAR
STARTCHAR uni1E00
ENCODING 7680
SWIDTH 634 0
DWIDTH 12 0
BBX 13 17 -1 -4
BITMAP
01C0
01C0
03C0
03C0
05E0
05E0
09E0
09E0
1FF0
10F0
20F0
60F0
F1F8
0000
0300
0480
0300
ENDCHAR
STARTCHAR uni1E01
ENCODING 7681
SWIDTH 596 0
DWIDTH 11 0
BBX 12 13 0 -4
BITMAP
0EE0
39E0
70E0
71C0
F1C0
E3C0
E790
EBA0
71C0
0000
0600
0900
0600
ENDCHAR
STARTCHAR uni1E02
ENCODING 7682
SWIDTH 680 0
DWIDTH 13 0
BBX 13 16 0 0
BITMAP
0300
0300
0000
3FF0
1E78
1E78
1E78
3C70
3CF0
3FC0
3CE0
3CF0
78F0
78F0
79E0
FFC0
ENDCHAR
STARTCHAR uni1E03
ENCODING 7683
SWIDTH 586 0
DWIDTH 11 0
BBX 10 17 0 0
BITMAP
1800
1800
0000
3C00
1C00
1C00
3C00
3800
3B80
3DC0
79C0
71C0
73C0
F380
E380
E700
BE00
ENDCHAR
STARTCHAR uni1E04
ENCODING 7684
SWIDTH 680 0
DWIDTH 13 0
BBX 13 16 0 -3
BITMAP
3FF0
1E78
1E78
1E78
3C70
3CF0
3FC0
3CE0
3CF0
78F0
78F0
79E0
FFC0
0000
0600
0600
ENDCHAR
STARTCHAR uni1E05
ENCODING 7685
SWIDTH 586 0
DWIDTH 11 0
BBX 10 17 0 -3
BITMAP
3C00
1C00
1C00
3C00
3800
3B80
3DC0
79C0
71C0
73C0
F380
E380
E700
BE00
0000
1800
1800
ENDCHAR
STARTCHAR uni1E06
ENCODING 7686
SWIDTH 680 0
DWIDTH 13 0
BBX 13 15 0 -2
BITMAP
3FF0
1E78
1E78
1E78
3C70
3CF0
3FC0
3CE0
3CF0
78F0
78F0
79E0
FFC0
0000
1F80
ENDCHAR
STARTCHAR uni1E07
ENCODING 7687
SWIDTH 586 0
DWIDTH 11 0
BBX 10 16 0 -2
BITMAP
3C00
1C00
1C00
3C00
3800
3B80
3DC0
79C0
71C0
73C0
F380
E380
E700
BE00
0000
7E00
ENDCHAR
STARTCHAR uni1E08
ENCODING 7688
SWIDTH 672 0
DWIDTH 13 0
BBX 13 20 0 -4
BITMAP
0300
0600
0000
07F0
1E38
3C10
7810
7800
7800
F000
F000
F000
F020
7060
70C0
1F00
0200
0700
0300
0E00
ENDCHAR
STARTCHAR uni1E09
ENCODING 7689
SWIDTH 456 0
DWIDTH 9 0
BBX 9 16 0 -4
BITMAP
0C00
1800
0000
0F00
3980
7100
7000
F000
E000
E100
6200
3C00
0800
1C00
0C00
3800
ENDCHAR
STARTCHAR uni1E0A
ENCODING 7690
SWIDTH 774 0
DWIDTH 15 0
BBX 14 16 0 0
BITMAP
0300
0300
0000
3FE0
1E38
1E38
1E3C
3C3C
3C3C
3C3C
3C78
3C78
7878
78F0
79E0
FF80
ENDCHAR
STARTCHAR uni1E0B
ENCODING 7691
SWIDTH 609 0
DWIDTH 12 0
BBX 12 17 0 0
BITMAP
00C0
00C0
0000
00F0
0070
0070
00F0
00E0
0FE0
38E0
71C0
71C0
F1C0
E3C0
E790
EBA0
71C0
ENDCHAR
STARTCHAR uni1E0C
ENCODING 7692
SWIDTH 774 0
DWIDTH 15 0
BBX 14 16 0 -3
BITMAP
3FE0
1E38
1E38
1E3C
3C3C
3C3C
3C3C
3C78
3C78
7878
78F0
79E0
FF80
0000
0600
0600
ENDCHAR
STARTCHAR uni1E0D
ENCODING 7693
SWIDTH 609 0
DWIDTH 12 0
BBX 12 17 0 -3
BITMAP
00F0
0070
0070
00F0
00E0
0FE0
38E0
71C0
71C0
F1C0
E3C0
E790
EBA0
71C0
0000
0600
0600
ENDCHAR
STARTCHAR uni1E0E
ENCODING 7694
SWIDTH 774 0
DWIDTH 15 0
BBX 14 15 0 -2
BITMAP
3FE0
1E38
1E38
1E3C
3C3C
3C3C
3C3C
3C78
3C78
7878
78F0
79E0
FF80
0000
1F80
ENDCHAR
STARTCHAR uni1E0F
ENCODING 7695
SWIDTH 609 0
DWIDTH 12 0
BBX 12 16 0 -2
BITMAP
00F0
0070
0070
00F0
00E0
0FE0
38E0
71C0
71C0
F1C0
E3C0
E790
EBA0
71C0
0000
1F80
ENDCHAR
STARTCHAR uni1E10
ENCODING 7696
SWIDTH 774 0
DWIDTH 15 0
BBX 14 17 0 -4
BITMAP
3FE0
1E38
1E38
1E3C
3C3C
3C3C
3C3C
3C78
3C78
7878
78F0
79E0
FF80
0200
0700
0300
0E00
ENDCHAR
STARTCHAR uni1E11
ENCODING 7697
SWIDTH 609 0
DWIDTH 12 0
BBX 12 18 0 -4
BITMAP
00F0
0070
0070
00F0
00E0
0FE0
38E0
71C0
71C0
F1C0
E3C0
E790
EBA0
71C0
0400
0E00
0600
1C00
ENDCHAR
STARTCHAR uni1E12
ENCODING 7698
SWIDTH 774 0
DWIDTH 15 0
BBX 14 16 0 -3
BITMAP
3FE0
1E38
1E38
1E3C
3C3C
3C3C
3C3C
3C78
3C78
7878
78F0
79E0
FF80
0000
0600
0B00
ENDCHAR
STARTCHAR uni1E13
ENCODING 7699
SWIDTH 609 0
DWIDTH 12 0
BBX 12 17 0 -3
BITMAP
00F0
0070
0070
00F0
00E0
0FE0
38E0
71C0
71C0
F1C0
E3C0
E790
EBA0
71C0
0000
0600
0B00
ENDCHAR
STARTCHAR uni1E14
ENCODING 7700
SWIDTH 622 0
DWIDTH 12 0
BBX 12 18 0 0
BITMAP
0600
0300
0000
1F80
0000
3FF0
1E30
1E20
1E00
3C20
3C60
3FC0
3C40
3C00
7820
7860
78C0
FFC0
ENDCHAR
STARTCHAR uni1E15
ENCODING 7701
SWIDTH 476 0
DWIDTH 9 0
BBX 9 14 0 0
BITMAP
1800
0C00
0000
3F00
0000
0F00
3B80
7380
7700
FC00
E000
E100
E200
7C00
ENDCHAR
STARTCHAR uni1E16
ENCODING 7702
SWIDTH 622 0
DWIDTH 12 0
BBX 12 18 0 0
BITMAP
0300
0600
0000
1F80
0000
3FF0
1E30
1E20
1E00
3C20
3C60
3FC0
3C40
3C00
7820
7860
78C0
FFC0
ENDCHAR
STARTCHAR uni1E17
ENCODING 7703
SWIDTH 476 0
DWIDTH 9 0
BBX 9 14 0 0
BITMAP
0600
0C00
0000
3F00
0000
0F00
3B80
7380
7700
FC00
E000
E100
E200
7C00
ENDCHAR
STARTCHAR uni1E18
ENCODING 7704
SWIDTH 622 0
DWIDTH 12 0
BBX 12 16 0 -3
BITMAP
3FF0
1E30
1E20
1E00
3C20
3C60
3FC0
3C40
3C00
7820
7860
78C0
FFC0
0000
0C00
1600
ENDCHAR
STARTCHAR uni1E19
ENCODING 7705
SWIDTH 476 0
DWIDTH 9 0
BBX 9 12 0 -3
BITMAP
0F00
3B80
7380
7700
FC00
E000
E100
E200
7C00
0000
1800
2C00
ENDCHAR
STARTCHAR uni1E1A
ENCODING 7706
SWIDTH 622 0
DWIDTH 12 0
BBX 12 16 0 -3
BITMAP
3FF0
1E30
1E20
1E00
3C20
3C60
3FC0
3C40
3C00
7820
7860
78C0
FFC0
0000
1D80
3700
ENDCHAR
STARTCHAR uni1E1B
ENCODING 7707
SWIDTH 476 0
DWIDTH 9 0
BBX 9 12 0 -3
BITMAP
0F00
3B80
7380
7700
FC00
E000
E100
E200
7C00
0000
7600
DC00
ENDCHAR
STARTCHAR uni1E1C
ENCODING 7708
SWIDTH 622 0
DWIDTH 12 0
BBX 12 20 0 -4
BITMAP
1980
0F00
0000
3FF0
1E30
1E20
1E00
3C20
3C60
3FC0
3C40
3C00
7820
7860
78C0
FFC0
0400
0E00
0600
1C00
ENDCHAR
STARTCHAR uni1E1D
ENCODING 7709
SWIDTH 476 0
DWIDTH 9 0
BBX 9 16 0 -4
BITMAP
3300
1E00
0000
0F00
3B80
7380
7700
FC00
E000
E100
E200
7C00
1000
3800
1800
7000
ENDCHAR
STARTCHAR uni1E1E
ENCODING 7710
SWIDTH 585 0
DWIDTH 12 0
BBX 12 16 0 0
BITMAP
0600
0600
0000
3FF0
1E30
1E20
1E00
3C20
3C60
3FC0
3C40
3C00
7800
7800
7800
FC00
ENDCHAR
STARTCHAR uni1E1F
ENCODING 7711
SWIDTH 348 0
DWIDTH 7 0
BBX 12 21 -3 -4
BITMAP
0180
0180
0000
00E0
01B0
03B0
0380
0380
0FE0
0700
0700
0F00
0E00
0E00
0E00
1E00
1C00
1C00
DC00
D800
7000
ENDCHAR
STARTCHAR uni1E20
ENCODING 7712
SWIDTH 726 0
DWIDTH 13 0
BBX 13 15 0 0
BITMAP
0FC0
0000
07F0
1E38
3C10
7810
7800
7800
F000
F1F8
F0F0
F0F0
70F0
71E0
1F80
ENDCHAR
STARTCHAR uni1E21
ENCODING 7713
SWIDTH 522 0
DWIDTH 10 0
BBX 12 15 -1 -4
BITMAP
1F80
0000
0FF0
1DC0
39C0
39C0
3B80
1F00
1800
3E00
3F80
63C0
E1C0
E380
7F00
ENDCHAR
STARTCHAR uni1E22
ENCODING 7714
SWIDTH 800 0
DWIDTH 15 0
BBX 15 16 0 0
BITMAP
0180
0180
0000
3F7E
1E3C
1E3C
1E3C
3C78
3C78
3FF8
3C78
3C78
78F0
78F0
78F0
FDF8
ENDCHAR
STARTCHAR uni1E23
ENCODING 7715
SWIDTH 629 0
DWIDTH 12 0
BBX 12 17 0 0
BITMAP
0C00
0C00
0000
3C00
1C00
1C00
3C00
3800
39C0
3AE0
74E0
79E0
71C0
71C0
F3D0
E3A0
E1C0
ENDCHAR
STARTCHAR uni1E24
ENCODING 7716
SWIDTH 800 0
DWIDTH 15 0
BBX 15 16 0 -3
BITMAP
3F7E
1E3C
1E3C
1E3C
3C78
3C78
3FF8
3C78
3C78
78F0
78F0
78F0
FDF8
0000
0300
0300
ENDCHAR
STARTCHAR uni1E25
ENCODING 7717
SWIDTH 629 0
DWIDTH 12 0
BBX 12 17 0 -3
BITMAP
3C00
1C00
1C00
3C00
3800
39C0
3AE0
74E0
79E0
71C0
71C0
F3D0
E3A0
E1C0
0000
0600
0600
ENDCHAR
STARTCHAR uni1E26
ENCODING 7718
SWIDTH 800 0
DWIDTH 15 0
BBX 15 16 0 0
BITMAP
0360
0360
0000
3F7E
1E3C
1E3C
1E3C
3C78
3C78
3FF8
3C78
3C78
78F0
78F0
78F0
FDF8
ENDCHAR
STARTCHAR uni1E27
ENCODING 7719
SWIDTH 629 0
DWIDTH 12 0
BBX 12 17 0 0
BITMAP
3600
3600
0000
3C00
1C00
1C00
3C00
3800
39C0
3AE0
74E0
79E0
71C0
71C0
F3D0
E3A0
E1C0
ENDCHAR
STARTCHAR uni1E28
ENCODING 7720
SWIDTH 800 0
DWIDTH 15 0
BBX 15 17 0 -4
BITMAP
3F7E
1E3C
1E3C
1E3C
3C78
3C78
3FF8
3C78
3C78
78F0
78F0
78F0
FDF8
0100
0380
0180
0700
ENDCHAR
STARTCHAR uni1E29
ENCODING 7721
SWIDTH 629 0
DWIDTH 12 0
BBX 12 18 0 -4
BITMAP
3C00
1C00
1C00
3C00
3800
39C0
3AE0
74E0
79E0
71C0
71C0
F3D0
E3A0
E1C0
0400
0E00
0600
1C00
ENDCHAR
STARTCHAR uni1E2A
ENCODING 7722
SWIDTH 800 0
DWIDTH 15 0
BBX 15 16 0 -3
BITMAP
3F7E
1E3C
1E3C
1E3C
3C78
3C78
3FF8
3C78
3C78
78F0
78F0
78F0
FDF8
0000
0CC0
0780
ENDCHAR
STARTCHAR uni1E2B
ENCODING 7723
SWIDTH 629 0
DWIDTH 12 0
BBX 12 17 0 -3
BITMAP
3C00
1C00
1C00
3C00
3800
39C0
3AE0
74E0
79E0
71C0
71C0
F3D0
E3A0
E1C0
0000
1980
0F00
ENDCHAR
STARTCHAR uni1E2C
ENCODING 7724
SWIDTH 386 0
DWIDTH 7 0
BBX 8 16 -1 -3
BITMAP
3F
1E
1E
1E
3C
3C
3C
3C
3C
78
78
78
FC
00
76
DC
ENDCHAR
STARTCHAR uni1E2D
ENCODING 7725
SWIDTH 339 0
DWIDTH 6 0
BBX 7 16 -1 -3
BITMAP
0C
1E
0C
00
3C
1C
3C
38
38
78
72
74
38
00
76
DC
ENDCHAR
STARTCHAR uni1E2E
ENCODING 7726
SWIDTH 386 0
DWIDTH 7 0
BBX 8 17 -1 0
BITMAP
06
0C
00
1B
1B
00
3F
1E
1E
1E
3C
3C
3C
78
78
78
FC
ENDCHAR
STARTCHAR uni1E2F
ENCODING 7727
SWIDTH 339 0
DWIDTH 6 0
BBX 6 15 0 0
BITMAP
18
30
00
6C
6C
00
78
38
78
70
70
F0
E4
E8
70
ENDCHAR
STARTCHAR uni1E30
ENCODING 7728
SWIDTH 688 0
DWIDTH 14 0
BBX 14 16 0 0
BITMAP
0180
0300
0000
3F3C
1E18
1E30
1E60
3CC0
3D80
3FC0
3DC0
3DE0
79E0
78F0
78F8
FC7C
ENDCHAR
STARTCHAR uni1E31
ENCODING 7729
SWIDTH 570 0
DWIDTH 11 0
BBX 11 17 0 0
BITMAP
0C00
1800
0000
3C00
1C00
1C00
3C00
3800
38C0
39E0
7380
7600
7E00
F700
E720
E3C0
E380
ENDCHAR
STARTCHAR uni1E32
ENCODING 7730
SWIDTH 688 0
DWIDTH 14 0
BBX 14 16 0 -3
BITMAP
3F3C
1E18
1E30
1E60
3CC0
3D80
3FC0
3DC0
3DE0
79E0
78F0
78F8
FC7C
0000
0300
0300
ENDCHAR
STARTCHAR uni1E33
ENCODING 7731
SWIDTH 570 0
DWIDTH 11 0
BBX 11 17 0 -3
BITMAP
3C00
1C00
1C00
3C00
3800
38C0
39E0
7380
7600
7E00
F700
E720
E3C0
E380
0000
0C00
0C00
ENDCHAR
STARTCHAR uni1E34
ENCODING 7732
SWIDTH 688 0
DWIDTH 14 0
BBX 14 15 0 -2
BITMAP
3F3C
1E18
1E30
1E60
3CC0
3D80
3FC0
3DC0
3DE0
79E0
78F0
78F8
FC7C
0000
0FC0
ENDCHAR
STARTCHAR uni1E35
ENCODING 7733
SWIDTH 570 0
DWIDTH 11 0
BBX 11 16 0 -2
BITMAP
3C00
1C00
1C00
3C00
3800
38C0
39E0
7380
7600
7E00
F700
E720
E3C0
E380
0000
3F00
ENDCHAR
STARTCHAR uni1E36
ENCODING 7734
SWIDTH 586 0
DWIDTH 11 0
BBX 11 16 0 -3
BITMAP
3F00
1E00
1E00
1E00
3C00
3C00
3C00
3C00
3C00
7820
7860
78C0
FFC0
0000
0C00
0C00
ENDCHAR
STARTCHAR uni1E37
ENCODING 7735
SWIDTH 327 0
DWIDTH 6 0
BBX 6 17 0 -3
BITMAP
3C
1C
1C
3C
38
38
38
70
70
70
F0
E4
E8
70
00
30
30
ENDCHAR
STARTCHAR uni1E38
ENCODING 7736
SWIDTH 586 0
DWIDTH 11 0
BBX 11 18 0 -3
BITMAP
3F00
0000
3F00
1E00
1E00
1E00
3C00
3C00
3C00
3C00
3C00
7820
7860
78C0
FFC0
0000
0C00
0C00
ENDCHAR
STARTCHAR uni1E39
ENCODING 7737
SWIDTH 327 0
DWIDTH 6 0
BBX 7 19 0 -3
BITMAP
7E
00
3C
1C
1C
3C
38
38
38
70
70
70
F0
E4
E8
70
00
30
30
ENDCHAR
STARTCHAR uni1E3A
ENCODING 7738
SWIDTH 586 0
DWIDTH 11 0
BBX 11 15 0 -2
BITMAP
3F00
1E00
1E00
1E00
3C00
3C00
3C00
3C00
3C00
7820
7860
78C0
FFC0
0000
3F00
ENDCHAR
STARTCHAR uni1E3B
ENCODING 7739
SWIDTH 327 0
DWIDTH 6 0
BBX 6 16 0 -2
BITMAP
3C
1C
1C
3C
38
38
38
70
70
70
F0
E4
E8
70
00
FC
ENDCHAR
STARTCHAR uni1E3C
ENCODING 7740
SWIDTH 586 0
DWIDTH 11 0
BBX 11 16 0 -3
BITMAP
3F00
1E00
1E00
1E00
3C00
3C00
3C00
3C00
3C00
7820
7860
78C0
FFC0
0000
0C00
1600
ENDCHAR
STARTCHAR uni1E3D
ENCODING 7741
SWIDTH 327 0
DWIDTH 6 0
BBX 6 17 0 -3
BITMAP
3C
1C
1C
3C
38
38
38
70
70
70
F0
E4
E8
70
00
30
58
ENDCHAR
STARTCHAR uni1E3E
ENCODING 7742
SWIDTH 921 0
DWIDTH 18 0
BBX 18 16 0 0
BITMAP
003000
006000
000000
3E0FC0
1E0F80
1E1780
1E1780
2F2F00
2F2F00
2F4F00
27CF00
678F00
479E00
471E00
431E00
E23F00
ENDCHAR
STARTCHAR uni1E3F
ENCODING 7743
SWIDTH 914 0
DWIDTH 17 0
BBX 18 12 0 0
BITMAP
006000
00C000
000000
79C700
3AEB80
3CF380
79E780
71C700
71C700
F3CF40
E38E80
E38700
ENDCHAR
STARTCHAR uni1E40
ENCODING 7744
SWIDTH 921 0
DWIDTH 18 0
BBX 18 16 0 0
BITMAP
006000
006000
000000
3E0FC0
1E0F80
1E1780
1E1780
2F2F00
2F2F00
2F4F00
27CF00
678F00
479E00
471E00
431E00
E23F00
ENDCHAR
STARTCHAR uni1E41
ENCODING 7745
SWIDTH 914 0
DWIDTH 17 0
BBX 18 12 0 0
BITMAP
00C000
00C000
000000
79C700
3AEB80
3CF380
79E780
71C700
71C700
F3CF40
E38E80
E38700
ENDCHAR
STARTCHAR uni1E42
ENCODING 7746
SWIDTH 921 0
DWIDTH 18 0
BBX 18 16 0 -3
BITMAP
3E0FC0
1E0F80
1E1780
1E1780
2F2F00
2F2F00
2F4F00
27CF00
678F00
479E00
471E00
431E00
E23F00
000000
00C000
00C000
ENDCHAR
STARTCHAR uni1E43
ENCODING 7747
SWIDTH 914 0
DWIDTH 17 0
BBX 18 12 0 -3
BITMAP
79C700
3AEB80
3CF380
79E780
71C700
71C700
F3CF40
E38E80
E38700
000000
00C000
00C000
ENDCHAR
STARTCHAR uni1E44
ENCODING 7748
SWIDTH 741 0
DWIDTH 14 0
BBX 14 16 0 0
BITMAP
0300
0300
0000
3E1C
1E08
1F08
1F08
3F98
2790
27D0
23D0
63F0
41E0
41E0
40E0
E0E0
ENDCHAR
STARTCHAR uni1E45
ENCODING 7749
SWIDTH 635 0
DWIDTH 12 0
BBX 12 12 0 0
BITMAP
0600
0600
0000
79C0
3AE0
3CE0
79E0
71C0
71C0
F3D0
E3A0
E1C0
ENDCHAR
STARTCHAR uni1E46
ENCODING 7750
SWIDTH 741 0
DWIDTH 14 0
BBX 14 16 0 -3
BITMAP
3E1C
1E08
1F08
1F08
3F98
2790
27D0
23D0
63F0
41E0
41E0
40E0
E0E0
0000
0300
0300
ENDCHAR
STARTCHAR uni1E47
ENCODING 7751
SWIDTH 635 0
DWIDTH 12 0
BBX 12 12 0 -3
BITMAP
79C0
3AE0
3CE0
79E0
71C0
71C0
F3D0
E3A0
E1C0
0000
0600
0600
ENDCHAR
STARTCHAR uni1E48
ENCODING 7752
SWIDTH 741 0
DWIDTH 14 0
BBX 14 15 0 -2
BITMAP
3E1C
1E08
1F08
1F08
3F98
2790
27D0
23D0
63F0
41E0
41E0
40E0
E0E0
0000
0FC0
ENDCHAR
STARTCHAR uni1E49
ENCODING 7753
SWIDTH 635 0
DWIDTH 12 0
BBX 12 11 0 -2
BITMAP
79C0
3AE0
3CE0
79E0
71C0
71C0
F3D0
E3A0
E1C0
0000
1F80
ENDCHAR
STARTCHAR uni1E4A
ENCODING 7754
SWIDTH 741 0
DWIDTH 14 0
BBX 14 16 0 -3
BITMAP
3E1C
1E08
1F08
1F08
3F98
2790
27D0
23D0
63F0
41E0
41E0
40E0
E0E0
0000
0300
0580
ENDCHAR
STARTCHAR uni1E4B
ENCODING 7755
SWIDTH 635 0
DWIDTH 12 0
BBX 12 12 0 -3
BITMAP
79C0
3AE0
3CE0
79E0
71C0
71C0
F3D0
E3A0
E1C0
0000
0600
0B00
ENDCHAR
STARTCHAR uni1E4C
ENCODING 7756
SWIDTH 761 0
DWIDTH 14 0
BBX 14 17 0 0
BITMAP
00C0
0180
0000
03B0
06E0
0000
07E0
1E38
3C38
783C
783C
F03C
F078
F078
70F0
71E0
1F80
ENDCHAR
STARTCHAR uni1E4D
ENCODING 7757
SWIDTH 562 0
DWIDTH 10 0
BBX 10 15 0 0
BITMAP
0300
0600
0000
0EC0
1B80
0000
0F80
39C0
71C0
71C0
F3C0
E380
E380
E700
7E00
ENDCHAR
STARTCHAR uni1E4E
ENCODING 7758
SWIDTH 761 0
DWIDTH 14 0
BBX 14 17 0 0
BITMAP
06C0
06C0
0000
03B0
06E0
0000
07E0
1E38
3C38
783C
783C
F03C
F078
F078
70F0
71E0
1F80
ENDCHAR
STARTCHAR uni1E4F
ENCODING 7759
SWIDTH 562 0
DWIDTH 10 0
BBX 10 15 0 0
BITMAP
0D80
0D80
0000
0EC0
1B80
0000
0F80
39C0
71C0
71C0
F3C0
E380
E380
E700
7E00
ENDCHAR
STARTCHAR uni1E50
ENCODING 7760
SWIDTH 761 0
DWIDTH 14 0
BBX 14 18 0 0
BITMAP
0300
0180
0000
0FC0
0000
07E0
1E38
3C38
783C
783C
783C
F03C
F078
F078
F078
70F0
71E0
1F80
ENDCHAR
STARTCHAR uni1E51
ENCODING 7761
SWIDTH 562 0
DWIDTH 10 0
BBX 10 14 0 0
BITMAP
0C00
0600
0000
1F80
0000
0F80
39C0
71C0
71C0
F3C0
E380
E380
E700
7E00
ENDCHAR
STARTCHAR uni1E52
ENCODING 7762
SWIDTH 761 0
DWIDTH 14 0
BBX 14 18 0 0
BITMAP
0180
0300
0000
0FC0
0000
07E0
1E38
3C38
783C
783C
783C
F03C
F078
F078
F078
70F0
71E0
1F80
ENDCHAR
STARTCHAR uni1E53
ENCODING 7763
SWIDTH 562 0
DWIDTH 10 0
BBX 10 14 0 0
BITMAP
0300
0600
0000
1F80
0000
0F80
39C0
71C0
71C0
F3C0
E380
E380
E700
7E00
ENDCHAR
STARTCHAR uni1E54
ENCODING 7764
SWIDTH 660 0
DWIDTH 12 0
BBX 13 16 -1 0
BITMAP
0180
0300
0000
3FF0
1E78
1E78
1E78
3C78
3C70
3CF0
3FC0
3C00
7800
7800
7800
FC00
ENDCHAR
STARTCHAR uni1E55
ENCODING 7765
SWIDTH 606 0
DWIDTH 12 0
BBX 12 16 -1 -4
BITMAP
0180
0300
0000
3CE0
1D70
1E70
3C70
38F0
38E0
78E0
7DC0
7780
7000
E000
E000
E000
ENDCHAR
STARTCHAR uni1E56
ENCODING 7766
SWIDTH 660 0
DWIDTH 12 0
BBX 13 16 -1 0
BITMAP
0300
0300
0000
3FF0
1E78
1E78
1E78
3C78
3C70
3CF0
3FC0
3C00
7800
7800
7800
FC00
ENDCHAR
STARTCHAR uni1E57
ENCODING 7767
SWIDTH 606 0
DWIDTH 12 0
BBX 12 16 -1 -4
BITMAP
0300
0300
0000
3CE0
1D70
1E70
3C70
38F0
38E0
78E0
7DC0
7780
7000
E000
E000
E000
ENDCHAR
STARTCHAR uni1E58
ENCODING 7768
SWIDTH 681 0
DWIDTH 13 0
BBX 13 16 0 0
BITMAP
0300
0300
0000
3FF0
1E78
1E78
1E78
3C70
3CF0
3FC0
3CE0
3CF0
78F0
78F0
78F0
FC78
ENDCHAR
STARTCHAR uni1E59
ENCODING 7769
SWIDTH 440 0
DWIDTH 8 0
BBX 9 12 0 0
BITMAP
0C00
0C00
0000
7B00
3F80
3B00
7800
7000
7000
F000
E000
E000
ENDCHAR
STARTCHAR uni1E5A
ENCODING 7770
SWIDTH 681 0
DWIDTH 13 0
BBX 13 16 0 -3
BITMAP
3FF0
1E78
1E78
1E78
3C70
3CF0
3FC0
3CE0
3CF0
78F0
78F0
78F0
FC78
0000
0600
0600
ENDCHAR
STARTCHAR uni1E5B
ENCODING 7771
SWIDTH 440 0
DWIDTH 8 0
BBX 9 12 0 -3
BITMAP
7B00
3F80
3B00
7800
7000
7000
F000
E000
E000
0000
3000
3000
ENDCHAR
STARTCHAR uni1E5C
ENCODING 7772
SWIDTH 681 0
DWIDTH 13 0
BBX 13 18 0 -3
BITMAP
0FC0
0000
3FF0
1E78
1E78
1E78
3C70
3CF0
3FC0
3CE0
3CF0
78F0
78F0
78F0
FC78
0000
0600
0600
ENDCHAR
STARTCHAR uni1E5D
ENCODING 7773
SWIDTH 440 0
DWIDTH 8 0
BBX 9 14 0 -3
BITMAP
3F00
0000
7B00
3F80
3B00
7800
7000
7000
F000
E000
E000
0000
3000
3000
ENDCHAR
STARTCHAR uni1E5E
ENCODING 7774
SWIDTH 681 0
DWIDTH 13 0
BBX 13 15 0 -2
BITMAP
3FF0
1E78
1E78
1E78
3C70
3CF0
3FC0
3CE0
3CF0
78F0
78F0
78F0
FC78
0000
1F80
ENDCHAR
STARTCHAR uni1E5F
ENCODING 7775
SWIDTH 440 0
DWIDTH 8 0
BBX 9 11 0 -2
BITMAP
7B00
3F80
3B00
7800
7000
7000
F000
E000
E000
0000
FC00
ENDCHAR
STARTCHAR uni1E60
ENCODING 7776
SWIDTH 551 0
DWIDTH 11 0
BBX 11 16 0 0
BITMAP
0600
0600
0000
07C0
1CE0
3860
3820
3C00
3F00
1F80
0FC0
03C0
81C0
C1C0
E380
7E00
ENDCHAR
STARTCHAR uni1E61
ENCODING 7777
SWIDTH 417 0
DWIDTH 8 0
BBX 7 12 0 0
BITMAP
18
18
00
1E
36
72
78
38
3C
9C
D8
F0
ENDCHAR
STARTCHAR uni1E62
ENCODING 7778
SWIDTH 551 0
DWIDTH 11 0
BBX 11 16 0 -3
BITMAP
07C0
1CE0
3860
3820
3C00
3F00
1F80
0FC0
03C0
81C0
C1C0
E380
7E00
0000
0C00
0C00
ENDCHAR
STARTCHAR uni1E63
ENCODING 7779
SWIDTH 417 0
DWIDTH 8 0
BBX 7 12 0 -3
BITMAP
1E
36
72
78
38
3C
9C
D8
F0
00
30
30
ENDCHAR
STARTCHAR uni1E64
ENCODING 7780
SWIDTH 551 0
DWIDTH 11 0
BBX 11 19 0 0
BITMAP
0300
0300
0000
0300
0600
0000
07C0
1CE0
3860
3820
3C00
3F00
1F80
0FC0
03C0
81C0
C1C0
E380
7E00
ENDCHAR
STARTCHAR uni1E65
ENCODING 7781
SWIDTH 417 0
DWIDTH 8 0
BBX 7 15 0 0
BITMAP
18
18
00
0C
18
00
1E
36
72
78
38
3C
9C
D8
F0
ENDCHAR
STARTCHAR uni1E66
ENCODING 7782
SWIDTH 551 0
DWIDTH 11 0
BBX 11 17 0 0
BITMAP
0600
0600
0000
0680
0300
0000
0FC0
1CE0
3860
3C20
3F00
1F80
0FC0
83C0
C1C0
E380
7F00
ENDCHAR
STARTCHAR uni1E67
ENCODING 7783
SWIDTH 417 0
DWIDTH 8 0
BBX 7 15 0 0
BITMAP
18
18
00
1A
0C
00
1E
36
72
78
38
3C
9C
D8
F0
ENDCHAR
STARTCHAR uni1E68
ENCODING 7784
SWIDTH 551 0
DWIDTH 11 0
BBX 11 19 0 -3
BITMAP
0600
0600
0000
07C0
1CE0
3860
3820
3C00
3F00
1F80
0FC0
03C0
81C0
C1C0
E380
7E00
0000
0C00
0C00
ENDCHAR
STARTCHAR uni1E69
ENCODING 7785
SWIDTH 417 0
DWIDTH 8 0
BBX 7 15 0 -3
BITMAP
18
18
00
1E
36
72
78
38
3C
9C
D8
F0
00
30
30
ENDCHAR
STARTCHAR uni1E6A
ENCODING 7786
SWIDTH 616 0
DWIDTH 12 0
BBX 12 16 1 0
BITMAP
0600
0600
0000
FFF0
CF30
8F10
0F00
1E00
1E00
1E00
1E00
1E00
3C00
3C00
3C00
7E00
ENDCHAR
STARTCHAR uni1E6B
ENCODING 7787
SWIDTH 359 0
DWIDTH 7 0
BBX 7 14 0 0
BITMAP
18
18
00
08
18
7E
38
38
78
70
70
F4
E8
70
ENDCHAR
STARTCHAR uni1E6C
ENCODING 7788
SWIDTH 616 0
DWIDTH 12 0
BBX 12 16 1 -3
BITMAP
FFF0
CF30
8F10
0F00
1E00
1E00
1E00
1E00
1E00
3C00
3C00
3C00
7E00
0000
0C00
0C00
ENDCHAR
STARTCHAR uni1E6D
ENCODING 7789
SWIDTH 359 0
DWIDTH 7 0
BBX 7 14 0 -3
BITMAP
08
18
7E
38
38
78
70
70
F4
E8
70
00
30
30
ENDCHAR
STARTCHAR uni1E6E
ENCODING 7790
SWIDTH 616 0
DWIDTH 12 0
BBX 12 15 1 -2
BITMAP
FFF0
CF30
8F10
0F00
1E00
1E00
1E00
1E00
1E00
3C00
3C00
3C00
7E00
0000
3F00
ENDCHAR
STARTCHAR uni1E6F
ENCODING 7791
SWIDTH 359 0
DWIDTH 7 0
BBX 7 13 0 -2
BITMAP
08
18
7E
38
38
78
70
70
F4
E8
70
00
FC
ENDCHAR
STARTCHAR uni1E70
ENCODING 7792
SWIDTH 616 0
DWIDTH 12 0
BBX 12 16 1 -3
BITMAP
FFF0
CF30
8F10
0F00
1E00
1E00
1E00
1E00
1E00
3C00
3C00
3C00
7E00
0000
0C00
1600
ENDCHAR
STARTCHAR uni1E71
ENCODING 7793
SWIDTH 359 0
DWIDTH 7 0
BBX 7 14 0 -3
BITMAP
08
18
7E
38
38
78
70
70
F4
E8
70
00
30
58
ENDCHAR
STARTCHAR uni1E72
ENCODING 7794
SWIDTH 776 0
DWIDTH 15 0
BBX 15 16 0 -3
BITMAP
7E7E
3C3C
3C3C
3C3C
7878
7878
7878
7878
F0F0
F0F0
F0F0
79E0
3FC0
0000
0D80
0D80
ENDCHAR
STARTCHAR uni1E73
ENCODING 7795
SWIDTH 634 0
DWIDTH 12 0
BBX 12 12 0 -3
BITMAP
78E0
38E0
79E0
71C0
71C0
F3C0
E790
EBA0
71C0
0000
1B00
1B00
ENDCHAR
STARTCHAR uni1E74
ENCODING 7796
SWIDTH 776 0
DWIDTH 15 0
BBX 15 16 0 -3
BITMAP
7E7E
3C3C
3C3C
3C3C
7878
7878
7878
7878
F0F0
F0F0
F0F0
79E0
3FC0
0000
0EC0
1B80
ENDCHAR
STARTCHAR uni1E75
ENCODING 7797
SWIDTH 634 0
DWIDTH 12 0
BBX 12 12 0 -3
BITMAP
78E0
38E0
79E0
71C0
71C0
F3C0
E790
EBA0
71C0
0000
1D80
3700
ENDCHAR
STARTCHAR uni1E76
ENCODING 7798
SWIDTH 776 0
DWIDTH 15 0
BBX 15 16 0 -3
BITMAP
7E7E
3C3C
3C3C
3C3C
7878
7878
7878
7878
F0F0
F0F0
F0F0
79E0
3FC0
0000
0300
0580
ENDCHAR
STARTCHAR uni1E77
ENCODING 7799
SWIDTH 634 0
DWIDTH 12 0
BBX 12 12 0 -3
BITMAP
78E0
38E0
79E0
71C0
71C0
F3C0
E790
EBA0
71C0
0000
0600
0B00
ENDCHAR
STARTCHAR uni1E78
ENCODING 7800
SWIDTH 776 0
DWIDTH 15 0
BBX 15 19 0 0
BITMAP
00C0
0180
0000
03B0
06E0
0000
7E7E
3C3C
3C3C
3C3C
7878
7878
7878
7878
F0F0
F0F0
F0F0
79E0
3FC0
ENDCHAR
STARTCHAR uni1E79
ENCODING 7801
SWIDTH 634 0
DWIDTH 12 0
BBX 12 15 0 0
BITMAP
0300
0600
0000
0EC0
1B80
0000
78E0
38E0
79E0
71C0
71C0
F3C0
E790
EBA0
71C0
ENDCHAR
STARTCHAR uni1E7A
ENCODING 7802
SWIDTH 776 0
DWIDTH 15 0
BBX 15 18 0 0
BITMAP
06C0
06C0
0000
07E0
0000
7E7E
3C3C
3C3C
3C3C
7878
7878
7878
7878
F0F0
F0F0
F0F0
79E0
3FC0
ENDCHAR
STARTCHAR uni1E7B
ENCODING 7803
SWIDTH 634 0
DWIDTH 12 0
BBX 12 14 0 0
BITMAP
1B00
1B00
0000
1F80
0000
78E0
38E0
79E0
71C0
71C0
F3C0
E790
EBA0
71C0
ENDCHAR
STARTCHAR uni1E7C
ENCODING 7804
SWIDTH 630 0
DWIDTH 12 0
BBX 13 16 0 0
BITMAP
0EC0
1B80
0000
FC78
7830
7820
7840
3C40
3C80
3C80
3D00
3D00
1E00
1E00
1C00
1C00
ENDCHAR
STARTCHAR uni1E7D
ENCODING 7805
SWIDTH 518 0
DWIDTH 10 0
BBX 10 12 0 0
BITMAP
1D80
3700
0000
7980
39C0
78C0
70C0
7180
F180
E300
E600
7800
ENDCHAR
STARTCHAR uni1E7E
ENCODING 7806
SWIDTH 630 0
DWIDTH 12 0
BBX 13 16 0 -3
BITMAP
FC78
7830
7820
7840
3C40
3C80
3C80
3D00
3D00
1E00
1E00
1C00
1C00
0000
0C00
0C00
ENDCHAR
STARTCHAR uni1E7F
ENCODING 7807
SWIDTH 518 0
DWIDTH 10 0
BBX 10 12 0 -3
BITMAP
7980
39C0
78C0
70C0
7180
F180
E300
E600
7800
0000
1800
1800
ENDCHAR
STARTCHAR Wgrave
ENCODING 7808
SWIDTH 920 0
DWIDTH 18 0
BBX 19 16 0 0
BITMAP
018000
00C000
000000
FCF1E0
78F0C0
78F080
78F100
78F100
797200
3D7A00
3E7C00
3E7C00
3C7800
3C7800
387800
387000
ENDCHAR
STARTCHAR wgrave
ENCODING 7809
SWIDTH 795 0
DWIDTH 15 0
BBX 15 12 0 0
BITMAP
0300
0180
0000
79CC
39CE
71C6
73C6
738C
E38C
E798
EFB0
71C0
ENDCHAR
STARTCHAR Wacute
ENCODING 7810
SWIDTH 920 0
DWIDTH 18 0
BBX 19 16 0 0
BITMAP
006000
00C000
000000
FCF1E0
78F0C0
78F080
78F100
78F100
797200
3D7A00
3E7C00
3E7C00
3C7800
3C7800
387800
387000
ENDCHAR
STARTCHAR wacute
ENCODING 7811
SWIDTH 795 0
DWIDTH 15 0
BBX 15 12 0 0
BITMAP
0180
0300
0000
79CC
39CE
71C6
73C6
738C
E38C
E798
EFB0
71C0
ENDCHAR
STARTCHAR Wdieresis
ENCODING 7812
SWIDTH 920 0
DWIDTH 18 0
BBX 19 16 0 0
BITMAP
036000
036000
000000
FCF1E0
78F0C0
78F080
78F100
78F100
797200
3D7A00
3E7C00
3E7C00
3C7800
3C7800
387800
387000
ENDCHAR
STARTCHAR wdieresis
ENCODING 7813
SWIDTH 795 0
DWIDTH 15 0
BBX 15 12 0 0
BITMAP
06C0
06C0
0000
79CC
39CE
71C6
73C6
738C
E38C
E798
EFB0
71C0
ENDCHAR
STARTCHAR uni1E86
ENCODING 7814
SWIDTH 920 0
DWIDTH 18 0
BBX 19 16 0 0
BITMAP
00C000
00C000
000000
FCF1E0
78F0C0
78F080
78F100
78F100
797200
3D7A00
3E7C00
3E7C00
3C7800
3C7800
387800
387000
ENDCHAR
STARTCHAR uni1E87
ENCODING 7815
SWIDTH 795 0
DWIDTH 15 0
BBX 15 12 0 0
BITMAP
0180
0180
0000
79CC
39CE
71C6
73C6
738C
E38C
E798
EFB0
71C0
ENDCHAR
STARTCHAR uni1E88
ENCODING 7816
SWIDTH 920 0
DWIDTH 18 0
BBX 19 16 0 -3
BITMAP
FCF1E0
78F0C0
78F080
78F100
78F100
797200
3D7A00
3E7C00
3E7C00
3C7800
3C7800
387800
387000
000000
018000
018000
ENDCHAR
STARTCHAR uni1E89
ENCODING 7817
SWIDTH 795 0
DWIDTH 15 0
BBX 15 12 0 -3
BITMAP
79CC
39CE
71C6
73C6
738C
E38C
E798
EFB0
71C0
0000
0600
0600
ENDCHAR
STARTCHAR uni1E8A
ENCODING 7818
SWIDTH 630 0
DWIDTH 12 0
BBX 12 16 0 0
BITMAP
0600
0600
0000
7EF0
3C60
3C40
1E80
1E80
0F00
0F00
0F00
1780
1780
23C0
63C0
F7E0
ENDCHAR
STARTCHAR uni1E8B
ENCODING 7819
SWIDTH 516 0
DWIDTH 10 0
BBX 9 12 0 0
BITMAP
0C00
0C00
0000
7980
3980
3A00
1C00
1C00
1C00
2E80
CF00
CE00
ENDCHAR
STARTCHAR uni1E8C
ENCODING 7820
SWIDTH 630 0
DWIDTH 12 0
BBX 12 16 0 0
BITMAP
1B00
1B00
0000
7EF0
3C60
3C40
1E80
1E80
0F00
0F00
0F00
1780
1780
23C0
63C0
F7E0
ENDCHAR
STARTCHAR uni1E8D
ENCODING 7821
SWIDTH 516 0
DWIDTH 10 0
BBX 9 12 0 0
BITMAP
3600
3600
0000
7980
3980
3A00
1C00
1C00
1C00
2E80
CF00
CE00
ENDCHAR
STARTCHAR uni1E8E
ENCODING 7822
SWIDTH 622 0
DWIDTH 12 0
BBX 12 16 1 0
BITMAP
0C00
0C00
0000
FCF0
7860
7840
7880
7900
3E00
3E00
3C00
3C00
7800
7800
7800
FC00
ENDCHAR
STARTCHAR uni1E8F
ENCODING 7823
SWIDTH 489 0
DWIDTH 9 0
BBX 11 16 -2 -4
BITMAP
0600
0600
0000
3C60
1C60
1CC0
1CC0
1C80
1F00
0F00
0E00
0C00
0C00
0800
D000
E000
ENDCHAR
STARTCHAR uni1E90
ENCODING 7824
SWIDTH 618 0
DWIDTH 12 0
BBX 12 16 0 0
BITMAP
0600
0B00
0000
3FF0
71F0
63E0
43C0
07C0
0F80
0F00
1F00
3E00
3C20
7C60
F8E0
FFC0
ENDCHAR
STARTCHAR uni1E91
ENCODING 7825
SWIDTH 466 0
DWIDTH 9 0
BBX 9 12 0 0
BITMAP
0C00
1600
0000
3F80
7F00
4600
0C00
1800
3100
7B00
FE00
9C00
ENDCHAR
STARTCHAR uni1E92
ENCODING 7826
SWIDTH 618 0
DWIDTH 12 0
BBX 12 16 0 -3
BITMAP
3FF0
71F0
63E0
43C0
07C0
0F80
0F00
1F00
3E00
3C20
7C60
F8E0
FFC0
0000
0C00
0C00
ENDCHAR
STARTCHAR uni1E93
ENCODING 7827
SWIDTH 466 0
DWIDTH 9 0
BBX 9 12 0 -3
BITMAP
3F80
7F00
4600
0C00
1800
3100
7B00
FE00
9C00
0000
1800
1800
ENDCHAR
STARTCHAR uni1E94
ENCODING 7828
SWIDTH 618 0
DWIDTH 12 0
BBX 12 15 0 -2
BITMAP
3FF0
71F0
63E0
43C0
07C0
0F80
0F00
1F00
3E00
3C20
7C60
F8E0
FFC0
0000
3F00
ENDCHAR
STARTCHAR uni1E95
ENCODING 7829
SWIDTH 466 0
DWIDTH 9 0
BBX 9 11 0 -2
BITMAP
3F80
7F00
4600
0C00
1800
3100
7B00
FE00
9C00
0000
7E00
ENDCHAR
STARTCHAR uni1E96
ENCODING 7830
SWIDTH 629 0
DWIDTH 12 0
BBX 12 16 0 -2
BITMAP
3C00
1C00
1C00
3C00
3800
39C0
3AE0
74E0
79E0
71C0
71C0
F3D0
E3A0
E1C0
0000
1F80
ENDCHAR
STARTCHAR uni1E97
ENCODING 7831
SWIDTH 359 0
DWIDTH 7 0
BBX 7 14 0 0
BITMAP
6C
6C
00
08
18
7E
38
38
78
70
70
F4
E8
70
ENDCHAR
STARTCHAR uni1E98
ENCODING 7832
SWIDTH 795 0
DWIDTH 15 0
BBX 15 13 0 0
BITMAP
0180
0240
0180
0000
79CC
39CE
71C6
73C6
738C
E38C
E798
EFB0
71C0
ENDCHAR
STARTCHAR uni1E99
ENCODING 7833
SWIDTH 489 0
DWIDTH 9 0
BBX 11 17 -2 -4
BITMAP
0600
0900
0600
0000
3C60
1C60
1CC0
1CC0
1C80
1F00
0F00
0E00
0C00
0C00
0800
D000
E000
ENDCHAR
STARTCHAR uni1EA0
ENCODING 7840
SWIDTH 634 0
DWIDTH 12 0
BBX 13 16 -1 -3
BITMAP
01C0
01C0
03C0
03C0
05E0
05E0
09E0
09E0
1FF0
10F0
20F0
60F0
F1F8
0000
0300
0300
ENDCHAR
STARTCHAR uni1EA1
ENCODING 7841
SWIDTH 596 0
DWIDTH 11 0
BBX 12 12 0 -3
BITMAP
0EE0
39E0
70E0
71C0
F1C0
E3C0
E790
EBA0
71C0
0000
0600
0600
ENDCHAR
STARTCHAR uni1EA4
ENCODING 7844
SWIDTH 634 0
DWIDTH 13 0
BBX 13 17 -1 0
BITMAP
00C0
0180
0000
00C0
0160
0000
01C0
03C0
03C0
05E0
05E0
09E0
1FE0
10F0
20F0
60F0
F1F8
ENDCHAR
STARTCHAR uni1EA5
ENCODING 7845
SWIDTH 596 0
DWIDTH 11 0
BBX 12 15 0 0
BITMAP
0180
0300
0000
0180
02C0
0000
0EE0
39E0
70E0
71C0
F1C0
E3C0
E790
EBA0
71C0
ENDCHAR
STARTCHAR uni1EA6
ENCODING 7846
SWIDTH 634 0
DWIDTH 13 0
BBX 13 17 -1 0
BITMAP
0300
0180
0000
00C0
0160
0000
01C0
03C0
03C0
05E0
05E0
09E0
1FE0
10F0
20F0
60F0
F1F8
ENDCHAR
STARTCHAR uni1EA7
ENCODING 7847
SWIDTH 596 0
DWIDTH 11 0
BBX 12 15 0 0
BITMAP
0600
0300
0000
0180
02C0
0000
0EE0
39E0
70E0
71C0
F1C0
E3C0
E790
EBA0
71C0
ENDCHAR
STARTCHAR uni1EAA
ENCODING 7850
SWIDTH 634 0
DWIDTH 13 0
BBX 13 17 -1 0
BITMAP
03B0
06E0
0000
00C0
0160
0000
01C0
03C0
03C0
05E0
05E0
09E0
1FE0
10F0
20F0
60F0
F1F8
ENDCHAR
STARTCHAR uni1EAB
ENCODING 7851
SWIDTH 596 0
DWIDTH 11 0
BBX 12 15 0 0
BITMAP
0760
0DC0
0000
0180
02C0
0000
0EE0
39E0
70E0
71C0
F1C0
E3C0
E790
EBA0
71C0
ENDCHAR
STARTCHAR uni1EAC
ENCODING 7852
SWIDTH 634 0
DWIDTH 12 0
BBX 13 19 -1 -3
BITMAP
0180
02C0
0000
01C0
01C0
03C0
03C0
05E0
05E0
09E0
09E0
1FF0
10F0
20F0
60F0
F1F8
0000
0300
0300
ENDCHAR
STARTCHAR uni1EAD
ENCODING 7853
SWIDTH 596 0
DWIDTH 11 0
BBX 12 15 0 -3
BITMAP
0600
0B00
0000
0EE0
39E0
70E0
71C0
F1C0
E3C0
E790
EBA0
71C0
0000
0600
0600
ENDCHAR
STARTCHAR uni1EAE
ENCODING 7854
SWIDTH 634 0
DWIDTH 12 0
BBX 13 19 -1 0
BITMAP
0180
0300
0000
0660
03C0
0000
01C0
01C0
03C0
03C0
05E0
05E0
09E0
09E0
1FF0
10F0
20F0
60F0
F1F8
ENDCHAR
STARTCHAR uni1EAF
ENCODING 7855
SWIDTH 596 0
DWIDTH 11 0
BBX 12 15 0 0
BITMAP
0300
0600
0000
1980
0F00
0000
0EE0
39E0
70E0
71C0
F1C0
E3C0
E790
EBA0
71C0
ENDCHAR
STARTCHAR uni1EB0
ENCODING 7856
SWIDTH 634 0
DWIDTH 12 0
BBX 13 19 -1 0
BITMAP
0300
0180
0000
0660
03C0
0000
01C0
01C0
03C0
03C0
05E0
05E0
09E0
09E0
1FF0
10F0
20F0
60F0
F1F8
ENDCHAR
STARTCHAR uni1EB1
ENCODING 7857
SWIDTH 596 0
DWIDTH 11 0
BBX 12 15 0 0
BITMAP
0600
0300
0000
1980
0F00
0000
0EE0
39E0
70E0
71C0
F1C0
E3C0
E790
EBA0
71C0
ENDCHAR
STARTCHAR uni1EB4
ENCODING 7860
SWIDTH 634 0
DWIDTH 12 0
BBX 13 19 -1 0
BITMAP
0760
0DC0
0000
0660
03C0
0000
01C0
01C0
03C0
03C0
05E0
05E0
09E0
09E0
1FF0
10F0
20F0
60F0
F1F8
ENDCHAR
STARTCHAR uni1EB5
ENCODING 7861
SWIDTH 596 0
DWIDTH 11 0
BBX 12 15 0 0
BITMAP
0EC0
1B80
0000
1980
0F00
0000
0EE0
39E0
70E0
71C0
F1C0
E3C0
E790
EBA0
71C0
ENDCHAR
STARTCHAR uni1EB6
ENCODING 7862
SWIDTH 634 0
DWIDTH 12 0
BBX 13 19 -1 -3
BITMAP
0660
03C0
0000
01C0
01C0
03C0
03C0
05E0
05E0
09E0
09E0
1FF0
10F0
20F0
60F0
F1F8
0000
0300
0300
ENDCHAR
STARTCHAR uni1EB7
ENCODING 7863
SWIDTH 596 0
DWIDTH 11 0
BBX 12 15 0 -3
BITMAP
1980
0F00
0000
0EE0
39E0
70E0
71C0
F1C0
E3C0
E790
EBA0
71C0
0000
0600
0600
ENDCHAR
STARTCHAR uni1EB8
ENCODING 7864
SWIDTH 622 0
DWIDTH 12 0
BBX 12 16 0 -3
BITMAP
3FF0
1E30
1E20
1E00
3C20
3C60
3FC0
3C40
3C00
7820
7860
78C0
FFC0
0000
0C00
0C00
ENDCHAR
STARTCHAR uni1EB9
ENCODING 7865
SWIDTH 476 0
DWIDTH 9 0
BBX 9 12 0 -3
BITMAP
0F00
3B80
7380
7700
FC00
E000
E100
E200
7C00
0000
1800
1800
ENDCHAR
STARTCHAR uni1EBC
ENCODING 7868
SWIDTH 622 0
DWIDTH 12 0
BBX 12 16 0 0
BITMAP
0EC0
1B80
0000
3FF0
1E30
1E20
1E00
3C20
3C60
3FC0
3C40
3C00
7820
7860
78C0
FFC0
ENDCHAR
STARTCHAR uni1EBD
ENCODING 7869
SWIDTH 476 0
DWIDTH 9 0
BBX 9 12 0 0
BITMAP
1D80
3700
0000
0F00
3B80
7380
7700
FC00
E000
E100
E200
7C00
ENDCHAR
STARTCHAR uni1EBE
ENCODING 7870
SWIDTH 622 0
DWIDTH 12 0
BBX 12 17 0 0
BITMAP
0180
0300
0000
0180
02C0
0000
3FF0
1E30
1E10
1E00
3C40
3FC0
3C40
7800
7820
7860
FFE0
ENDCHAR
STARTCHAR uni1EBF
ENCODING 7871
SWIDTH 476 0
DWIDTH 9 0
BBX 9 15 0 0
BITMAP
0600
0C00
0000
0600
0B00
0000
0F00
3B80
7380
7700
FC00
E000
E100
E200
7C00
ENDCHAR
STARTCHAR uni1EC0
ENCODING 7872
SWIDTH 622 0
DWIDTH 12 0
BBX 12 17 0 0
BITMAP
0600
0300
0000
0180
02C0
0000
3FF0
1E30
1E10
1E00
3C40
3FC0
3C40
7800
7820
7860
FFE0
ENDCHAR
STARTCHAR uni1EC1
ENCODING 7873
SWIDTH 476 0
DWIDTH 9 0
BBX 9 15 0 0
BITMAP
0C00
0600
0000
0600
0B00
0000
0F00
3B80
7380
7700
FC00
E000
E100
E200
7C00
ENDCHAR
STARTCHAR uni1EC4
ENCODING 7876
SWIDTH 622 0
DWIDTH 12 0
BBX 12 17 0 0
BITMAP
0760
0DC0
0000
0180
02C0
0000
3FF0
1E30
1E10
1E00
3C40
3FC0
3C40
7800
7820
7860
FFE0
ENDCHAR
STARTCHAR uni1EC5
ENCODING 7877
SWIDTH 476 0
DWIDTH 9 0
BBX 9 15 0 0
BITMAP
1D80
3700
0000
0600
0B00
0000
0F00
3B80
7380
7700
FC00
E000
E100
E200
7C00
ENDCHAR
STARTCHAR uni1EC6
ENCODING 7878
SWIDTH 622 0
DWIDTH 12 0
BBX 12 19 0 -3
BITMAP
0600
0B00
0000
3FF0
1E30
1E20
1E00
3C20
3C60
3FC0
3C40
3C00
7820
7860
78C0
FFC0
0000
0C00
0C00
ENDCHAR
STARTCHAR uni1EC7
ENCODING 7879
SWIDTH 476 0
DWIDTH 9 0
BBX 9 15 0 -3
BITMAP
0C00
1600
0000
0F00
3B80
7380
7700
FC00
E000
E100
E200
7C00
0000
1800
1800
ENDCHAR
STARTCHAR uni1ECA
ENCODING 7882
SWIDTH 386 0
DWIDTH 7 0
BBX 8 16 -1 -3
BITMAP
3F
1E
1E
1E
3C
3C
3C
3C
3C
78
78
78
FC
00
30
30
ENDCHAR
STARTCHAR uni1ECB
ENCODING 7883
SWIDTH 339 0
DWIDTH 6 0
BBX 6 16 0 -3
BITMAP
18
3C
18
00
78
38
78
70
70
F0
E4
E8
70
00
30
30
ENDCHAR
STARTCHAR uni1ECC
ENCODING 7884
SWIDTH 761 0
DWIDTH 14 0
BBX 14 16 0 -3
BITMAP
07E0
1E38
3C38
783C
783C
783C
F03C
F078
F078
F078
70F0
71E0
1F80
0000
0300
0300
ENDCHAR
STARTCHAR uni1ECD
ENCODING 7885
SWIDTH 562 0
DWIDTH 10 0
BBX 10 12 0 -3
BITMAP
0F80
39C0
71C0
71C0
F3C0
E380
E380
E700
7E00
0000
1800
1800
ENDCHAR
STARTCHAR uni1ED0
ENCODING 7888
SWIDTH 761 0
DWIDTH 14 0
BBX 14 17 0 0
BITMAP
00C0
0180
0000
00C0
0160
0000
07E0
1E38
3C38
783C
783C
F03C
F078
F078
70F0
71E0
1F80
ENDCHAR
STARTCHAR uni1ED1
ENCODING 7889
SWIDTH 562 0
DWIDTH 10 0
BBX 10 15 0 0
BITMAP
0300
0600
0000
0600
0B00
0000
0F80
39C0
71C0
71C0
F3C0
E380
E380
E700
7E00
ENDCHAR
STARTCHAR uni1ED2
ENCODING 7890
SWIDTH 761 0
DWIDTH 14 0
BBX 14 17 0 0
BITMAP
0300
0180
0000
00C0
0160
0000
07E0
1E38
3C38
783C
783C
F03C
F078
F078
70F0
71E0
1F80
ENDCHAR
STARTCHAR uni1ED3
ENCODING 7891
SWIDTH 562 0
DWIDTH 10 0
BBX 10 15 0 0
BITMAP
0C00
0600
0000
0600
0B00
0000
0F80
39C0
71C0
71C0
F3C0
E380
E380
E700
7E00
ENDCHAR
STARTCHAR uni1ED6
ENCODING 7894
SWIDTH 761 0
DWIDTH 14 0
BBX 14 17 0 0
BITMAP
03B0
06E0
0000
00C0
0160
0000
07E0
1E38
3C38
783C
783C
F03C
F078
F078
70F0
71E0
1F80
ENDCHAR
STARTCHAR uni1ED7
ENCODING 7895
SWIDTH 562 0
DWIDTH 10 0
BBX 10 15 0 0
BITMAP
0EC0
1B80
0000
0600
0B00
0000
0F80
39C0
71C0
71C0
F3C0
E380
E380
E700
7E00
ENDCHAR
STARTCHAR uni1ED8
ENCODING 7896
SWIDTH 761 0
DWIDTH 14 0
BBX 14 19 0 -3
BITMAP
0300
0580
0000
07E0
1E38
3C38
783C
783C
783C
F03C
F078
F078
F078
70F0
71E0
1F80
0000
0300
0300
ENDCHAR
STARTCHAR uni1ED9
ENCODING 7897
SWIDTH 562 0
DWIDTH 10 0
BBX 10 15 0 -3
BITMAP
0C00
1600
0000
0F80
39C0
71C0
71C0
F3C0
E380
E380
E700
7E00
0000
1800
1800
ENDCHAR
STARTCHAR uni1EDA
ENCODING 7898
SWIDTH 761 0
DWIDTH 14 0
BBX 18 16 0 0
BITMAP
006000
00C000
000000
07E180
1E39C0
3C39C0
783D80
783F00
783E00
F03C00
F07800
F07800
F07800
70F000
71E000
1F8000
ENDCHAR
STARTCHAR uni1EDB
ENCODING 7899
SWIDTH 562 0
DWIDTH 10 0
BBX 14 12 0 0
BITMAP
00C0
0180
0000
0F98
39DC
71DC
71D8
F3F0
E3E0
E380
E700
7E00
ENDCHAR
STARTCHAR uni1EDC
ENCODING 7900
SWIDTH 761 0
DWIDTH 14 0
BBX 18 16 0 0
BITMAP
00C000
006000
000000
07E180
1E39C0
3C39C0
783D80
783F00
783E00
F03C00
F07800
F07800
F07800
70F000
71E000
1F8000
ENDCHAR
STARTCHAR uni1EDD
ENCODING 7901
SWIDTH 562 0
DWIDTH 10 0
BBX 14 12 0 0
BITMAP
0300
0180
0000
0F98
39DC
71DC
71D8
F3F0
E3E0
E380
E700
7E00
ENDCHAR
STARTCHAR uni1EE0
ENCODING 7904
SWIDTH 761 0
DWIDTH 14 0
BBX 18 16 0 0
BITMAP
01D800
037000
000000
07E180
1E39C0
3C39C0
783D80
783F00
783E00
F03C00
F07800
F07800
F07800
70F000
71E000
1F8000
ENDCHAR
STARTCHAR uni1EE1
ENCODING 7905
SWIDTH 562 0
DWIDTH 10 0
BBX 14 12 0 0
BITMAP
0760
0DC0
0000
0F98
39DC
71DC
71D8
F3F0
E3E0
E380
E700
7E00
ENDCHAR
STARTCHAR uni1EE2
ENCODING 7906
SWIDTH 761 0
DWIDTH 14 0
BBX 18 16 0 -3
BITMAP
07E180
1E39C0
3C39C0
783D80
783F00
783E00
F03C00
F07800
F07800
F07800
70F000
71E000
1F8000
000000
030000
030000
ENDCHAR
STARTCHAR uni1EE3
ENCODING 7907
SWIDTH 562 0
DWIDTH 10 0
BBX 14 12 0 -3
BITMAP
0F98
39DC
71DC
71D8
F3F0
E3E0
E380
E700
7E00
0000
0C00
0C00
ENDCHAR
STARTCHAR uni1EE4
ENCODING 7908
SWIDTH 776 0
DWIDTH 15 0
BBX 15 16 0 -3
BITMAP
7E7E
3C3C
3C3C
3C3C
7878
7878
7878
7878
F0F0
F0F0
F0F0
79E0
3FC0
0000
0300
0300
ENDCHAR
STARTCHAR uni1EE5
ENCODING 7909
SWIDTH 634 0
DWIDTH 12 0
BBX 12 12 0 -3
BITMAP
78E0
38E0
79E0
71C0
71C0
F3C0
E790
EBA0
71C0
0000
0600
0600
ENDCHAR
STARTCHAR uni1EE8
ENCODING 7912
SWIDTH 776 0
DWIDTH 15 0
BBX 19 16 0 0
BITMAP
003000
006000
000000
7E7EC0
3C3CE0
3C3CE0
3C3CC0
787980
787B00
787800
787800
F0F000
F0F000
F0F000
79E000
3FC000
ENDCHAR
STARTCHAR uni1EE9
ENCODING 7913
SWIDTH 634 0
DWIDTH 12 0
BBX 16 12 0 0
BITMAP
00C0
0180
0000
78E6
38E7
79E7
71C6
71CC
F3D8
E790
EBA0
71C0
ENDCHAR
STARTCHAR uni1EEA
ENCODING 7914
SWIDTH 776 0
DWIDTH 15 0
BBX 19 16 0 0
BITMAP
00C000
006000
000000
7E7EC0
3C3CE0
3C3CE0
3C3CC0
787980
787B00
787800
787800
F0F000
F0F000
F0F000
79E000
3FC000
ENDCHAR
STARTCHAR uni1EEB
ENCODING 7915
SWIDTH 634 0
DWIDTH 12 0
BBX 16 12 0 0
BITMAP
0300
0180
0000
78E6
38E7
79E7
71C6
71CC
F3D8
E790
EBA0
71C0
ENDCHAR
STARTCHAR uni1EEE
ENCODING 7918
SWIDTH 776 0
DWIDTH 15 0
BBX 19 16 0 0
BITMAP
00EC00
01B800
000000
7E7EC0
3C3CE0
3C3CE0
3C3CC0
787980
787B00
787800
787800
F0F000
F0F000
F0F000
79E000
3FC000
ENDCHAR
STARTCHAR uni1EEF
ENCODING 7919
SWIDTH 634 0
DWIDTH 12 0
BBX 16 12 0 0
BITMAP
03B0
06E0
0000
78E6
38E7
79E7
71C6
71CC
F3D8
E790
EBA0
71C0
ENDCHAR
STARTCHAR uni1EF0
ENCODING 7920
SWIDTH 776 0
DWIDTH 15 0
BBX 19 16 0 -3
BITMAP
7E7EC0
3C3CE0
3C3CE0
3C3CC0
787980
787B00
787800
787800
F0F000
F0F000
F0F000
79E000
3FC000
000000
030000
030000
ENDCHAR
STARTCHAR uni1EF1
ENCODING 7921
SWIDTH 634 0
DWIDTH 12 0
BBX 16 12 0 -3
BITMAP
78E6
38E7
79E7
71C6
71CC
F3D8
E790
EBA0
71C0
0000
0600
0600
ENDCHAR
STARTCHAR Ygrave
ENCODING 7922
SWIDTH 622 0
DWIDTH 12 0
BBX 12 16 1 0
BITMAP
0C00
0600
0000
FCF0
7860
7840
7880
7900
3E00
3E00
3C00
3C00
7800
7800
7800
FC00
ENDCHAR
STARTCHAR ygrave
ENCODING 7923
SWIDTH 489 0
DWIDTH 9 0
BBX 11 16 -2 -4
BITMAP
0C00
0600
0000
3C60
1C60
1CC0
1CC0
1C80
1F00
0F00
0E00
0C00
0C00
0800
D000
E000
ENDCHAR
STARTCHAR uni1EF4
ENCODING 7924
SWIDTH 622 0
DWIDTH 12 0
BBX 12 16 1 -3
BITMAP
FCF0
7860
7840
7880
7900
3E00
3E00
3C00
3C00
7800
7800
7800
FC00
0000
1800
1800
ENDCHAR
STARTCHAR uni1EF5
ENCODING 7925
SWIDTH 489 0
DWIDTH 9 0
BBX 11 16 -2 -7
BITMAP
3C60
1C60
1CC0
1CC0
1C80
1F00
0F00
0E00
0C00
0C00
0800
D000
E000
0000
1800
1800
ENDCHAR
STARTCHAR uni1EF8
ENCODING 7928
SWIDTH 622 0
DWIDTH 12 0
BBX 12 16 1 0
BITMAP
1D80
3700
0000
FCF0
7860
7840
7880
7900
3E00
3E00
3C00
3C00
7800
7800
7800
FC00
ENDCHAR
STARTCHAR uni1EF9
ENCODING 7929
SWIDTH 489 0
DWIDTH 9 0
BBX 11 16 -2 -4
BITMAP
0EC0
1B80
0000
3C60
1C60
1CC0
1CC0
1C80
1F00
0F00
0E00
0C00
0C00
0800
D000
E000
ENDCHAR
STARTCHAR uni2000
ENCODING 8192
SWIDTH 500 0
DWIDTH 9 0
BBX 1 1 0 0
BITMAP
00
ENDCHAR
STARTCHAR uni2001
ENCODING 8193
SWIDTH 1000 0
DWIDTH 19 0
BBX 1 1 0 0
BITMAP
00
ENDCHAR
STARTCHAR uni2002
ENCODING 8194
SWIDTH 500 0
DWIDTH 9 0
BBX 1 1 0 0
BITMAP
00
ENDCHAR
STARTCHAR uni2003
ENCODING 8195
SWIDTH 1000 0
DWIDTH 19 0
BBX 1 1 0 0
BITMAP
00
ENDCHAR
STARTCHAR uni2004
ENCODING 8196
SWIDTH 333 0
DWIDTH 6 0
BBX 1 1 0 0
BITMAP
00
ENDCHAR
STARTCHAR uni2005
ENCODING 8197
SWIDTH 250 0
DWIDTH 5 0
BBX 1 1 0 0
BITMAP
00
ENDCHAR
STARTCHAR uni2006
ENCODING 8198
SWIDTH 167 0
DWIDTH 3 0
BBX 1 1 0 0
BITMAP
00
ENDCHAR
STARTCHAR uni2007
ENCODING 8199
SWIDTH 560 0
DWIDTH 11 0
BBX 1 1 0 0
BITMAP
00
ENDCHAR
STARTCHAR uni2008
ENCODING 8200
SWIDTH 280 0
DWIDTH 5 0
BBX 1 1 0 0
BITMAP
00
ENDCHAR
STARTCHAR uni2009
ENCODING 8201
SWIDTH 200 0
DWIDTH 4 0
BBX 1 1 0 0
BITMAP
00
ENDCHAR
STARTCHAR uni200A
ENCODING 8202
SWIDTH 100 0
DWIDTH 2 0
BBX 1 1 0 0
BITMAP
00
ENDCHAR
STARTCHAR uni200B
ENCODING 8203
SWIDTH 0 0
DWIDTH 0 0
BBX 1 1 0 0
BITMAP
00
ENDCHAR
STARTCHAR uni2010
ENCODING 8208
SWIDTH 392 0
DWIDTH 7 0
BBX 5 2 1 4
BITMAP
F8
F8
ENDCHAR
STARTCHAR uni2011
ENCODING 8209
SWIDTH 392 0
DWIDTH 7 0
BBX 5 2 1 4
BITMAP
F8
F8
ENDCHAR
STARTCHAR figuredash
ENCODING 8210
SWIDTH 500 0
DWIDTH 9 0
BBX 9 2 0 4
BITMAP
FF80
FF80
ENDCHAR
STARTCHAR endash
ENCODING 8211
SWIDTH 500 0
DWIDTH 9 0
BBX 9 2 0 4
BITMAP
FF80
FF80
ENDCHAR
STARTCHAR emdash
ENCODING 8212
SWIDTH 1000 0
DWIDTH 19 0
BBX 19 2 0 4
BITMAP
FFFFE0
FFFFE0
ENDCHAR
STARTCHAR afii00208
ENCODING 8213
SWIDTH 1000 0
DWIDTH 19 0
BBX 19 2 0 4
BITMAP
FFFFE0
FFFFE0
ENDCHAR
STARTCHAR quoteleft
ENCODING 8216
SWIDTH 246 0
DWIDTH 5 0
BBX 5 6 1 7
BITMAP
18
30
60
E0
E0
60
ENDCHAR
STARTCHAR quoteright
ENCODING 8217
SWIDTH 246 0
DWIDTH 5 0
BBX 5 6 0 7
BITMAP
30
38
38
30
60
C0
ENDCHAR
STARTCHAR quotesinglbase
ENCODING 8218
SWIDTH 246 0
DWIDTH 4 0
BBX 5 6 -2 -3
BITMAP
30
38
38
30
60
C0
ENDCHAR
STARTCHAR quotereversed
ENCODING 8219
SWIDTH 246 0
DWIDTH 5 0
BBX 5 6 0 7
BITMAP
60
E0
E0
60
30
18
ENDCHAR
STARTCHAR quotedblleft
ENCODING 8220
SWIDTH 455 0
DWIDTH 8 0
BBX 9 6 0 7
BITMAP
1980
3300
6600
EE00
EE00
6600
ENDCHAR
STARTCHAR quotedblright
ENCODING 8221
SWIDTH 455 0
DWIDTH 8 0
BBX 9 6 0 7
BITMAP
3300
3B80
3B80
3300
6600
CC00
ENDCHAR
STARTCHAR quotedblbase
ENCODING 8222
SWIDTH 455 0
DWIDTH 8 0
BBX 9 6 -2 -3
BITMAP
3300
3B80
3B80
3300
6600
CC00
ENDCHAR
STARTCHAR uni201F
ENCODING 8223
SWIDTH 455 0
DWIDTH 8 0
BBX 9 6 0 7
BITMAP
6600
EE00
EE00
6600
3300
1980
ENDCHAR
STARTCHAR dagger
ENCODING 8224
SWIDTH 514 0
DWIDTH 10 0
BBX 8 16 1 -3
BITMAP
0C
0C
0C
08
FF
DB
18
18
18
30
30
30
30
20
20
20
ENDCHAR
STARTCHAR daggerdbl
ENCODING 8225
SWIDTH 490 0
DWIDTH 9 0
BBX 8 16 1 -3
BITMAP
0C
0C
0C
08
7F
6B
18
18
18
10
FE
D6
10
30
30
30
ENDCHAR
STARTCHAR bullet
ENCODING 8226
SWIDTH 465 0
DWIDTH 11 0
BBX 7 7 2 3
BITMAP
38
7C
FE
FE
FE
7C
38
ENDCHAR
STARTCHAR ellipsis
ENCODING 8230
SWIDTH 1000 0
DWIDTH 18 0
BBX 16 3 0 0
BITMAP
6186
F3CF
6186
ENDCHAR
STARTCHAR perthousand
ENCODING 8240
SWIDTH 1297 0
DWIDTH 25 0
BBX 23 13 1 0
BITMAP
3C1000
67F000
C62000
C64000
C6C000
CC8000
793C3C
026666
06C6C6
04C6C6
08C6C6
18CCCC
107878
ENDCHAR
STARTCHAR guilsinglleft
ENCODING 8249
SWIDTH 360 0
DWIDTH 7 0
BBX 5 7 1 1
BITMAP
08
10
30
60
C0
60
20
ENDCHAR
STARTCHAR guilsinglright
ENCODING 8250
SWIDTH 360 0
DWIDTH 7 0
BBX 5 7 1 1
BITMAP
20
30
18
30
60
40
80
ENDCHAR
STARTCHAR fraction
ENCODING 8260
SWIDTH 100 0
DWIDTH 2 0
BBX 9 13 -4 0
BITMAP
0080
0180
0100
0200
0600
0400
0800
1000
3000
2000
4000
C000
8000
ENDCHAR
STARTCHAR oneinferior
ENCODING 8321
SWIDTH 402 0
DWIDTH 7 0
BBX 6 8 0 -4
BITMAP
18
38
18
18
30
30
30
FC
ENDCHAR
STARTCHAR twoinferior
ENCODING 8322
SWIDTH 402 0
DWIDTH 7 0
BBX 7 8 0 -4
BITMAP
3C
66
46
0C
38
60
C4
FC
ENDCHAR
STARTCHAR threeinferior
ENCODING 8323
SWIDTH 402 0
DWIDTH 7 0
BBX 7 8 0 -4
BITMAP
3C
66
0C
38
0C
0C
D8
70
ENDCHAR
STARTCHAR uni20A5
ENCODING 8357
SWIDTH 914 0
DWIDTH 17 0
BBX 18 13 0 -2
BITMAP
003000
003000
79F700
3AEB80
3CF380
79E780
71C700
71C700
F3CF40
E3CE80
E38700
018000
018000
ENDCHAR
STARTCHAR uni20A6
ENCODING 8358
SWIDTH 741 0
DWIDTH 14 0
BBX 14 13 0 0
BITMAP
3E1C
1E08
1F08
3FF8
3FF8
2790
27D0
3FF0
7FF0
41E0
41E0
40E0
E0E0
ENDCHAR
STARTCHAR uni20A9
ENCODING 8361
SWIDTH 920 0
DWIDTH 18 0
BBX 19 13 0 0
BITMAP
FCF1E0
78F0C0
78F080
7FFF00
7FFF00
797200
3D7A00
3FFE00
3FFE00
3C7800
3C7800
387800
387000
ENDCHAR
STARTCHAR Euro
ENCODING 8364
SWIDTH 672 0
DWIDTH 13 0
BBX 15 13 -2 0
BITMAP
01FC
078E
0F04
FFC4
FFC0
1E00
3C00
FFC0
FFC0
3C08
1C18
1C30
07C0
ENDCHAR
STARTCHAR uni20AD
ENCODING 8365
SWIDTH 688 0
DWIDTH 14 0
BBX 14 13 0 0
BITMAP
3F3C
1E18
1E30
1E60
3CC0
3D80
FFFC
3DC0
3DE0
79E0
78F0
78F8
FC7C
ENDCHAR
STARTCHAR uni2103
ENCODING 8451
SWIDTH 1028 0
DWIDTH 20 0
BBX 19 13 1 0
BITMAP
781FC0
CC78E0
84F040
85E040
CDE000
79E000
03C000
03C000
03C000
03C080
01C180
01C300
007C00
ENDCHAR
STARTCHAR uni2109
ENCODING 8457
SWIDTH 941 0
DWIDTH 19 0
BBX 18 13 1 0
BITMAP
78FFC0
CC78C0
847880
847800
CCF080
78F180
00FF00
00F100
00F000
01E000
01E000
01E000
03F000
ENDCHAR
STARTCHAR trademark
ENCODING 8482
SWIDTH 1100 0
DWIDTH 21 0
BBX 21 8 0 5
BITMAP
FF7078
993870
1838B0
182CB0
182F30
182730
182230
3C7278
ENDCHAR
STARTCHAR uni212A
ENCODING 8490
SWIDTH 688 0
DWIDTH 14 0
BBX 14 13 0 0
BITMAP
3F3C
1E18
1E30
1E60
3CC0
3D80
3FC0
3DC0
3DE0
79E0
78F0
78F8
FC7C
ENDCHAR
STARTCHAR uni212B
ENCODING 8491
SWIDTH 634 0
DWIDTH 13 0
BBX 13 14 -1 0
BITMAP
00C0
0120
00C0
01C0
03C0
03C0
05E0
05E0
09E0
1FE0
10F0
20F0
60F0
F1F8
ENDCHAR
STARTCHAR uni2132
ENCODING 8498
SWIDTH 585 0
DWIDTH 12 0
BBX 12 13 0 0
BITMAP
03F0
01E0
01E0
01E0
03C0
23C0
3FC0
63C0
43C0
0780
4780
C780
FFC0
ENDCHAR
STARTCHAR minus
ENCODING 8722
SWIDTH 600 0
DWIDTH 11 0
BBX 10 2 0 4
BITMAP
FFC0
FFC0
ENDCHAR
STARTCHAR fraction
ENCODING 8725
SWIDTH 100 0
DWIDTH 2 0
BBX 9 13 -4 0
BITMAP
0080
0180
0100
0200
0600
0400
0800
1000
3000
2000
4000
C000
8000
ENDCHAR
STARTCHAR periodcentered
ENCODING 8729
SWIDTH 280 0
DWIDTH 5 0
BBX 4 3 0 4
BITMAP
60
F0
60
ENDCHAR
STARTCHAR uni2236
ENCODING 8758
SWIDTH 280 0
DWIDTH 5 0
BBX 5 9 0 0
BITMAP
30
78
30
00
00
00
60
F0
60
ENDCHAR
STARTCHAR uni2259
ENCODING 8793
SWIDTH 600 0
DWIDTH 11 0
BBX 10 9 0 2
BITMAP
0C00
1600
0000
FFC0
FFC0
0000
0000
FFC0
FFC0
ENDCHAR
STARTCHAR uni225A
ENCODING 8794
SWIDTH 600 0
DWIDTH 11 0
BBX 10 9 0 2
BITMAP
1A00
0C00
0000
FFC0
FFC0
0000
0000
FFC0
FFC0
ENDCHAR
STARTCHAR notequal
ENCODING 8800
SWIDTH 600 0
DWIDTH 11 0
BBX 10 13 0 -1
BITMAP
0300
0300
0300
0600
FFC0
FFC0
0C00
0C00
FFC0
FFC0
1800
1800
1800
ENDCHAR
STARTCHAR equivalence
ENCODING 8801
SWIDTH 600 0
DWIDTH 11 0
BBX 10 5 0 2
BITMAP
FFC0
0000
FFC0
0000
FFC0
ENDCHAR
STARTCHAR uni2262
ENCODING 8802
SWIDTH 600 0
DWIDTH 11 0
BBX 10 13 0 -2
BITMAP
0300
0300
0300
0600
FFC0
0600
FFC0
0C00
FFC0
0C00
1800
1800
1800
ENDCHAR
STARTCHAR lessequal
ENCODING 8804
SWIDTH 600 0
DWIDTH 11 0
BBX 10 12 0 -2
BITMAP
00C0
03C0
0F00
3C00
F000
F000
3C00
0F00
03C0
00C0
0000
FFC0
ENDCHAR
STARTCHAR greaterequal
ENCODING 8805
SWIDTH 600 0
DWIDTH 11 0
BBX 10 12 0 -2
BITMAP
C000
F000
3C00
0F00
03C0
03C0
0F00
3C00
F000
C000
0000
FFC0
ENDCHAR
STARTCHAR uni226E
ENCODING 8814
SWIDTH 600 0
DWIDTH 11 0
BBX 10 13 0 -1
BITMAP
0300
0300
03C0
07C0
0F00
3E00
FC00
FC00
3C00
0F00
1BC0
18C0
1800
ENDCHAR
STARTCHAR uni226F
ENCODING 8815
SWIDTH 600 0
DWIDTH 11 0
BBX 10 13 0 -1
BITMAP
0300
0300
C300
F600
3E00
0F00
0FC0
0FC0
0F00
3C00
F800
D800
1800
ENDCHAR
STARTCHAR uni2270
ENCODING 8816
SWIDTH 600 0
DWIDTH 11 0
BBX 10 13 0 -2
BITMAP
0300
03C0
03C0
0F00
3E00
F600
FC00
3C00
0F00
0FC0
18C0
1800
FFC0
ENDCHAR
STARTCHAR uni2271
ENCODING 8817
SWIDTH 600 0
DWIDTH 11 0
BBX 10 13 0 -2
BITMAP
0300
C300
F300
3E00
0F00
07C0
0FC0
0F00
3C00
FC00
D800
1800
FFC0
ENDCHAR
STARTCHAR fi
ENCODING -1
SWIDTH 651 0
DWIDTH 12 0
BBX 15 18 -3 -4
BITMAP
00F8
019C
038E
038C
0380
0FFC
071C
073C
0F38
0E38
0E78
0E72
1E74
1C38
1C00
DC00
D800
7000
ENDCHAR
STARTCHAR fl
ENCODING -1
SWIDTH 652 0
DWIDTH 12 0
BBX 15 18 -3 -4
BITMAP
00F6
01BE
039E
038E
039C
0FDC
071C
0738
0F38
0E38
0E78
0E72
1E74
1C38
1C00
DC00
D800
7000
ENDCHAR
ENDFONT
